<?xml version="1.0" encoding="UTF-8" standalone="no"?>
<svg
   xmlns:dc="http://purl.org/dc/elements/1.1/"
   xmlns:cc="http://creativecommons.org/ns#"
   xmlns:rdf="http://www.w3.org/1999/02/22-rdf-syntax-ns#"
   xmlns:svg="http://www.w3.org/2000/svg"
   xmlns="http://www.w3.org/2000/svg"
   xmlns:sodipodi="http://sodipodi.sourceforge.net/DTD/sodipodi-0.dtd"
   xmlns:inkscape="http://www.inkscape.org/namespaces/inkscape"
   viewBox="0 0 474.23 355.54"
   version="1.1"
   id="svg60"
   sodipodi:docname="drone-pirate-logo-dark.svg"
   inkscape:version="0.92.4 (5da689c313, 2019-01-14)">
  <metadata
     id="metadata66">
    <rdf:RDF>
      <cc:Work
         rdf:about="">
        <dc:format>image/svg+xml</dc:format>
        <dc:type
           rdf:resource="http://purl.org/dc/dcmitype/StillImage" />
        <dc:title />
      </cc:Work>
    </rdf:RDF>
  </metadata>
  <defs
     id="defs64" />
  <sodipodi:namedview
     pagecolor="#ffffff"
     bordercolor="#666666"
     borderopacity="1"
     objecttolerance="10"
     gridtolerance="10"
     guidetolerance="10"
     inkscape:pageopacity="0"
     inkscape:pageshadow="2"
     inkscape:window-width="3840"
     inkscape:window-height="2033"
     id="namedview62"
     showgrid="false"
     inkscape:zoom="2.8284271"
     inkscape:cx="-163.96595"
     inkscape:cy="97.045839"
     inkscape:window-x="0"
     inkscape:window-y="0"
     inkscape:window-maximized="1"
     inkscape:current-layer="g171" />
  <g
     transform="matrix(0.63581701,0,0,-0.63581701,54.096053,336.97588)"
     inkscape:label="ink_ext_XXXXXX"
     id="g169">
    <g
       transform="scale(0.1)"
       id="g171">
      <path
         inkscape:connector-curvature="0"
         id="path173"
         style="fill:#0e0f0e;fill-opacity:1;fill-rule:nonzero;stroke:none"
         d="m 1066.21,2943.83 c 121.45,0 238.32,20.78 347.34,58.2 3.71,1.25 7.59,2.11 11.29,3.4 l -0.07,0.12 c 0.54,0.15 1.05,0.27 1.56,0.46 -39.11,97.15 -103.09,186.61 -183.05,254.73 -56.87,-13.63 -116.1,-20.74 -177.07,-20.74 -424.69,0 -770.042,345.31 -770.042,770 0,424.1 345.352,770.04 770.042,770.04 424.69,0 770,-345.94 770,-770.04 0,-66.92 -8.87,-132.07 -24.88,-194.26 65.39,-72.19 147.5,-130.31 242.46,-172.07 3.43,-1.6 6.64,-3.52 10.11,-5.04 l 0.04,0.12 c 0.52,-0.24 0.98,-0.51 1.49,-0.71 43.24,116.1 66.95,241.06 66.95,371.96 0,587.58 -478.04,1066.17 -1066.17,1066.17 C 478.633,5076.17 0,4597.58 0,4010 0,3421.83 478.633,2943.83 1066.21,2943.83" />
      <path
         inkscape:connector-curvature="0"
         id="path175"
         style="fill:#0e0f0e;fill-opacity:1;fill-rule:nonzero;stroke:none"
         d="m 3051.02,3647.23 c 0,0 0.07,0.04 0.15,0.04 0.16,-0.52 0.32,-1.02 0.47,-1.53 99.49,42.03 186.56,106.01 252.93,187.73 -13.63,56.88 -20.74,116.1 -20.74,176.53 0,424.1 345.31,770.04 770,770.04 424.68,0 770.03,-345.94 770.03,-770.04 0,-424.69 -345.35,-770 -770.03,-770 -66.92,0 -132.07,8.87 -194.3,24.88 -48.55,-40.89 -91.21,-88.87 -125.55,-142.19 -20.78,-31.4 -38.71,-66.29 -55.19,-103.59 -0.74,-1.56 -1.53,-2.89 -2.27,-4.49 l 0.12,-0.04 c -0.23,-0.51 -0.47,-0.94 -0.7,-1.45 117.3,-45 244.64,-69.29 377.89,-69.29 587.58,0 1066.17,478 1066.17,1066.17 0,587.58 -478.59,1066.17 -1066.17,1066.17 -588.17,0 -1066.17,-478.59 -1066.17,-1066.17 0,-122.69 21.2,-240.24 59.49,-350 1.4,-4.22 2.38,-8.6 3.87,-12.77" />
      <path
         inkscape:connector-curvature="0"
         id="path177"
         style="fill:#0e0f0e;fill-opacity:1;fill-rule:nonzero;stroke:none"
         d="m 2079.61,1397.54 -0.11,-0.04 c -0.16,0.5 -0.28,1.05 -0.44,1.56 -100.12,-36.72 -188.98,-95.98 -259.45,-172.39 10.66,-52.1 16.6,-105.42 16.6,-160.5 0,-424.1 -345.31,-769.998 -770,-769.998 -424.69,0 -770.042,345.898 -770.042,769.998 0,424.73 345.352,770 770.042,770 73.4,0 144.49,-10.62 212.03,-30.19 67.78,69.53 121.68,155.11 158.4,252.49 0.66,1.64 1.49,3.2 2.15,4.85 -0.04,0.03 -0.04,0.03 -0.04,0.03 0.15,0.52 0.39,0.99 0.59,1.49 -116.1,43.83 -241.68,67.5 -373.13,67.5 C 478.633,2132.34 0,1654.34 0,1066.17 0,478.59 478.633,0 1066.21,0 c 588.13,0 1066.17,478.59 1066.17,1066.17 0,112.38 -18.12,220.74 -50.39,322.7 -0.89,2.88 -1.49,5.81 -2.38,8.67" />
      <path
         inkscape:connector-curvature="0"
         id="path179"
         style="fill:#0e0f0e;fill-opacity:1;fill-rule:nonzero;stroke:none"
         d="m 4053.83,2132.34 c -137.34,0 -269.38,-26.29 -389.97,-74.06 -0.58,-0.24 -1.2,-0.39 -1.83,-0.62 0,0 0,0 0,-0.04 -0.47,-0.16 -1.01,-0.31 -1.49,-0.51 29.62,-79.92 71.1,-155.78 127.35,-220.94 11.25,-12.42 22.54,-24.26 34.33,-36.14 72.86,23.72 151.06,36.14 231.61,36.14 424.68,0 770.03,-345.27 770.03,-770 0,-424.1 -345.35,-769.998 -770.03,-769.998 -424.69,0 -770,345.898 -770,769.998 0,47.38 4.14,93.59 12.42,138.63 -63.75,73.75 -144.76,133.36 -238.87,176.68 -5.86,2.78 -11.29,6.14 -17.26,8.79 0,-0.08 -0.04,-0.16 -0.04,-0.24 -0.51,0.24 -0.98,0.52 -1.49,0.71 -33.16,-102.46 -50.93,-211.44 -50.93,-324.57 C 2987.66,478.59 3465.66,0 4053.83,0 4641.41,0 5120,478.59 5120,1066.17 c 0,588.17 -478.59,1066.17 -1066.17,1066.17" />
      <path
         inkscape:connector-curvature="0"
         id="path181"
         style="fill:#0e0f0e;fill-opacity:1;fill-rule:nonzero;stroke:none"
         d="m 3460.2607,3145.0114 c 45.6015,44.2455 215.0893,189.7486 218.0593,192.7186 56.87,59.81 122.62,111.95 194.88,152.82 49.14,27.84 100.66,50.35 154.57,68.71 66.33,21.87 136.25,31.37 199.03,65.74 241.68,131.52 289.65,467.93 95.97,662.81 l -1.21,1.17 c -81.72,81.17 -187.18,119.06 -291.99,119.06 -166.44,0 -331.13,-95.93 -395.08,-267.73 -26.68,-71.68 -38.51,-146.29 -68.71,-216.8 -29.65,-68.71 -68.12,-133.86 -114.92,-192.5 -23.68,-29.61 -49.18,-57.46 -76.41,-82.93 -3.12,-3.63 -6.79,-6.75 -10.39,-9.88 -0.12,-0.04 -0.2,-0.2 -0.31,-0.2 l 0.04,-0.03 c -0.43,-0.35 -129.5513,-103.9937 -206.6143,-161.3669"
         sodipodi:nodetypes="cccccccscccccccc"
         sodipodi:insensitive="true" />
      <path
         inkscape:connector-curvature="0"
         id="path183"
         style="fill:#0e0f0e;fill-opacity:1;fill-rule:nonzero;stroke:none"
         d="m 1494.46,4029.57 c -26.06,90.58 -46.8,172.34 -111.96,244.02 -49.18,54.49 -112.54,95.36 -183.04,117.85 -40.87,13.05 -82.9,18.95 -124.96,18.95 -110.203,0 -218.605,-42.62 -297.941,-121.41 l -0.582,-1.17 C 565.078,4076.36 644.453,3706.13 924.605,3600.7 c 71.098,-26.64 146.335,-37.89 216.805,-68.67 68.71,-29.65 133.86,-68.16 192.49,-114.96 33.21,-26.64 65.16,-55.67 93.01,-87.04 61.0088,-42.4547 165.1466,-166.6063 216.1954,-211.4452 l 297.826,332.3095 -204.1314,186.5257 -0.04,0.04 1.13,1.17 c -113.16,102.46 -198.43,234.53 -243.43,390.94"
         sodipodi:nodetypes="cccscccccccccccc"
         sodipodi:insensitive="true" />
      <path
         inkscape:connector-curvature="0"
         id="path185"
         style="fill:#0e0f0e;fill-opacity:1;fill-rule:nonzero;stroke:none"
         d="m 3603.67,1001.05 c 26.06,-90.038 47.42,-171.788 111.95,-243.468 49.77,-54.5 113.17,-95.352 183.05,-117.863 40.86,-13.047 83.51,-19.571 125.55,-19.571 109.61,0 217.96,43.243 297.34,122.043 l 1.21,1.161 c 162.89,163.48 162.89,428.248 -0.62,591.718 -102.46,101.92 -238.09,109.03 -364.85,164.11 -103.08,43.82 -431.9669,356.0728 -509.5869,436.0728 L 3155.23,1595.9893 c 86.4847,-88.1699 197.0947,-168.1292 246.9307,-241.614 105.47,-100.71 158.2693,-204.0653 201.5093,-353.3253"
         sodipodi:nodetypes="cccscccccccc"
         sodipodi:insensitive="true" />
      <path
         inkscape:connector-curvature="0"
         id="path187"
         style="fill:#0e0f0e;fill-opacity:1;fill-rule:nonzero;stroke:none"
         d="m 1413.86,1688.79 -0.03,-0.04 -1.13,1.13 C 1311.41,1583.87 1183.48,1503.91 1034.77,1460.67 944.176,1434.61 863.008,1414.49 791.367,1348.71 736.871,1299.53 696.016,1236.17 673.48,1165.7 626.719,1018.2 666.949,852.969 775.977,743.352 l 0.582,-1.161 c 82.304,-81.14 187.152,-119.652 291.991,-119.652 166.45,0 330.51,96.52 395.08,268.32 24.88,65.743 35.55,134.451 61.6,199.611 30.83,75.23 71.68,146.28 122.62,209.68 22.5,28.44 287.2289,269.9612 313.2889,294.8412 -274.9992,275.1926 -222.0724,236.2209 -322.2957,336.6376"
         sodipodi:nodetypes="ccccccccsccccc"
         sodipodi:insensitive="true" />
      <path
         inkscape:connector-curvature="0"
         id="path191"
         style="fill:#0e0f0e;fill-opacity:1;fill-rule:nonzero;stroke:none"
         d="m 1743.2,3643.35 -5.31,-4.72 c 0.59,-0.59 1.17,-1.21 1.76,-1.21 1.21,1.76 2.38,3.56 3.55,5.93" />
    </g>
  </g>
  <path
     d="m 288.6633,201.71051 c -3.051,0.832 -4.563,-2.89 -4.795,-5.945 -0.55701,-7.213 0.67001,-11.527 0.075,-15.376 -0.67401,-4.359 1.707,-11.415 -3.725,-9.076 -3.083,1.327 -0.51901,4.757 0.595,8.362 1.112,3.606 0.82898,15.751 0.82898,18.312 0,4.437 2.499,7.039 9.161,9.432 7.661,2.751 1.565,20.69 -5.827,22.746 -7.681,2.14 -11.99,-3.159 -17.487,-2.218 -9.712,1.664 -7.77,11.096 -9.712,14.148 -1.942,3.05 -1.942,3.05 -5.271,6.381 -2.451,2.447 -4.05,4.411 -5.766,5.957 0.26898,0.23099 0.46201,0.63199 0.509,1.306 0.21298,2.914 2.551,5.15 2.551,8.062 0,2.916 -0.92902,3.953 -4.677,4.783 -3.743,0.83502 -5.394,-0.62198 -5.601,-1.867 -0.20801,-1.249 0.31099,-5.801 0.914,-8.234 0.198,-0.801 0.472,-1.29 0.75899,-1.615 -3.04,0.54898 -6.836,0.76199 -9.5,0.76199 -0.099,0 -0.19699,0.002 -0.297,0.002 0.646,0.43201 1.344,1.167 1.787,2.497 1.056,3.164 1.217,5.547 1.424,7.418 0.207,1.872 -2.291,2.499 -4.79,2.706 -2.499,0.20799 -5.412,-0.62199 -5.827,-1.669 -0.41501,-1.037 0.273,-5.372 0.69699,-7.621 0.26001,-1.37 1.65,-2.546 2.726,-3.274 -2.811,0.063 -5.809,0.16501 -8.869,0.21201 0.81599,0.875 1.613,1.952 1.806,2.989 0.422,2.249 1.351,5.62 1.143,7.072 -0.20999,1.457 -0.834,1.876 -4.788,2.084 -3.956,0.20702 -5.29,-0.41498 -5.707,-1.245 -0.41701,-0.834 0.302,-5.822 0.801,-7.885 0.269,-1.101 1.091,-2.188 1.846,-2.999 -2.468,-0.028 -4.927,-0.12299 -7.319,-0.32498 0.58699,1.631 3.267,4.42 2.558,8.908 -0.396,2.499 -1.57,3.536 -6.961,3.546 -3.121,0.005 -4.566,-2.084 -4.573,-3.536 -0.021,-3.989 1.669,-6.771 2.555,-9.623 -2.996,-0.339 -4.813,-0.58301 -6.294,-1.2 0.205,1.344 1.011,4.894 1.447,8.531 0.276,2.282 -0.832,3.536 -3.536,3.536 -2.706,0 -4.373,-1.451 -4.373,-2.704 0,-3.328 4.891,-9.519 5.292,-9.785 0.04,-0.026 0.087,-0.066 0.13701,-0.10397 -0.285,-0.172 -0.56601,-0.36301 -0.849,-0.58402 -2.499,-1.94 -5.549,-4.706 -7.173,-11.745 -1.626,-7.039 -1.044,-11.332 -6.464,-14.58 -5.417,-3.248 -15.179,4.524 -20.056,4.015 -5.431,-0.56799 -12.298,-11.431 -12.739,-16.548 -0.517,-5.983 5.32,-3.206 8.642,-10.778 2.112,-4.821 0.012,-10.844 0.012,-24.37899 0,-13.538 4.656,-20.431 7.598,-27.074 2.14,-4.835 -0.828,-8.43 2.946,-21.065 3.225,-10.79 6.131,-14.80399 6.131,-14.80399 0,0 -5.193,4.27299 -8.243,14.34199 -2.702,8.911 -1.876,13.404 -4.045,20.443 -2.167,7.039 -5.443,11.676 -7.069,22.505 -1.625,10.83 1.098,24.03499 -1.625,28.40799 -1.834,2.944 -7.916,-0.238 -8.708,-11.108 -0.681,-9.32299 -1.891,-27.75999 -0.26401,-38.58899 1.624,-10.83 2.583,-6.803 8.312,-26.716 6.749,-23.46899 36.19,-37.756985 71.342,-38.235985 30.707,-0.419 41.927,9.528 51.96,18.999995 10.462,9.88 17.76,23.69799 19.98,32.57599 2.22,8.878 4.163,12.562 5.549,20.054 1.392,7.489 0.642,18.368 -0.71201,23.778 -1.506,6.02199 -4.462,16.54699 -8.442,17.63399 z m -84.237,-23.837 c -3.953,-6.242 -14.578,-7.322 -22.685,-7.699 -8.951,-0.417 -13.85,2.338 -14.778,9.156 -0.75,5.497 0.20801,13.731 2.082,19.764 1.629,5.248 8.116,12.277 13.736,11.445 4.514,-0.669 14.148,-7.878 19.773,-14.356 3.362,-3.876 3.779,-15.304 1.872,-18.31 z m 12.49,16.852 c -2.086,0.146 -5.203,7.074 -6.66,15.813 -0.959,5.759 -4.776,13.8 -3.956,18.724 0.552,3.31 3.623,3.784 5.413,0.20801 1.457,-2.911 2.289,-5.617 4.37,-5.617 2.081,0 6.674,12.192 9.366,11.859 3.106,-0.382 6.935,-5.195 6.454,-11.235 -0.42,-5.2 -2.499,-10.403 -5.62,-15.813 -3.121,-5.41 -7.298,-14.082 -9.367,-13.939 z m 50.573,-16.852 c -3.121,-4.163 -8.533,-7.699 -19.146,-7.074 -8.778,0.51601 -17.524,4.062 -18.316,9.986 -0.829,6.242 0.94301,9.5 4.376,13.731 3.535,4.37 13.526,12.901 19.976,13.316 6.454,0.417 12.074,-1.04 12.904,-7.489 0.83301,-6.45 3.327,-18.31 0.20599,-22.47 z"
     id="path58"
     inkscape:connector-curvature="0"
     style="fill:#000000;fill-opacity:1;stroke:#000000;stroke-width:2"
     sodipodi:nodetypes="cccccscccccccsccccscccccccccccccccccccccssccccccccsccccccccccccscccccccccccccccsccscccccccccc" />
</svg>
