  0
SECTION
  2
HEADER
  9
$ACADVER
  1
AC1009
  9
$EXTMIN
 10
0.0
 20
0.0
 30
0.0
  9
$EXTMAX
 10
1000.0
 20
1000.0
 30
0.0
  9
$FILLMODE
 70
 0
  9
$SPLFRAME
 70
 1
  0
ENDSEC
  0
SECTION
  2
TABLES
  0
TABLE
  2
LAYER
 70
1
  0
LAYER
  2
0
 70
     0
 62
     7
  6
CONTINUOUS
  0
ENDTAB
  0
ENDSEC
  0
SECTION
  2
ENTITIES
  0
POLYLINE
  8
0
 62
     0
 66
     1
 10
0
 20
0
 30
0.0
 70
     1
 40
0
 41
0
  0
VERTEX
  8
0
 10
0.706164
 20
1.96272
 30
0.0
 40
0
 41
0
  0
VERTEX
  8
0
 10
0.735678
 20
1.96272
 30
0.0
 40
0
 41
0
  0
VERTEX
  8
0
 10
0.824274
 20
1.97276
 30
0.0
 40
0
 41
0
  0
VERTEX
  8
0
 10
0.918132
 20
1.99511
 30
0.0
 40
0
 41
0
  0
VERTEX
  8
0
 10
0.936199
 20
2.00131
 30
0.0
 40
0
 41
0
  0
VERTEX
  8
0
 10
0.936794
 20
2.00151
 30
0.0
 40
0
 41
0
  0
VERTEX
  8
0
 10
0.943033
 20
2.00331
 30
0.0
 40
0
 41
0
  0
VERTEX
  8
0
 10
0.943685
 20
2.00353
 30
0.0
 40
0
 41
0
  0
VERTEX
  8
0
 10
0.943631
 20
2.00364
 30
0.0
 40
0
 41
0
  0
VERTEX
  8
0
 10
0.943685
 20
2.00369
 30
0.0
 40
0
 41
0
  0
VERTEX
  8
0
 10
0.944553
 20
2.0039
 30
0.0
 40
0
 41
0
  0
VERTEX
  8
0
 10
0.944661
 20
2.0039
 30
0.0
 40
0
 41
0
  0
VERTEX
  8
0
 10
0.938151
 20
2.02001
 30
0.0
 40
0
 41
0
  0
VERTEX
  8
0
 10
0.894206
 20
2.09549
 30
0.0
 40
0
 41
0
  0
VERTEX
  8
0
 10
0.836697
 20
2.16135
 30
0.0
 40
0
 41
0
  0
VERTEX
  8
0
 10
0.82346
 20
2.17264
 30
0.0
 40
0
 41
0
  0
VERTEX
  8
0
 10
0.814019
 20
2.17042
 30
0.0
 40
0
 41
0
  0
VERTEX
  8
0
 10
0.733128
 20
2.1589
 30
0.0
 40
0
 41
0
  0
VERTEX
  8
0
 10
0.706164
 20
2.1589
 30
0.0
 40
0
 41
0
  0
VERTEX
  8
0
 10
0.680447
 20
2.1589
 30
0.0
 40
0
 41
0
  0
VERTEX
  8
0
 10
0.603461
 20
2.16932
 30
0.0
 40
0
 41
0
  0
VERTEX
  8
0
 10
0.507758
 20
2.19906
 30
0.0
 40
0
 41
0
  0
VERTEX
  8
0
 10
0.421169
 20
2.24615
 30
0.0
 40
0
 41
0
  0
VERTEX
  8
0
 10
0.345649
 20
2.30843
 30
0.0
 40
0
 41
0
  0
VERTEX
  8
0
 10
0.283365
 20
2.38396
 30
0.0
 40
0
 41
0
  0
VERTEX
  8
0
 10
0.236274
 20
2.47054
 30
0.0
 40
0
 41
0
  0
VERTEX
  8
0
 10
0.206543
 20
2.56625
 30
0.0
 40
0
 41
0
  0
VERTEX
  8
0
 10
0.196181
 20
2.64324
 30
0.0
 40
0
 41
0
  0
VERTEX
  8
0
 10
0.196181
 20
2.66889
 30
0.0
 40
0
 41
0
  0
VERTEX
  8
0
 10
0.196181
 20
2.69456
 30
0.0
 40
0
 41
0
  0
VERTEX
  8
0
 10
0.206543
 20
2.77149
 30
0.0
 40
0
 41
0
  0
VERTEX
  8
0
 10
0.236274
 20
2.86708
 30
0.0
 40
0
 41
0
  0
VERTEX
  8
0
 10
0.283365
 20
2.95372
 30
0.0
 40
0
 41
0
  0
VERTEX
  8
0
 10
0.345649
 20
3.02924
 30
0.0
 40
0
 41
0
  0
VERTEX
  8
0
 10
0.421169
 20
3.09158
 30
0.0
 40
0
 41
0
  0
VERTEX
  8
0
 10
0.507758
 20
3.13872
 30
0.0
 40
0
 41
0
  0
VERTEX
  8
0
 10
0.603461
 20
3.16851
 30
0.0
 40
0
 41
0
  0
VERTEX
  8
0
 10
0.680447
 20
3.17887
 30
0.0
 40
0
 41
0
  0
VERTEX
  8
0
 10
0.706164
 20
3.17887
 30
0.0
 40
0
 41
0
  0
VERTEX
  8
0
 10
0.731825
 20
3.17887
 30
0.0
 40
0
 41
0
  0
VERTEX
  8
0
 10
0.808811
 20
3.16851
 30
0.0
 40
0
 41
0
  0
VERTEX
  8
0
 10
0.90446
 20
3.13872
 30
0.0
 40
0
 41
0
  0
VERTEX
  8
0
 10
0.991103
 20
3.09158
 30
0.0
 40
0
 41
0
  0
VERTEX
  8
0
 10
1.06662
 20
3.02924
 30
0.0
 40
0
 41
0
  0
VERTEX
  8
0
 10
1.12891
 20
2.95372
 30
0.0
 40
0
 41
0
  0
VERTEX
  8
0
 10
1.176
 20
2.86708
 30
0.0
 40
0
 41
0
  0
VERTEX
  8
0
 10
1.20573
 20
2.77149
 30
0.0
 40
0
 41
0
  0
VERTEX
  8
0
 10
1.21615
 20
2.69456
 30
0.0
 40
0
 41
0
  0
VERTEX
  8
0
 10
1.21615
 20
2.66889
 30
0.0
 40
0
 41
0
  0
VERTEX
  8
0
 10
1.21615
 20
2.63672
 30
0.0
 40
0
 41
0
  0
VERTEX
  8
0
 10
1.20231
 20
2.55051
 30
0.0
 40
0
 41
0
  0
VERTEX
  8
0
 10
1.19965
 20
2.54021
 30
0.0
 40
0
 41
0
  0
VERTEX
  8
0
 10
1.21045
 20
2.52826
 30
0.0
 40
0
 41
0
  0
VERTEX
  8
0
 10
1.27257
 20
2.47569
 30
0.0
 40
0
 41
0
  0
VERTEX
  8
0
 10
1.34451
 20
2.43317
 30
0.0
 40
0
 41
0
  0
VERTEX
  8
0
 10
1.36024
 20
2.42622
 30
0.0
 40
0
 41
0
  0
VERTEX
  8
0
 10
1.36079
 20
2.426
 30
0.0
 40
0
 41
0
  0
VERTEX
  8
0
 10
1.36632
 20
2.42318
 30
0.0
 40
0
 41
0
  0
VERTEX
  8
0
 10
1.36692
 20
2.4229
 30
0.0
 40
0
 41
0
  0
VERTEX
  8
0
 10
1.36697
 20
2.42296
 30
0.0
 40
0
 41
0
  0
VERTEX
  8
0
 10
1.36702
 20
2.42296
 30
0.0
 40
0
 41
0
  0
VERTEX
  8
0
 10
1.36784
 20
2.42258
 30
0.0
 40
0
 41
0
  0
VERTEX
  8
0
 10
1.36795
 20
2.42253
 30
0.0
 40
0
 41
0
  0
VERTEX
  8
0
 10
1.37511
 20
2.44179
 30
0.0
 40
0
 41
0
  0
VERTEX
  8
0
 10
1.40082
 20
2.54204
 30
0.0
 40
0
 41
0
  0
VERTEX
  8
0
 10
1.41228
 20
2.63721
 30
0.0
 40
0
 41
0
  0
VERTEX
  8
0
 10
1.41228
 20
2.66889
 30
0.0
 40
0
 41
0
  0
VERTEX
  8
0
 10
1.41228
 20
2.70443
 30
0.0
 40
0
 41
0
  0
VERTEX
  8
0
 10
1.39789
 20
2.81099
 30
0.0
 40
0
 41
0
  0
VERTEX
  8
0
 10
1.35672
 20
2.94342
 30
0.0
 40
0
 41
0
  0
VERTEX
  8
0
 10
1.29156
 20
3.06338
 30
0.0
 40
0
 41
0
  0
VERTEX
  8
0
 10
1.2053
 20
3.16792
 30
0.0
 40
0
 41
0
  0
VERTEX
  8
0
 10
1.10075
 20
3.25424
 30
0.0
 40
0
 41
0
  0
VERTEX
  8
0
 10
0.980794
 20
3.31944
 30
0.0
 40
0
 41
0
  0
VERTEX
  8
0
 10
0.848307
 20
3.36062
 30
0.0
 40
0
 41
0
  0
VERTEX
  8
0
 10
0.741699
 20
3.375
 30
0.0
 40
0
 41
0
  0
VERTEX
  8
0
 10
0.706164
 20
3.375
 30
0.0
 40
0
 41
0
  0
VERTEX
  8
0
 10
0.670628
 20
3.375
 30
0.0
 40
0
 41
0
  0
VERTEX
  8
0
 10
0.564074
 20
3.36062
 30
0.0
 40
0
 41
0
  0
VERTEX
  8
0
 10
0.43164
 20
3.31944
 30
0.0
 40
0
 41
0
  0
VERTEX
  8
0
 10
0.311686
 20
3.25424
 30
0.0
 40
0
 41
0
  0
VERTEX
  8
0
 10
0.20714
 20
3.16792
 30
0.0
 40
0
 41
0
  0
VERTEX
  8
0
 10
0.120822
 20
3.06338
 30
0.0
 40
0
 41
0
  0
VERTEX
  8
0
 10
0.0556099
 20
2.94342
 30
0.0
 40
0
 41
0
  0
VERTEX
  8
0
 10
0.0143772
 20
2.81099
 30
0.0
 40
0
 41
0
  0
VERTEX
  8
0
 10
0
 20
2.70443
 30
0.0
 40
0
 41
0
  0
VERTEX
  8
0
 10
0
 20
2.66889
 30
0.0
 40
0
 41
0
  0
VERTEX
  8
0
 10
0
 20
2.63336
 30
0.0
 40
0
 41
0
  0
VERTEX
  8
0
 10
0.0143772
 20
2.52669
 30
0.0
 40
0
 41
0
  0
VERTEX
  8
0
 10
0.0556099
 20
2.39421
 30
0.0
 40
0
 41
0
  0
VERTEX
  8
0
 10
0.120822
 20
2.27425
 30
0.0
 40
0
 41
0
  0
VERTEX
  8
0
 10
0.20714
 20
2.16976
 30
0.0
 40
0
 41
0
  0
VERTEX
  8
0
 10
0.311686
 20
2.08344
 30
0.0
 40
0
 41
0
  0
VERTEX
  8
0
 10
0.43164
 20
2.01828
 30
0.0
 40
0
 41
0
  0
VERTEX
  8
0
 10
0.564074
 20
1.97711
 30
0.0
 40
0
 41
0
  0
VERTEX
  8
0
 10
0.670628
 20
1.96272
 30
0.0
 40
0
 41
0
  0
VERTEX
  8
0
 10
0.706164
 20
1.96272
 30
0.0
 40
0
 41
0
  0
SEQEND
 8
0
  0
POLYLINE
  8
0
 62
     0
 66
     1
 10
0
 20
0
 30
0.0
 70
     1
 40
0
 41
0
  0
VERTEX
  8
0
 10
2.02072
 20
2.4286
 30
0.0
 40
0
 41
0
  0
VERTEX
  8
0
 10
2.02072
 20
2.4286
 30
0.0
 40
0
 41
0
  0
VERTEX
  8
0
 10
2.02083
 20
2.4286
 30
0.0
 40
0
 41
0
  0
VERTEX
  8
0
 10
2.02083
 20
2.4286
 30
0.0
 40
0
 41
0
  0
VERTEX
  8
0
 10
2.02083
 20
2.42854
 30
0.0
 40
0
 41
0
  0
VERTEX
  8
0
 10
2.02106
 20
2.42774
 30
0.0
 40
0
 41
0
  0
VERTEX
  8
0
 10
2.02111
 20
2.42763
 30
0.0
 40
0
 41
0
  0
VERTEX
  8
0
 10
2.03754
 20
2.43463
 30
0.0
 40
0
 41
0
  0
VERTEX
  8
0
 10
2.11307
 20
2.47999
 30
0.0
 40
0
 41
0
  0
VERTEX
  8
0
 10
2.17763
 20
2.53847
 30
0.0
 40
0
 41
0
  0
VERTEX
  8
0
 10
2.18864
 20
2.55197
 30
0.0
 40
0
 41
0
  0
VERTEX
  8
0
 10
2.18636
 20
2.56142
 30
0.0
 40
0
 41
0
  0
VERTEX
  8
0
 10
2.17492
 20
2.64204
 30
0.0
 40
0
 41
0
  0
VERTEX
  8
0
 10
2.17492
 20
2.66889
 30
0.0
 40
0
 41
0
  0
VERTEX
  8
0
 10
2.17492
 20
2.69456
 30
0.0
 40
0
 41
0
  0
VERTEX
  8
0
 10
2.18528
 20
2.77149
 30
0.0
 40
0
 41
0
  0
VERTEX
  8
0
 10
2.215
 20
2.86708
 30
0.0
 40
0
 41
0
  0
VERTEX
  8
0
 10
2.2621
 20
2.95372
 30
0.0
 40
0
 41
0
  0
VERTEX
  8
0
 10
2.32437
 20
3.02924
 30
0.0
 40
0
 41
0
  0
VERTEX
  8
0
 10
2.3999
 20
3.09158
 30
0.0
 40
0
 41
0
  0
VERTEX
  8
0
 10
2.48649
 20
3.13872
 30
0.0
 40
0
 41
0
  0
VERTEX
  8
0
 10
2.58219
 20
3.16851
 30
0.0
 40
0
 41
0
  0
VERTEX
  8
0
 10
2.65918
 20
3.17887
 30
0.0
 40
0
 41
0
  0
VERTEX
  8
0
 10
2.6849
 20
3.17887
 30
0.0
 40
0
 41
0
  0
VERTEX
  8
0
 10
2.71056
 20
3.17887
 30
0.0
 40
0
 41
0
  0
VERTEX
  8
0
 10
2.78754
 20
3.16851
 30
0.0
 40
0
 41
0
  0
VERTEX
  8
0
 10
2.88319
 20
3.13872
 30
0.0
 40
0
 41
0
  0
VERTEX
  8
0
 10
2.96983
 20
3.09158
 30
0.0
 40
0
 41
0
  0
VERTEX
  8
0
 10
3.04536
 20
3.02924
 30
0.0
 40
0
 41
0
  0
VERTEX
  8
0
 10
3.10764
 20
2.95372
 30
0.0
 40
0
 41
0
  0
VERTEX
  8
0
 10
3.15474
 20
2.86708
 30
0.0
 40
0
 41
0
  0
VERTEX
  8
0
 10
3.18446
 20
2.77149
 30
0.0
 40
0
 41
0
  0
VERTEX
  8
0
 10
3.19488
 20
2.69456
 30
0.0
 40
0
 41
0
  0
VERTEX
  8
0
 10
3.19488
 20
2.66889
 30
0.0
 40
0
 41
0
  0
VERTEX
  8
0
 10
3.19488
 20
2.64324
 30
0.0
 40
0
 41
0
  0
VERTEX
  8
0
 10
3.18446
 20
2.56625
 30
0.0
 40
0
 41
0
  0
VERTEX
  8
0
 10
3.15474
 20
2.47054
 30
0.0
 40
0
 41
0
  0
VERTEX
  8
0
 10
3.10764
 20
2.38396
 30
0.0
 40
0
 41
0
  0
VERTEX
  8
0
 10
3.04536
 20
2.30843
 30
0.0
 40
0
 41
0
  0
VERTEX
  8
0
 10
2.96983
 20
2.24615
 30
0.0
 40
0
 41
0
  0
VERTEX
  8
0
 10
2.88319
 20
2.19906
 30
0.0
 40
0
 41
0
  0
VERTEX
  8
0
 10
2.78754
 20
2.16932
 30
0.0
 40
0
 41
0
  0
VERTEX
  8
0
 10
2.71056
 20
2.1589
 30
0.0
 40
0
 41
0
  0
VERTEX
  8
0
 10
2.6849
 20
2.1589
 30
0.0
 40
0
 41
0
  0
VERTEX
  8
0
 10
2.65272
 20
2.1589
 30
0.0
 40
0
 41
0
  0
VERTEX
  8
0
 10
2.56651
 20
2.17275
 30
0.0
 40
0
 41
0
  0
VERTEX
  8
0
 10
2.55621
 20
2.17535
 30
0.0
 40
0
 41
0
  0
VERTEX
  8
0
 10
2.54812
 20
2.16863
 30
0.0
 40
0
 41
0
  0
VERTEX
  8
0
 10
2.51107
 20
2.1314
 30
0.0
 40
0
 41
0
  0
VERTEX
  8
0
 10
2.47868
 20
2.09006
 30
0.0
 40
0
 41
0
  0
VERTEX
  8
0
 10
2.47304
 20
2.08122
 30
0.0
 40
0
 41
0
  0
VERTEX
  8
0
 10
2.46957
 20
2.07601
 30
0.0
 40
0
 41
0
  0
VERTEX
  8
0
 10
2.43924
 20
2.01878
 30
0.0
 40
0
 41
0
  0
VERTEX
  8
0
 10
2.43653
 20
2.01258
 30
0.0
 40
0
 41
0
  0
VERTEX
  8
0
 10
2.43636
 20
2.01238
 30
0.0
 40
0
 41
0
  0
VERTEX
  8
0
 10
2.43511
 20
2.00987
 30
0.0
 40
0
 41
0
  0
VERTEX
  8
0
 10
2.435
 20
2.0096
 30
0.0
 40
0
 41
0
  0
VERTEX
  8
0
 10
2.43506
 20
2.0096
 30
0.0
 40
0
 41
0
  0
VERTEX
  8
0
 10
2.435
 20
2.00956
 30
0.0
 40
0
 41
0
  0
VERTEX
  8
0
 10
2.43463
 20
2.00874
 30
0.0
 40
0
 41
0
  0
VERTEX
  8
0
 10
2.43463
 20
2.00863
 30
0.0
 40
0
 41
0
  0
VERTEX
  8
0
 10
2.45404
 20
2.00119
 30
0.0
 40
0
 41
0
  0
VERTEX
  8
0
 10
2.55578
 20
1.97456
 30
0.0
 40
0
 41
0
  0
VERTEX
  8
0
 10
2.65261
 20
1.96272
 30
0.0
 40
0
 41
0
  0
VERTEX
  8
0
 10
2.6849
 20
1.96272
 30
0.0
 40
0
 41
0
  0
VERTEX
  8
0
 10
2.72038
 20
1.96272
 30
0.0
 40
0
 41
0
  0
VERTEX
  8
0
 10
2.82693
 20
1.97711
 30
0.0
 40
0
 41
0
  0
VERTEX
  8
0
 10
2.95936
 20
2.01828
 30
0.0
 40
0
 41
0
  0
VERTEX
  8
0
 10
3.07932
 20
2.08344
 30
0.0
 40
0
 41
0
  0
VERTEX
  8
0
 10
3.18386
 20
2.16976
 30
0.0
 40
0
 41
0
  0
VERTEX
  8
0
 10
3.27018
 20
2.27425
 30
0.0
 40
0
 41
0
  0
VERTEX
  8
0
 10
3.33539
 20
2.39421
 30
0.0
 40
0
 41
0
  0
VERTEX
  8
0
 10
3.37657
 20
2.52669
 30
0.0
 40
0
 41
0
  0
VERTEX
  8
0
 10
3.391
 20
2.63336
 30
0.0
 40
0
 41
0
  0
VERTEX
  8
0
 10
3.391
 20
2.66889
 30
0.0
 40
0
 41
0
  0
VERTEX
  8
0
 10
3.391
 20
2.70443
 30
0.0
 40
0
 41
0
  0
VERTEX
  8
0
 10
3.37657
 20
2.81099
 30
0.0
 40
0
 41
0
  0
VERTEX
  8
0
 10
3.33539
 20
2.94342
 30
0.0
 40
0
 41
0
  0
VERTEX
  8
0
 10
3.27018
 20
3.06338
 30
0.0
 40
0
 41
0
  0
VERTEX
  8
0
 10
3.18386
 20
3.16792
 30
0.0
 40
0
 41
0
  0
VERTEX
  8
0
 10
3.07932
 20
3.25424
 30
0.0
 40
0
 41
0
  0
VERTEX
  8
0
 10
2.95936
 20
3.31944
 30
0.0
 40
0
 41
0
  0
VERTEX
  8
0
 10
2.82693
 20
3.36062
 30
0.0
 40
0
 41
0
  0
VERTEX
  8
0
 10
2.72038
 20
3.375
 30
0.0
 40
0
 41
0
  0
VERTEX
  8
0
 10
2.6849
 20
3.375
 30
0.0
 40
0
 41
0
  0
VERTEX
  8
0
 10
2.64931
 20
3.375
 30
0.0
 40
0
 41
0
  0
VERTEX
  8
0
 10
2.54269
 20
3.36062
 30
0.0
 40
0
 41
0
  0
VERTEX
  8
0
 10
2.41021
 20
3.31944
 30
0.0
 40
0
 41
0
  0
VERTEX
  8
0
 10
2.29025
 20
3.25424
 30
0.0
 40
0
 41
0
  0
VERTEX
  8
0
 10
2.18571
 20
3.16792
 30
0.0
 40
0
 41
0
  0
VERTEX
  8
0
 10
2.09944
 20
3.06338
 30
0.0
 40
0
 41
0
  0
VERTEX
  8
0
 10
2.03429
 20
2.94342
 30
0.0
 40
0
 41
0
  0
VERTEX
  8
0
 10
1.99306
 20
2.81099
 30
0.0
 40
0
 41
0
  0
VERTEX
  8
0
 10
1.97874
 20
2.70443
 30
0.0
 40
0
 41
0
  0
VERTEX
  8
0
 10
1.97874
 20
2.66889
 30
0.0
 40
0
 41
0
  0
VERTEX
  8
0
 10
1.97874
 20
2.63917
 30
0.0
 40
0
 41
0
  0
VERTEX
  8
0
 10
1.98893
 20
2.54981
 30
0.0
 40
0
 41
0
  0
VERTEX
  8
0
 10
2.01183
 20
2.45524
 30
0.0
 40
0
 41
0
  0
VERTEX
  8
0
 10
2.01818
 20
2.43707
 30
0.0
 40
0
 41
0
  0
VERTEX
  8
0
 10
2.01839
 20
2.43636
 30
0.0
 40
0
 41
0
  0
VERTEX
  8
0
 10
2.02046
 20
2.42931
 30
0.0
 40
0
 41
0
  0
VERTEX
  8
0
 10
2.02072
 20
2.4286
 30
0.0
 40
0
 41
0
  0
SEQEND
 8
0
  0
POLYLINE
  8
0
 62
     0
 66
     1
 10
0
 20
0
 30
0.0
 70
     1
 40
0
 41
0
  0
VERTEX
  8
0
 10
1.37733
 20
0.938585
 30
0.0
 40
0
 41
0
  0
VERTEX
  8
0
 10
1.37728
 20
0.938585
 30
0.0
 40
0
 41
0
  0
VERTEX
  8
0
 10
1.37723
 20
0.938693
 30
0.0
 40
0
 41
0
  0
VERTEX
  8
0
 10
1.37701
 20
0.939561
 30
0.0
 40
0
 41
0
  0
VERTEX
  8
0
 10
1.37701
 20
0.939615
 30
0.0
 40
0
 41
0
  0
VERTEX
  8
0
 10
1.36041
 20
0.933539
 30
0.0
 40
0
 41
0
  0
VERTEX
  8
0
 10
1.28369
 20
0.892415
 30
0.0
 40
0
 41
0
  0
VERTEX
  8
0
 10
1.2168
 20
0.838108
 30
0.0
 40
0
 41
0
  0
VERTEX
  8
0
 10
1.20513
 20
0.825467
 30
0.0
 40
0
 41
0
  0
VERTEX
  8
0
 10
1.20687
 20
0.81684
 30
0.0
 40
0
 41
0
  0
VERTEX
  8
0
 10
1.21615
 20
0.743599
 30
0.0
 40
0
 41
0
  0
VERTEX
  8
0
 10
1.21615
 20
0.719129
 30
0.0
 40
0
 41
0
  0
VERTEX
  8
0
 10
1.21615
 20
0.693522
 30
0.0
 40
0
 41
0
  0
VERTEX
  8
0
 10
1.20573
 20
0.61659
 30
0.0
 40
0
 41
0
  0
VERTEX
  8
0
 10
1.176
 20
0.520996
 30
0.0
 40
0
 41
0
  0
VERTEX
  8
0
 10
1.12891
 20
0.434353
 30
0.0
 40
0
 41
0
  0
VERTEX
  8
0
 10
1.06662
 20
0.358832
 30
0.0
 40
0
 41
0
  0
VERTEX
  8
0
 10
0.991103
 20
0.296496
 30
0.0
 40
0
 41
0
  0
VERTEX
  8
0
 10
0.90446
 20
0.249349
 30
0.0
 40
0
 41
0
  0
VERTEX
  8
0
 10
0.808811
 20
0.219564
 30
0.0
 40
0
 41
0
  0
VERTEX
  8
0
 10
0.731825
 20
0.209147
 30
0.0
 40
0
 41
0
  0
VERTEX
  8
0
 10
0.706164
 20
0.209147
 30
0.0
 40
0
 41
0
  0
VERTEX
  8
0
 10
0.680447
 20
0.209147
 30
0.0
 40
0
 41
0
  0
VERTEX
  8
0
 10
0.603461
 20
0.219564
 30
0.0
 40
0
 41
0
  0
VERTEX
  8
0
 10
0.507758
 20
0.249349
 30
0.0
 40
0
 41
0
  0
VERTEX
  8
0
 10
0.421169
 20
0.296496
 30
0.0
 40
0
 41
0
  0
VERTEX
  8
0
 10
0.345649
 20
0.358832
 30
0.0
 40
0
 41
0
  0
VERTEX
  8
0
 10
0.283365
 20
0.434353
 30
0.0
 40
0
 41
0
  0
VERTEX
  8
0
 10
0.236274
 20
0.520996
 30
0.0
 40
0
 41
0
  0
VERTEX
  8
0
 10
0.206543
 20
0.61659
 30
0.0
 40
0
 41
0
  0
VERTEX
  8
0
 10
0.196181
 20
0.693522
 30
0.0
 40
0
 41
0
  0
VERTEX
  8
0
 10
0.196181
 20
0.719129
 30
0.0
 40
0
 41
0
  0
VERTEX
  8
0
 10
0.196181
 20
0.744846
 30
0.0
 40
0
 41
0
  0
VERTEX
  8
0
 10
0.206543
 20
0.821832
 30
0.0
 40
0
 41
0
  0
VERTEX
  8
0
 10
0.236274
 20
0.917535
 30
0.0
 40
0
 41
0
  0
VERTEX
  8
0
 10
0.283365
 20
1.00412
 30
0.0
 40
0
 41
0
  0
VERTEX
  8
0
 10
0.345649
 20
1.07964
 30
0.0
 40
0
 41
0
  0
VERTEX
  8
0
 10
0.421169
 20
1.14193
 30
0.0
 40
0
 41
0
  0
VERTEX
  8
0
 10
0.507758
 20
1.18902
 30
0.0
 40
0
 41
0
  0
VERTEX
  8
0
 10
0.603461
 20
1.21875
 30
0.0
 40
0
 41
0
  0
VERTEX
  8
0
 10
0.680447
 20
1.22911
 30
0.0
 40
0
 41
0
  0
VERTEX
  8
0
 10
0.706164
 20
1.22911
 30
0.0
 40
0
 41
0
  0
VERTEX
  8
0
 10
0.724067
 20
1.22911
 30
0.0
 40
0
 41
0
  0
VERTEX
  8
0
 10
0.777832
 20
1.22401
 30
0.0
 40
0
 41
0
  0
VERTEX
  8
0
 10
0.835394
 20
1.2124
 30
0.0
 40
0
 41
0
  0
VERTEX
  8
0
 10
0.846571
 20
1.20915
 30
0.0
 40
0
 41
0
  0
VERTEX
  8
0
 10
0.857801
 20
1.22065
 30
0.0
 40
0
 41
0
  0
VERTEX
  8
0
 10
0.906739
 20
1.28586
 30
0.0
 40
0
 41
0
  0
VERTEX
  8
0
 10
0.945421
 20
1.36024
 30
0.0
 40
0
 41
0
  0
VERTEX
  8
0
 10
0.951497
 20
1.37636
 30
0.0
 40
0
 41
0
  0
VERTEX
  8
0
 10
0.951606
 20
1.37663
 30
0.0
 40
0
 41
0
  0
VERTEX
  8
0
 10
0.9528
 20
1.37929
 30
0.0
 40
0
 41
0
  0
VERTEX
  8
0
 10
0.952908
 20
1.37956
 30
0.0
 40
0
 41
0
  0
VERTEX
  8
0
 10
0.952908
 20
1.37967
 30
0.0
 40
0
 41
0
  0
VERTEX
  8
0
 10
0.953233
 20
1.38053
 30
0.0
 40
0
 41
0
  0
VERTEX
  8
0
 10
0.953288
 20
1.38059
 30
0.0
 40
0
 41
0
  0
VERTEX
  8
0
 10
0.934028
 20
1.38786
 30
0.0
 40
0
 41
0
  0
VERTEX
  8
0
 10
0.83355
 20
1.41385
 30
0.0
 40
0
 41
0
  0
VERTEX
  8
0
 10
0.73801
 20
1.42529
 30
0.0
 40
0
 41
0
  0
VERTEX
  8
0
 10
0.706164
 20
1.42529
 30
0.0
 40
0
 41
0
  0
VERTEX
  8
0
 10
0.670628
 20
1.42529
 30
0.0
 40
0
 41
0
  0
VERTEX
  8
0
 10
0.564074
 20
1.41097
 30
0.0
 40
0
 41
0
  0
VERTEX
  8
0
 10
0.43164
 20
1.36974
 30
0.0
 40
0
 41
0
  0
VERTEX
  8
0
 10
0.311686
 20
1.30458
 30
0.0
 40
0
 41
0
  0
VERTEX
  8
0
 10
0.20714
 20
1.21832
 30
0.0
 40
0
 41
0
  0
VERTEX
  8
0
 10
0.120822
 20
1.11377
 30
0.0
 40
0
 41
0
  0
VERTEX
  8
0
 10
0.0556099
 20
0.993815
 30
0.0
 40
0
 41
0
  0
VERTEX
  8
0
 10
0.0143772
 20
0.861328
 30
0.0
 40
0
 41
0
  0
VERTEX
  8
0
 10
0
 20
0.754719
 30
0.0
 40
0
 41
0
  0
VERTEX
  8
0
 10
0
 20
0.719129
 30
0.0
 40
0
 41
0
  0
VERTEX
  8
0
 10
0
 20
0.683649
 30
0.0
 40
0
 41
0
  0
VERTEX
  8
0
 10
0.0143772
 20
0.577094
 30
0.0
 40
0
 41
0
  0
VERTEX
  8
0
 10
0.0556099
 20
0.444661
 30
0.0
 40
0
 41
0
  0
VERTEX
  8
0
 10
0.120822
 20
0.324707
 30
0.0
 40
0
 41
0
  0
VERTEX
  8
0
 10
0.20714
 20
0.220161
 30
0.0
 40
0
 41
0
  0
VERTEX
  8
0
 10
0.311686
 20
0.133843
 30
0.0
 40
0
 41
0
  0
VERTEX
  8
0
 10
0.43164
 20
0.0686307
 30
0.0
 40
0
 41
0
  0
VERTEX
  8
0
 10
0.564074
 20
0.0274522
 30
0.0
 40
0
 41
0
  0
VERTEX
  8
0
 10
0.670628
 20
0.0130208
 30
0.0
 40
0
 41
0
  0
VERTEX
  8
0
 10
0.706164
 20
0.0130208
 30
0.0
 40
0
 41
0
  0
VERTEX
  8
0
 10
0.741699
 20
0.0130208
 30
0.0
 40
0
 41
0
  0
VERTEX
  8
0
 10
0.848307
 20
0.0274522
 30
0.0
 40
0
 41
0
  0
VERTEX
  8
0
 10
0.980794
 20
0.0686307
 30
0.0
 40
0
 41
0
  0
VERTEX
  8
0
 10
1.10075
 20
0.133843
 30
0.0
 40
0
 41
0
  0
VERTEX
  8
0
 10
1.2053
 20
0.220161
 30
0.0
 40
0
 41
0
  0
VERTEX
  8
0
 10
1.29156
 20
0.324707
 30
0.0
 40
0
 41
0
  0
VERTEX
  8
0
 10
1.35672
 20
0.444661
 30
0.0
 40
0
 41
0
  0
VERTEX
  8
0
 10
1.39789
 20
0.577094
 30
0.0
 40
0
 41
0
  0
VERTEX
  8
0
 10
1.41228
 20
0.683649
 30
0.0
 40
0
 41
0
  0
VERTEX
  8
0
 10
1.41228
 20
0.719129
 30
0.0
 40
0
 41
0
  0
VERTEX
  8
0
 10
1.41228
 20
0.746528
 30
0.0
 40
0
 41
0
  0
VERTEX
  8
0
 10
1.4036
 20
0.828614
 30
0.0
 40
0
 41
0
  0
VERTEX
  8
0
 10
1.38422
 20
0.916015
 30
0.0
 40
0
 41
0
  0
VERTEX
  8
0
 10
1.37891
 20
0.932889
 30
0.0
 40
0
 41
0
  0
VERTEX
  8
0
 10
1.37874
 20
0.933376
 30
0.0
 40
0
 41
0
  0
VERTEX
  8
0
 10
1.37744
 20
0.938151
 30
0.0
 40
0
 41
0
  0
VERTEX
  8
0
 10
1.37733
 20
0.938585
 30
0.0
 40
0
 41
0
  0
SEQEND
 8
0
  0
POLYLINE
  8
0
 62
     0
 66
     1
 10
0
 20
0
 30
0.0
 70
     1
 40
0
 41
0
  0
VERTEX
  8
0
 10
2.6849
 20
1.42529
 30
0.0
 40
0
 41
0
  0
VERTEX
  8
0
 10
2.65153
 20
1.42529
 30
0.0
 40
0
 41
0
  0
VERTEX
  8
0
 10
2.55154
 20
1.41265
 30
0.0
 40
0
 41
0
  0
VERTEX
  8
0
 10
2.44656
 20
1.38417
 30
0.0
 40
0
 41
0
  0
VERTEX
  8
0
 10
2.4266
 20
1.37625
 30
0.0
 40
0
 41
0
  0
VERTEX
  8
0
 10
2.42649
 20
1.37625
 30
0.0
 40
0
 41
0
  0
VERTEX
  8
0
 10
2.42551
 20
1.37587
 30
0.0
 40
0
 41
0
  0
VERTEX
  8
0
 10
2.4254
 20
1.37581
 30
0.0
 40
0
 41
0
  0
VERTEX
  8
0
 10
2.4254
 20
1.37581
 30
0.0
 40
0
 41
0
  0
VERTEX
  8
0
 10
2.4254
 20
1.37576
 30
0.0
 40
0
 41
0
  0
VERTEX
  8
0
 10
2.4254
 20
1.37576
 30
0.0
 40
0
 41
0
  0
VERTEX
  8
0
 10
2.42529
 20
1.37576
 30
0.0
 40
0
 41
0
  0
VERTEX
  8
0
 10
2.42449
 20
1.37549
 30
0.0
 40
0
 41
0
  0
VERTEX
  8
0
 10
2.42443
 20
1.37543
 30
0.0
 40
0
 41
0
  0
VERTEX
  8
0
 10
2.42931
 20
1.36225
 30
0.0
 40
0
 41
0
  0
VERTEX
  8
0
 10
2.45996
 20
1.29867
 30
0.0
 40
0
 41
0
  0
VERTEX
  8
0
 10
2.4994
 20
1.23991
 30
0.0
 40
0
 41
0
  0
VERTEX
  8
0
 10
2.50874
 20
1.22911
 30
0.0
 40
0
 41
0
  0
VERTEX
  8
0
 10
2.51058
 20
1.22705
 30
0.0
 40
0
 41
0
  0
VERTEX
  8
0
 10
2.52951
 20
1.20719
 30
0.0
 40
0
 41
0
  0
VERTEX
  8
0
 10
2.53147
 20
1.20519
 30
0.0
 40
0
 41
0
  0
VERTEX
  8
0
 10
2.54351
 20
1.20915
 30
0.0
 40
0
 41
0
  0
VERTEX
  8
0
 10
2.60628
 20
1.22304
 30
0.0
 40
0
 41
0
  0
VERTEX
  8
0
 10
2.66521
 20
1.22911
 30
0.0
 40
0
 41
0
  0
VERTEX
  8
0
 10
2.6849
 20
1.22911
 30
0.0
 40
0
 41
0
  0
VERTEX
  8
0
 10
2.71056
 20
1.22911
 30
0.0
 40
0
 41
0
  0
VERTEX
  8
0
 10
2.78754
 20
1.21875
 30
0.0
 40
0
 41
0
  0
VERTEX
  8
0
 10
2.88319
 20
1.18902
 30
0.0
 40
0
 41
0
  0
VERTEX
  8
0
 10
2.96983
 20
1.14193
 30
0.0
 40
0
 41
0
  0
VERTEX
  8
0
 10
3.04536
 20
1.07964
 30
0.0
 40
0
 41
0
  0
VERTEX
  8
0
 10
3.10764
 20
1.00412
 30
0.0
 40
0
 41
0
  0
VERTEX
  8
0
 10
3.15474
 20
0.917535
 30
0.0
 40
0
 41
0
  0
VERTEX
  8
0
 10
3.18446
 20
0.821832
 30
0.0
 40
0
 41
0
  0
VERTEX
  8
0
 10
3.19488
 20
0.744846
 30
0.0
 40
0
 41
0
  0
VERTEX
  8
0
 10
3.19488
 20
0.719129
 30
0.0
 40
0
 41
0
  0
VERTEX
  8
0
 10
3.19488
 20
0.693522
 30
0.0
 40
0
 41
0
  0
VERTEX
  8
0
 10
3.18446
 20
0.61659
 30
0.0
 40
0
 41
0
  0
VERTEX
  8
0
 10
3.15474
 20
0.520996
 30
0.0
 40
0
 41
0
  0
VERTEX
  8
0
 10
3.10764
 20
0.434353
 30
0.0
 40
0
 41
0
  0
VERTEX
  8
0
 10
3.04536
 20
0.358832
 30
0.0
 40
0
 41
0
  0
VERTEX
  8
0
 10
2.96983
 20
0.296496
 30
0.0
 40
0
 41
0
  0
VERTEX
  8
0
 10
2.88319
 20
0.249349
 30
0.0
 40
0
 41
0
  0
VERTEX
  8
0
 10
2.78754
 20
0.219564
 30
0.0
 40
0
 41
0
  0
VERTEX
  8
0
 10
2.71056
 20
0.209147
 30
0.0
 40
0
 41
0
  0
VERTEX
  8
0
 10
2.6849
 20
0.209147
 30
0.0
 40
0
 41
0
  0
VERTEX
  8
0
 10
2.65918
 20
0.209147
 30
0.0
 40
0
 41
0
  0
VERTEX
  8
0
 10
2.58219
 20
0.219564
 30
0.0
 40
0
 41
0
  0
VERTEX
  8
0
 10
2.48649
 20
0.249349
 30
0.0
 40
0
 41
0
  0
VERTEX
  8
0
 10
2.3999
 20
0.296496
 30
0.0
 40
0
 41
0
  0
VERTEX
  8
0
 10
2.32437
 20
0.358832
 30
0.0
 40
0
 41
0
  0
VERTEX
  8
0
 10
2.2621
 20
0.434353
 30
0.0
 40
0
 41
0
  0
VERTEX
  8
0
 10
2.215
 20
0.520996
 30
0.0
 40
0
 41
0
  0
VERTEX
  8
0
 10
2.18528
 20
0.61659
 30
0.0
 40
0
 41
0
  0
VERTEX
  8
0
 10
2.17492
 20
0.693522
 30
0.0
 40
0
 41
0
  0
VERTEX
  8
0
 10
2.17492
 20
0.719129
 30
0.0
 40
0
 41
0
  0
VERTEX
  8
0
 10
2.17492
 20
0.742133
 30
0.0
 40
0
 41
0
  0
VERTEX
  8
0
 10
2.18175
 20
0.803549
 30
0.0
 40
0
 41
0
  0
VERTEX
  8
0
 10
2.18317
 20
0.810981
 30
0.0
 40
0
 41
0
  0
VERTEX
  8
0
 10
2.17258
 20
0.823188
 30
0.0
 40
0
 41
0
  0
VERTEX
  8
0
 10
2.11154
 20
0.877061
 30
0.0
 40
0
 41
0
  0
VERTEX
  8
0
 10
2.04053
 20
0.92079
 30
0.0
 40
0
 41
0
  0
VERTEX
  8
0
 10
2.02496
 20
0.927951
 30
0.0
 40
0
 41
0
  0
VERTEX
  8
0
 10
2.02399
 20
0.92844
 30
0.0
 40
0
 41
0
  0
VERTEX
  8
0
 10
2.01449
 20
0.933376
 30
0.0
 40
0
 41
0
  0
VERTEX
  8
0
 10
2.01351
 20
0.933811
 30
0.0
 40
0
 41
0
  0
VERTEX
  8
0
 10
2.01351
 20
0.933811
 30
0.0
 40
0
 41
0
  0
VERTEX
  8
0
 10
2.01346
 20
0.933649
 30
0.0
 40
0
 41
0
  0
VERTEX
  8
0
 10
2.01346
 20
0.933649
 30
0.0
 40
0
 41
0
  0
VERTEX
  8
0
 10
2.01335
 20
0.933703
 30
0.0
 40
0
 41
0
  0
VERTEX
  8
0
 10
2.01253
 20
0.934082
 30
0.0
 40
0
 41
0
  0
VERTEX
  8
0
 10
2.01247
 20
0.934082
 30
0.0
 40
0
 41
0
  0
VERTEX
  8
0
 10
2.00694
 20
0.917156
 30
0.0
 40
0
 41
0
  0
VERTEX
  8
0
 10
1.98736
 20
0.829318
 30
0.0
 40
0
 41
0
  0
VERTEX
  8
0
 10
1.97874
 20
0.74669
 30
0.0
 40
0
 41
0
  0
VERTEX
  8
0
 10
1.97874
 20
0.719129
 30
0.0
 40
0
 41
0
  0
VERTEX
  8
0
 10
1.97874
 20
0.683649
 30
0.0
 40
0
 41
0
  0
VERTEX
  8
0
 10
1.99306
 20
0.577094
 30
0.0
 40
0
 41
0
  0
VERTEX
  8
0
 10
2.03429
 20
0.444661
 30
0.0
 40
0
 41
0
  0
VERTEX
  8
0
 10
2.09944
 20
0.324707
 30
0.0
 40
0
 41
0
  0
VERTEX
  8
0
 10
2.18571
 20
0.220161
 30
0.0
 40
0
 41
0
  0
VERTEX
  8
0
 10
2.29025
 20
0.133843
 30
0.0
 40
0
 41
0
  0
VERTEX
  8
0
 10
2.41021
 20
0.0686307
 30
0.0
 40
0
 41
0
  0
VERTEX
  8
0
 10
2.54269
 20
0.0274522
 30
0.0
 40
0
 41
0
  0
VERTEX
  8
0
 10
2.64931
 20
0.0130208
 30
0.0
 40
0
 41
0
  0
VERTEX
  8
0
 10
2.6849
 20
0.0130208
 30
0.0
 40
0
 41
0
  0
VERTEX
  8
0
 10
2.72038
 20
0.0130208
 30
0.0
 40
0
 41
0
  0
VERTEX
  8
0
 10
2.82693
 20
0.0274522
 30
0.0
 40
0
 41
0
  0
VERTEX
  8
0
 10
2.95936
 20
0.0686307
 30
0.0
 40
0
 41
0
  0
VERTEX
  8
0
 10
3.07932
 20
0.133843
 30
0.0
 40
0
 41
0
  0
VERTEX
  8
0
 10
3.18386
 20
0.220161
 30
0.0
 40
0
 41
0
  0
VERTEX
  8
0
 10
3.27018
 20
0.324707
 30
0.0
 40
0
 41
0
  0
VERTEX
  8
0
 10
3.33539
 20
0.444661
 30
0.0
 40
0
 41
0
  0
VERTEX
  8
0
 10
3.37657
 20
0.577094
 30
0.0
 40
0
 41
0
  0
VERTEX
  8
0
 10
3.391
 20
0.683649
 30
0.0
 40
0
 41
0
  0
VERTEX
  8
0
 10
3.391
 20
0.719129
 30
0.0
 40
0
 41
0
  0
VERTEX
  8
0
 10
3.391
 20
0.754719
 30
0.0
 40
0
 41
0
  0
VERTEX
  8
0
 10
3.37657
 20
0.861328
 30
0.0
 40
0
 41
0
  0
VERTEX
  8
0
 10
3.33539
 20
0.993815
 30
0.0
 40
0
 41
0
  0
VERTEX
  8
0
 10
3.27018
 20
1.11377
 30
0.0
 40
0
 41
0
  0
VERTEX
  8
0
 10
3.18386
 20
1.21832
 30
0.0
 40
0
 41
0
  0
VERTEX
  8
0
 10
3.07932
 20
1.30458
 30
0.0
 40
0
 41
0
  0
VERTEX
  8
0
 10
2.95936
 20
1.36974
 30
0.0
 40
0
 41
0
  0
VERTEX
  8
0
 10
2.82693
 20
1.41097
 30
0.0
 40
0
 41
0
  0
VERTEX
  8
0
 10
2.72038
 20
1.42529
 30
0.0
 40
0
 41
0
  0
VERTEX
  8
0
 10
2.6849
 20
1.42529
 30
0.0
 40
0
 41
0
  0
SEQEND
 8
0
  0
POLYLINE
  8
0
 62
     0
 66
     1
 10
0
 20
0
 30
0.0
 70
     1
 40
0
 41
0
  0
VERTEX
  8
0
 10
2.29178
 20
2.09597
 30
0.0
 40
0
 41
0
  0
VERTEX
  8
0
 10
2.29536
 20
2.0995
 30
0.0
 40
0
 41
0
  0
VERTEX
  8
0
 10
2.30653
 20
2.10981
 30
0.0
 40
0
 41
0
  0
VERTEX
  8
0
 10
2.32676
 20
2.12804
 30
0.0
 40
0
 41
0
  0
VERTEX
  8
0
 10
2.35021
 20
2.14876
 30
0.0
 40
0
 41
0
  0
VERTEX
  8
0
 10
2.37457
 20
2.17008
 30
0.0
 40
0
 41
0
  0
VERTEX
  8
0
 10
2.39757
 20
2.19011
 30
0.0
 40
0
 41
0
  0
VERTEX
  8
0
 10
2.41704
 20
2.20697
 30
0.0
 40
0
 41
0
  0
VERTEX
  8
0
 10
2.43067
 20
2.21881
 30
0.0
 40
0
 41
0
  0
VERTEX
  8
0
 10
2.43571
 20
2.22314
 30
0.0
 40
0
 41
0
  0
VERTEX
  8
0
 10
2.43619
 20
2.22364
 30
0.0
 40
0
 41
0
  0
VERTEX
  8
0
 10
2.44558
 20
2.23356
 30
0.0
 40
0
 41
0
  0
VERTEX
  8
0
 10
2.4969
 20
2.27897
 30
0.0
 40
0
 41
0
  0
VERTEX
  8
0
 10
2.55328
 20
2.31808
 30
0.0
 40
0
 41
0
  0
VERTEX
  8
0
 10
2.56526
 20
2.32482
 30
0.0
 40
0
 41
0
  0
VERTEX
  8
0
 10
2.5734
 20
2.32943
 30
0.0
 40
0
 41
0
  0
VERTEX
  8
0
 10
2.65869
 20
2.36729
 30
0.0
 40
0
 41
0
  0
VERTEX
  8
0
 10
2.66764
 20
2.37033
 30
0.0
 40
0
 41
0
  0
VERTEX
  8
0
 10
2.6786
 20
2.37397
 30
0.0
 40
0
 41
0
  0
VERTEX
  8
0
 10
2.73438
 20
2.38906
 30
0.0
 40
0
 41
0
  0
VERTEX
  8
0
 10
2.78901
 20
2.40821
 30
0.0
 40
0
 41
0
  0
VERTEX
  8
0
 10
2.79943
 20
2.4139
 30
0.0
 40
0
 41
0
  0
VERTEX
  8
0
 10
2.82699
 20
2.42893
 30
0.0
 40
0
 41
0
  0
VERTEX
  8
0
 10
2.89492
 20
2.50108
 30
0.0
 40
0
 41
0
  0
VERTEX
  8
0
 10
2.93935
 20
2.61768
 30
0.0
 40
0
 41
0
  0
VERTEX
  8
0
 10
2.92969
 20
2.74208
 30
0.0
 40
0
 41
0
  0
VERTEX
  8
0
 10
2.8851
 20
2.83062
 30
0.0
 40
0
 41
0
  0
VERTEX
  8
0
 10
2.86301
 20
2.85286
 30
0.0
 40
0
 41
0
  0
VERTEX
  8
0
 10
2.86219
 20
2.85363
 30
0.0
 40
0
 41
0
  0
VERTEX
  8
0
 10
2.85238
 20
2.86339
 30
0.0
 40
0
 41
0
  0
VERTEX
  8
0
 10
2.8189
 20
2.88867
 30
0.0
 40
0
 41
0
  0
VERTEX
  8
0
 10
2.77121
 20
2.91325
 30
0.0
 40
0
 41
0
  0
VERTEX
  8
0
 10
2.72071
 20
2.92779
 30
0.0
 40
0
 41
0
  0
VERTEX
  8
0
 10
2.68181
 20
2.93251
 30
0.0
 40
0
 41
0
  0
VERTEX
  8
0
 10
2.66883
 20
2.93251
 30
0.0
 40
0
 41
0
  0
VERTEX
  8
0
 10
2.64844
 20
2.93251
 30
0.0
 40
0
 41
0
  0
VERTEX
  8
0
 10
2.58735
 20
2.92085
 30
0.0
 40
0
 41
0
  0
VERTEX
  8
0
 10
2.51253
 20
2.88656
 30
0.0
 40
0
 41
0
  0
VERTEX
  8
0
 10
2.45036
 20
2.83089
 30
0.0
 40
0
 41
0
  0
VERTEX
  8
0
 10
2.41465
 20
2.77533
 30
0.0
 40
0
 41
0
  0
VERTEX
  8
0
 10
2.40717
 20
2.75515
 30
0.0
 40
0
 41
0
  0
VERTEX
  8
0
 10
2.40272
 20
2.74333
 30
0.0
 40
0
 41
0
  0
VERTEX
  8
0
 10
2.38525
 20
2.68311
 30
0.0
 40
0
 41
0
  0
VERTEX
  8
0
 10
2.36664
 20
2.62326
 30
0.0
 40
0
 41
0
  0
VERTEX
  8
0
 10
2.36165
 20
2.6116
 30
0.0
 40
0
 41
0
  0
VERTEX
  8
0
 10
2.35672
 20
2.60026
 30
0.0
 40
0
 41
0
  0
VERTEX
  8
0
 10
2.32781
 20
2.54536
 30
0.0
 40
0
 41
0
  0
VERTEX
  8
0
 10
2.29324
 20
2.49382
 30
0.0
 40
0
 41
0
  0
VERTEX
  8
0
 10
2.28554
 20
2.4841
 30
0.0
 40
0
 41
0
  0
VERTEX
  8
0
 10
2.28157
 20
2.47922
 30
0.0
 40
0
 41
0
  0
VERTEX
  8
0
 10
2.23942
 20
2.43338
 30
0.0
 40
0
 41
0
  0
VERTEX
  8
0
 10
2.23492
 20
2.42914
 30
0.0
 40
0
 41
0
  0
VERTEX
  8
0
 10
2.23438
 20
2.42854
 30
0.0
 40
0
 41
0
  0
VERTEX
  8
0
 10
2.22862
 20
2.42318
 30
0.0
 40
0
 41
0
  0
VERTEX
  8
0
 10
2.22803
 20
2.42264
 30
0.0
 40
0
 41
0
  0
VERTEX
  8
0
 10
2.22797
 20
2.42264
 30
0.0
 40
0
 41
0
  0
VERTEX
  8
0
 10
2.22786
 20
2.42247
 30
0.0
 40
0
 41
0
  0
VERTEX
  8
0
 10
2.22786
 20
2.42247
 30
0.0
 40
0
 41
0
  0
VERTEX
  8
0
 10
2.22775
 20
2.42242
 30
0.0
 40
0
 41
0
  0
VERTEX
  8
0
 10
2.22396
 20
2.41938
 30
0.0
 40
0
 41
0
  0
VERTEX
  8
0
 10
2.21354
 20
2.41103
 30
0.0
 40
0
 41
0
  0
VERTEX
  8
0
 10
2.19786
 20
2.3986
 30
0.0
 40
0
 41
0
  0
VERTEX
  8
0
 10
2.1785
 20
2.38319
 30
0.0
 40
0
 41
0
  0
VERTEX
  8
0
 10
2.15668
 20
2.36604
 30
0.0
 40
0
 41
0
  0
VERTEX
  8
0
 10
2.1339
 20
2.34831
 30
0.0
 40
0
 41
0
  0
VERTEX
  8
0
 10
2.11154
 20
2.33111
 30
0.0
 40
0
 41
0
  0
VERTEX
  8
0
 10
2.09619
 20
2.31944
 30
0.0
 40
0
 41
0
  0
VERTEX
  8
0
 10
2.09104
 20
2.3156
 30
0.0
 40
0
 41
0
  0
SEQEND
 8
0
  0
POLYLINE
  8
0
 62
     0
 66
     1
 10
0
 20
0
 30
0.0
 70
     1
 40
0
 41
0
  0
VERTEX
  8
0
 10
0.9898
 20
2.68181
 30
0.0
 40
0
 41
0
  0
VERTEX
  8
0
 10
0.98546
 20
2.69683
 30
0.0
 40
0
 41
0
  0
VERTEX
  8
0
 10
0.962403
 20
2.76736
 30
0.0
 40
0
 41
0
  0
VERTEX
  8
0
 10
0.926432
 20
2.8316
 30
0.0
 40
0
 41
0
  0
VERTEX
  8
0
 10
0.915636
 20
2.84343
 30
0.0
 40
0
 41
0
  0
VERTEX
  8
0
 10
0.907497
 20
2.85249
 30
0.0
 40
0
 41
0
  0
VERTEX
  8
0
 10
0.860297
 20
2.89046
 30
0.0
 40
0
 41
0
  0
VERTEX
  8
0
 10
0.806099
 20
2.91781
 30
0.0
 40
0
 41
0
  0
VERTEX
  8
0
 10
0.794433
 20
2.9215
 30
0.0
 40
0
 41
0
  0
VERTEX
  8
0
 10
0.787651
 20
2.92367
 30
0.0
 40
0
 41
0
  0
VERTEX
  8
0
 10
0.730632
 20
2.93403
 30
0.0
 40
0
 41
0
  0
VERTEX
  8
0
 10
0.711643
 20
2.93403
 30
0.0
 40
0
 41
0
  0
VERTEX
  8
0
 10
0.698079
 20
2.93403
 30
0.0
 40
0
 41
0
  0
VERTEX
  8
0
 10
0.657389
 20
2.92882
 30
0.0
 40
0
 41
0
  0
VERTEX
  8
0
 10
0.605306
 20
2.91342
 30
0.0
 40
0
 41
0
  0
VERTEX
  8
0
 10
0.557021
 20
2.88824
 30
0.0
 40
0
 41
0
  0
VERTEX
  8
0
 10
0.523981
 20
2.86328
 30
0.0
 40
0
 41
0
  0
VERTEX
  8
0
 10
0.514324
 20
2.85363
 30
0.0
 40
0
 41
0
  0
VERTEX
  8
0
 10
0.513943
 20
2.85286
 30
0.0
 40
0
 41
0
  0
VERTEX
  8
0
 10
0.501411
 20
2.84033
 30
0.0
 40
0
 41
0
  0
VERTEX
  8
0
 10
0.470432
 20
2.79601
 30
0.0
 40
0
 41
0
  0
VERTEX
  8
0
 10
0.444282
 20
2.73253
 30
0.0
 40
0
 41
0
  0
VERTEX
  8
0
 10
0.434733
 20
2.66581
 30
0.0
 40
0
 41
0
  0
VERTEX
  8
0
 10
0.441135
 20
2.59901
 30
0.0
 40
0
 41
0
  0
VERTEX
  8
0
 10
0.462836
 20
2.5356
 30
0.0
 40
0
 41
0
  0
VERTEX
  8
0
 10
0.499024
 20
2.47868
 30
0.0
 40
0
 41
0
  0
VERTEX
  8
0
 10
0.5491
 20
2.43169
 30
0.0
 40
0
 41
0
  0
VERTEX
  8
0
 10
0.595703
 20
2.40408
 30
0.0
 40
0
 41
0
  0
VERTEX
  8
0
 10
0.612358
 20
2.39779
 30
0.0
 40
0
 41
0
  0
VERTEX
  8
0
 10
0.624132
 20
2.39339
 30
0.0
 40
0
 41
0
  0
VERTEX
  8
0
 10
0.684299
 20
2.37608
 30
0.0
 40
0
 41
0
  0
VERTEX
  8
0
 10
0.744303
 20
2.35742
 30
0.0
 40
0
 41
0
  0
VERTEX
  8
0
 10
0.755968
 20
2.35232
 30
0.0
 40
0
 41
0
  0
VERTEX
  8
0
 10
0.767307
 20
2.34744
 30
0.0
 40
0
 41
0
  0
VERTEX
  8
0
 10
0.822211
 20
2.31853
 30
0.0
 40
0
 41
0
  0
VERTEX
  8
0
 10
0.873753
 20
2.2839
 30
0.0
 40
0
 41
0
  0
VERTEX
  8
0
 10
0.883464
 20
2.27615
 30
0.0
 40
0
 41
0
  0
VERTEX
  8
0
 10
0.888943
 20
2.27175
 30
0.0
 40
0
 41
0
  0
VERTEX
  8
0
 10
0.940429
 20
2.22374
 30
0.0
 40
0
 41
0
  0
VERTEX
  8
0
 10
0.945042
 20
2.21853
 30
0.0
 40
0
 41
0
  0
VERTEX
  8
0
 10
0.954318
 20
2.21208
 30
0.0
 40
0
 41
0
  0
VERTEX
  8
0
 10
0.97971
 20
2.18896
 30
0.0
 40
0
 41
0
  0
VERTEX
  8
0
 10
1.0191
 20
2.14908
 30
0.0
 40
0
 41
0
  0
VERTEX
  8
0
 10
1.05729
 20
2.10894
 30
0.0
 40
0
 41
0
  0
VERTEX
  8
0
 10
1.08008
 20
2.08561
 30
0.0
 40
0
 41
0
  0
VERTEX
  8
0
 10
1.08827
 20
2.07844
 30
0.0
 40
0
 41
0
  0
VERTEX
  8
0
 10
1.28548
 20
2.29856
 30
0.0
 40
0
 41
0
  0
VERTEX
  8
0
 10
1.15028
 20
2.4221
 30
0.0
 40
0
 41
0
  0
VERTEX
  8
0
 10
1.15028
 20
2.42215
 30
0.0
 40
0
 41
0
  0
VERTEX
  8
0
 10
1.15104
 20
2.4229
 30
0.0
 40
0
 41
0
  0
VERTEX
  8
0
 10
1.13227
 20
2.43989
 30
0.0
 40
0
 41
0
  0
VERTEX
  8
0
 10
1.05344
 20
2.53901
 30
0.0
 40
0
 41
0
  0
VERTEX
  8
0
 10
0.997233
 20
2.65593
 30
0.0
 40
0
 41
0
  0
VERTEX
  8
0
 10
0.9898
 20
2.68181
 30
0.0
 40
0
 41
0
  0
SEQEND
 8
0
  0
POLYLINE
  8
0
 62
     0
 66
     1
 10
0
 20
0
 30
0.0
 70
     1
 40
0
 41
0
  0
VERTEX
  8
0
 10
2.38672
 20
0.675999
 30
0.0
 40
0
 41
0
  0
VERTEX
  8
0
 10
2.391
 20
0.661133
 30
0.0
 40
0
 41
0
  0
VERTEX
  8
0
 10
2.41422
 20
0.590821
 30
0.0
 40
0
 41
0
  0
VERTEX
  8
0
 10
2.45019
 20
0.526639
 30
0.0
 40
0
 41
0
  0
VERTEX
  8
0
 10
2.46089
 20
0.514757
 30
0.0
 40
0
 41
0
  0
VERTEX
  8
0
 10
2.46912
 20
0.505751
 30
0.0
 40
0
 41
0
  0
VERTEX
  8
0
 10
2.5165
 20
0.467828
 30
0.0
 40
0
 41
0
  0
VERTEX
  8
0
 10
2.57053
 20
0.440429
 30
0.0
 40
0
 41
0
  0
VERTEX
  8
0
 10
2.58214
 20
0.436686
 30
0.0
 40
0
 41
0
  0
VERTEX
  8
0
 10
2.58886
 20
0.434571
 30
0.0
 40
0
 41
0
  0
VERTEX
  8
0
 10
2.64615
 20
0.423719
 30
0.0
 40
0
 41
0
  0
VERTEX
  8
0
 10
2.66525
 20
0.423719
 30
0.0
 40
0
 41
0
  0
VERTEX
  8
0
 10
2.67871
 20
0.423719
 30
0.0
 40
0
 41
0
  0
VERTEX
  8
0
 10
2.71924
 20
0.429036
 30
0.0
 40
0
 41
0
  0
VERTEX
  8
0
 10
2.77121
 20
0.444607
 30
0.0
 40
0
 41
0
  0
VERTEX
  8
0
 10
2.81944
 20
0.469943
 30
0.0
 40
0
 41
0
  0
VERTEX
  8
0
 10
2.85249
 20
0.494954
 30
0.0
 40
0
 41
0
  0
VERTEX
  8
0
 10
2.86219
 20
0.504557
 30
0.0
 40
0
 41
0
  0
VERTEX
  8
0
 10
2.86301
 20
0.505317
 30
0.0
 40
0
 41
0
  0
VERTEX
  8
0
 10
2.882
 20
0.524414
 30
0.0
 40
0
 41
0
  0
VERTEX
  8
0
 10
2.92367
 20
0.59706
 30
0.0
 40
0
 41
0
  0
VERTEX
  8
0
 10
2.94385
 20
0.701281
 30
0.0
 40
0
 41
0
  0
VERTEX
  8
0
 10
2.9235
 20
0.805556
 30
0.0
 40
0
 41
0
  0
VERTEX
  8
0
 10
2.88163
 20
0.878201
 30
0.0
 40
0
 41
0
  0
VERTEX
  8
0
 10
2.86257
 20
0.897244
 30
0.0
 40
0
 41
0
  0
VERTEX
  8
0
 10
2.85064
 20
0.909125
 30
0.0
 40
0
 41
0
  0
VERTEX
  8
0
 10
2.808
 20
0.937608
 30
0.0
 40
0
 41
0
  0
VERTEX
  8
0
 10
2.74778
 20
0.963217
 30
0.0
 40
0
 41
0
  0
VERTEX
  8
0
 10
2.68457
 20
0.983074
 30
0.0
 40
0
 41
0
  0
VERTEX
  8
0
 10
2.63639
 20
0.99924
 30
0.0
 40
0
 41
0
  0
VERTEX
  8
0
 10
2.62093
 20
1.00591
 30
0.0
 40
0
 41
0
  0
VERTEX
  8
0
 10
2.61247
 20
1.00955
 30
0.0
 40
0
 41
0
  0
VERTEX
  8
0
 10
2.58892
 20
1.02452
 30
0.0
 40
0
 41
0
  0
VERTEX
  8
0
 10
2.5466
 20
1.05588
 30
0.0
 40
0
 41
0
  0
VERTEX
  8
0
 10
2.49767
 20
1.09614
 30
0.0
 40
0
 41
0
  0
VERTEX
  8
0
 10
2.44586
 20
1.14138
 30
0.0
 40
0
 41
0
  0
VERTEX
  8
0
 10
2.39481
 20
1.18777
 30
0.0
 40
0
 41
0
  0
VERTEX
  8
0
 10
2.34825
 20
1.23139
 30
0.0
 40
0
 41
0
  0
VERTEX
  8
0
 10
2.3099
 20
1.26834
 30
0.0
 40
0
 41
0
  0
VERTEX
  8
0
 10
2.28993
 20
1.28809
 30
0.0
 40
0
 41
0
  0
VERTEX
  8
0
 10
2.28347
 20
1.29476
 30
0.0
 40
0
 41
0
  0
VERTEX
  8
0
 10
2.08974
 20
1.07004
 30
0.0
 40
0
 41
0
  0
VERTEX
  8
0
 10
2.10058
 20
1.05897
 30
0.0
 40
0
 41
0
  0
VERTEX
  8
0
 10
2.13476
 20
1.02729
 30
0.0
 40
0
 41
0
  0
VERTEX
  8
0
 10
2.18061
 20
0.986436
 30
0.0
 40
0
 41
0
  0
VERTEX
  8
0
 10
2.22185
 20
0.947374
 30
0.0
 40
0
 41
0
  0
VERTEX
  8
0
 10
2.24647
 20
0.920085
 30
0.0
 40
0
 41
0
  0
VERTEX
  8
0
 10
2.25331
 20
0.909993
 30
0.0
 40
0
 41
0
  0
VERTEX
  8
0
 10
2.27072
 20
0.893337
 30
0.0
 40
0
 41
0
  0
VERTEX
  8
0
 10
2.33544
 20
0.805067
 30
0.0
 40
0
 41
0
  0
VERTEX
  8
0
 10
2.37956
 20
0.700737
 30
0.0
 40
0
 41
0
  0
VERTEX
  8
0
 10
2.38672
 20
0.675999
 30
0.0
 40
0
 41
0
  0
SEQEND
 8
0
  0
POLYLINE
  8
0
 62
     0
 66
     1
 10
0
 20
0
 30
0.0
 70
     1
 40
0
 41
0
  0
VERTEX
  8
0
 10
0.936415
 20
1.13151
 30
0.0
 40
0
 41
0
  0
VERTEX
  8
0
 10
0.936415
 20
1.13146
 30
0.0
 40
0
 41
0
  0
VERTEX
  8
0
 10
0.935656
 20
1.13222
 30
0.0
 40
0
 41
0
  0
VERTEX
  8
0
 10
0.918838
 20
1.11469
 30
0.0
 40
0
 41
0
  0
VERTEX
  8
0
 10
0.822265
 20
1.04074
 30
0.0
 40
0
 41
0
  0
VERTEX
  8
0
 10
0.709961
 20
0.987576
 30
0.0
 40
0
 41
0
  0
VERTEX
  8
0
 10
0.685331
 20
0.980414
 30
0.0
 40
0
 41
0
  0
VERTEX
  8
0
 10
0.670301
 20
0.976129
 30
0.0
 40
0
 41
0
  0
VERTEX
  8
0
 10
0.599989
 20
0.953233
 30
0.0
 40
0
 41
0
  0
VERTEX
  8
0
 10
0.535969
 20
0.917156
 30
0.0
 40
0
 41
0
  0
VERTEX
  8
0
 10
0.524143
 20
0.90625
 30
0.0
 40
0
 41
0
  0
VERTEX
  8
0
 10
0.515082
 20
0.898113
 30
0.0
 40
0
 41
0
  0
VERTEX
  8
0
 10
0.477106
 20
0.850965
 30
0.0
 40
0
 41
0
  0
VERTEX
  8
0
 10
0.449761
 20
0.796713
 30
0.0
 40
0
 41
0
  0
VERTEX
  8
0
 10
0.446072
 20
0.785047
 30
0.0
 40
0
 41
0
  0
VERTEX
  8
0
 10
0.440375
 20
0.767199
 30
0.0
 40
0
 41
0
  0
VERTEX
  8
0
 10
0.433431
 20
0.710394
 30
0.0
 40
0
 41
0
  0
VERTEX
  8
0
 10
0.441297
 20
0.635796
 30
0.0
 40
0
 41
0
  0
VERTEX
  8
0
 10
0.468479
 20
0.565918
 30
0.0
 40
0
 41
0
  0
VERTEX
  8
0
 10
0.500706
 20
0.518608
 30
0.0
 40
0
 41
0
  0
VERTEX
  8
0
 10
0.513943
 20
0.505317
 30
0.0
 40
0
 41
0
  0
VERTEX
  8
0
 10
0.514324
 20
0.504557
 30
0.0
 40
0
 41
0
  0
VERTEX
  8
0
 10
0.524197
 20
0.494846
 30
0.0
 40
0
 41
0
  0
VERTEX
  8
0
 10
0.557781
 20
0.469564
 30
0.0
 40
0
 41
0
  0
VERTEX
  8
0
 10
0.605414
 20
0.444824
 30
0.0
 40
0
 41
0
  0
VERTEX
  8
0
 10
0.655871
 20
0.430176
 30
0.0
 40
0
 41
0
  0
VERTEX
  8
0
 10
0.694769
 20
0.425293
 30
0.0
 40
0
 41
0
  0
VERTEX
  8
0
 10
0.707736
 20
0.425293
 30
0.0
 40
0
 41
0
  0
VERTEX
  8
0
 10
0.728028
 20
0.425293
 30
0.0
 40
0
 41
0
  0
VERTEX
  8
0
 10
0.789063
 20
0.437067
 30
0.0
 40
0
 41
0
  0
VERTEX
  8
0
 10
0.863824
 20
0.471517
 30
0.0
 40
0
 41
0
  0
VERTEX
  8
0
 10
0.925944
 20
0.527289
 30
0.0
 40
0
 41
0
  0
VERTEX
  8
0
 10
0.961806
 20
0.5829
 30
0.0
 40
0
 41
0
  0
VERTEX
  8
0
 10
0.969401
 20
0.603028
 30
0.0
 40
0
 41
0
  0
VERTEX
  8
0
 10
0.973469
 20
0.613932
 30
0.0
 40
0
 41
0
  0
VERTEX
  8
0
 10
0.989475
 20
0.669325
 30
0.0
 40
0
 41
0
  0
VERTEX
  8
0
 10
1.00586
 20
0.724447
 30
0.0
 40
0
 41
0
  0
VERTEX
  8
0
 10
1.0102
 20
0.735243
 30
0.0
 40
0
 41
0
  0
VERTEX
  8
0
 10
1.0153
 20
0.747721
 30
0.0
 40
0
 41
0
  0
VERTEX
  8
0
 10
1.04579
 20
0.807617
 30
0.0
 40
0
 41
0
  0
VERTEX
  8
0
 10
1.0829
 20
0.863661
 30
0.0
 40
0
 41
0
  0
VERTEX
  8
0
 10
1.09136
 20
0.874132
 30
0.0
 40
0
 41
0
  0
VERTEX
  8
0
 10
1.09473
 20
0.878418
 30
0.0
 40
0
 41
0
  0
VERTEX
  8
0
 10
1.10688
 20
0.889594
 30
0.0
 40
0
 41
0
  0
VERTEX
  8
0
 10
1.13862
 20
0.918674
 30
0.0
 40
0
 41
0
  0
VERTEX
  8
0
 10
1.18126
 20
0.956814
 30
0.0
 40
0
 41
0
  0
VERTEX
  8
0
 10
1.22944
 20
0.999457
 30
0.0
 40
0
 41
0
  0
VERTEX
  8
0
 10
1.27767
 20
1.04199
 30
0.0
 40
0
 41
0
  0
VERTEX
  8
0
 10
1.32069
 20
1.07986
 30
0.0
 40
0
 41
0
  0
VERTEX
  8
0
 10
1.35297
 20
1.1084
 30
0.0
 40
0
 41
0
  0
VERTEX
  8
0
 10
1.36534
 20
1.11925
 30
0.0
 40
0
 41
0
  0
VERTEX
  8
0
 10
1.3693
 20
1.12299
 30
0.0
 40
0
 41
0
  0
VERTEX
  8
0
 10
1.35444
 20
1.13786
 30
0.0
 40
0
 41
0
  0
VERTEX
  8
0
 10
1.30751
 20
1.1799
 30
0.0
 40
0
 41
0
  0
VERTEX
  8
0
 10
1.25743
 20
1.21701
 30
0.0
 40
0
 41
0
  0
VERTEX
  8
0
 10
1.21691
 20
1.2392
 30
0.0
 40
0
 41
0
  0
VERTEX
  8
0
 10
1.18392
 20
1.25114
 30
0.0
 40
0
 41
0
  0
VERTEX
  8
0
 10
1.15636
 20
1.25765
 30
0.0
 40
0
 41
0
  0
VERTEX
  8
0
 10
1.13211
 20
1.26351
 30
0.0
 40
0
 41
0
  0
VERTEX
  8
0
 10
1.10916
 20
1.27344
 30
0.0
 40
0
 41
0
  0
VERTEX
  8
0
 10
1.09071
 20
1.287
 30
0.0
 40
0
 41
0
  0
VERTEX
  8
0
 10
1.08539
 20
1.29232
 30
0.0
 40
0
 41
0
  0
SEQEND
 8
0
  0
POLYLINE
  8
0
 62
     0
 66
     1
 10
0
 20
0
 30
0.0
 70
     1
 40
0
 41
0
  0
VERTEX
  8
0
 10
1.15451
 20
2.42606
 30
0.0
 40
0
 41
0
  0
VERTEX
  8
0
 10
1.15104
 20
2.4229
 30
0.0
 40
0
 41
0
  0
VERTEX
  8
0
 10
1.1511
 20
2.42285
 30
0.0
 40
0
 41
0
  0
VERTEX
  8
0
 10
1.15191
 20
2.4221
 30
0.0
 40
0
 41
0
  0
VERTEX
  8
0
 10
1.15218
 20
2.4221
 30
0.0
 40
0
 41
0
  0
VERTEX
  8
0
 10
1.15234
 20
2.42242
 30
0.0
 40
0
 41
0
  0
VERTEX
  8
0
 10
1.1543
 20
2.42567
 30
0.0
 40
0
 41
0
  0
VERTEX
  8
0
 10
1.15451
 20
2.42606
 30
0.0
 40
0
 41
0
  0
SEQEND
 8
0
  0
POLYLINE
  8
0
 62
     0
 66
     1
 10
0
 20
0
 30
0.0
 70
     1
 40
0
 41
0
  0
VERTEX
  8
0
 10
2.42518
 20
1.42725
 30
0.0
 40
0
 41
0
  0
VERTEX
  8
0
 10
2.42042
 20
1.426
 30
0.0
 40
0
 41
0
  0
VERTEX
  8
0
 10
2.40429
 20
1.42882
 30
0.0
 40
0
 41
0
  0
VERTEX
  8
0
 10
2.38917
 20
1.44303
 30
0.0
 40
0
 41
0
  0
VERTEX
  8
0
 10
2.37956
 20
1.46485
 30
0.0
 40
0
 41
0
  0
VERTEX
  8
0
 10
2.37565
 20
1.48307
 30
0.0
 40
0
 41
0
  0
VERTEX
  8
0
 10
2.37522
 20
1.48915
 30
0.0
 40
0
 41
0
  0
VERTEX
  8
0
 10
2.37424
 20
1.5019
 30
0.0
 40
0
 41
0
  0
VERTEX
  8
0
 10
2.37375
 20
1.54025
 30
0.0
 40
0
 41
0
  0
VERTEX
  8
0
 10
2.37576
 20
1.58242
 30
0.0
 40
0
 41
0
  0
VERTEX
  8
0
 10
2.37765
 20
1.61794
 30
0.0
 40
0
 41
0
  0
VERTEX
  8
0
 10
2.37717
 20
1.6416
 30
0.0
 40
0
 41
0
  0
VERTEX
  8
0
 10
2.37603
 20
1.64931
 30
0.0
 40
0
 41
0
  0
VERTEX
  8
0
 10
2.37532
 20
1.65381
 30
0.0
 40
0
 41
0
  0
VERTEX
  8
0
 10
2.37463
 20
1.66743
 30
0.0
 40
0
 41
0
  0
VERTEX
  8
0
 10
2.37489
 20
1.68668
 30
0.0
 40
0
 41
0
  0
VERTEX
  8
0
 10
2.37554
 20
1.70563
 30
0.0
 40
0
 41
0
  0
VERTEX
  8
0
 10
2.37517
 20
1.72276
 30
0.0
 40
0
 41
0
  0
VERTEX
  8
0
 10
2.37244
 20
1.73665
 30
0.0
 40
0
 41
0
  0
VERTEX
  8
0
 10
2.3661
 20
1.74576
 30
0.0
 40
0
 41
0
  0
VERTEX
  8
0
 10
2.35476
 20
1.74869
 30
0.0
 40
0
 41
0
  0
VERTEX
  8
0
 10
2.34131
 20
1.74567
 30
0.0
 40
0
 41
0
  0
VERTEX
  8
0
 10
2.33718
 20
1.74387
 30
0.0
 40
0
 41
0
  0
VERTEX
  8
0
 10
2.3329
 20
1.74203
 30
0.0
 40
0
 41
0
  0
VERTEX
  8
0
 10
2.32297
 20
1.72971
 30
0.0
 40
0
 41
0
  0
VERTEX
  8
0
 10
2.32389
 20
1.70925
 30
0.0
 40
0
 41
0
  0
VERTEX
  8
0
 10
2.33301
 20
1.68431
 30
0.0
 40
0
 41
0
  0
VERTEX
  8
0
 10
2.34125
 20
1.66379
 30
0.0
 40
0
 41
0
  0
VERTEX
  8
0
 10
2.34343
 20
1.65674
 30
0.0
 40
0
 41
0
  0
VERTEX
  8
0
 10
2.34631
 20
1.64735
 30
0.0
 40
0
 41
0
  0
VERTEX
  8
0
 10
2.34961
 20
1.61486
 30
0.0
 40
0
 41
0
  0
VERTEX
  8
0
 10
2.35206
 20
1.55729
 30
0.0
 40
0
 41
0
  0
VERTEX
  8
0
 10
2.35232
 20
1.50179
 30
0.0
 40
0
 41
0
  0
VERTEX
  8
0
 10
2.35206
 20
1.47493
 30
0.0
 40
0
 41
0
  0
VERTEX
  8
0
 10
2.35206
 20
1.46599
 30
0.0
 40
0
 41
0
  0
VERTEX
  8
0
 10
2.35206
 20
1.45817
 30
0.0
 40
0
 41
0
  0
VERTEX
  8
0
 10
2.35715
 20
1.43468
 30
0.0
 40
0
 41
0
  0
VERTEX
  8
0
 10
2.37369
 20
1.4089
 30
0.0
 40
0
 41
0
  0
VERTEX
  8
0
 10
2.40326
 20
1.38715
 30
0.0
 40
0
 41
0
  0
VERTEX
  8
0
 10
2.43614
 20
1.37185
 30
0.0
 40
0
 41
0
  0
VERTEX
  8
0
 10
2.44749
 20
1.36778
 30
0.0
 40
0
 41
0
  0
VERTEX
  8
0
 10
2.45404
 20
1.36545
 30
0.0
 40
0
 41
0
  0
VERTEX
  8
0
 10
2.47092
 20
1.35026
 30
0.0
 40
0
 41
0
  0
VERTEX
  8
0
 10
2.48247
 20
1.32167
 30
0.0
 40
0
 41
0
  0
VERTEX
  8
0
 10
2.48361
 20
1.28586
 30
0.0
 40
0
 41
0
  0
VERTEX
  8
0
 10
2.47592
 20
1.24658
 30
0.0
 40
0
 41
0
  0
VERTEX
  8
0
 10
2.46083
 20
1.20768
 30
0.0
 40
0
 41
0
  0
VERTEX
  8
0
 10
2.43994
 20
1.17285
 30
0.0
 40
0
 41
0
  0
VERTEX
  8
0
 10
2.41471
 20
1.146
 30
0.0
 40
0
 41
0
  0
VERTEX
  8
0
 10
2.39421
 20
1.13292
 30
0.0
 40
0
 41
0
  0
VERTEX
  8
0
 10
2.38678
 20
1.13081
 30
0.0
 40
0
 41
0
  0
VERTEX
  8
0
 10
2.37392
 20
1.12723
 30
0.0
 40
0
 41
0
  0
VERTEX
  8
0
 10
2.33257
 20
1.12641
 30
0.0
 40
0
 41
0
  0
VERTEX
  8
0
 10
2.28711
 20
1.1377
 30
0.0
 40
0
 41
0
  0
VERTEX
  8
0
 10
2.24593
 20
1.15131
 30
0.0
 40
0
 41
0
  0
VERTEX
  8
0
 10
2.21451
 20
1.15565
 30
0.0
 40
0
 41
0
  0
VERTEX
  8
0
 10
2.20458
 20
1.15392
 30
0.0
 40
0
 41
0
  0
VERTEX
  8
0
 10
2.19624
 20
1.15251
 30
0.0
 40
0
 41
0
  0
VERTEX
  8
0
 10
2.17204
 20
1.14393
 30
0.0
 40
0
 41
0
  0
VERTEX
  8
0
 10
2.14893
 20
1.12809
 30
0.0
 40
0
 41
0
  0
VERTEX
  8
0
 10
2.13346
 20
1.10807
 30
0.0
 40
0
 41
0
  0
VERTEX
  8
0
 10
2.12364
 20
1.08572
 30
0.0
 40
0
 41
0
  0
VERTEX
  8
0
 10
2.11768
 20
1.06261
 30
0.0
 40
0
 41
0
  0
VERTEX
  8
0
 10
2.11356
 20
1.04058
 30
0.0
 40
0
 41
0
  0
VERTEX
  8
0
 10
2.10943
 20
1.02132
 30
0.0
 40
0
 41
0
  0
VERTEX
  8
0
 10
2.10553
 20
1.00987
 30
0.0
 40
0
 41
0
  0
VERTEX
  8
0
 10
2.10346
 20
1.00657
 30
0.0
 40
0
 41
0
  0
VERTEX
  8
0
 10
2.10042
 20
1.00184
 30
0.0
 40
0
 41
0
  0
VERTEX
  8
0
 10
2.09119
 20
0.987685
 30
0.0
 40
0
 41
0
  0
VERTEX
  8
0
 10
2.08137
 20
0.974447
 30
0.0
 40
0
 41
0
  0
VERTEX
  8
0
 10
2.0689
 20
0.960667
 30
0.0
 40
0
 41
0
  0
VERTEX
  8
0
 10
2.05365
 20
0.945258
 30
0.0
 40
0
 41
0
  0
VERTEX
  8
0
 10
2.04856
 20
0.940104
 30
0.0
 40
0
 41
0
  0
VERTEX
  8
0
 10
2.04215
 20
0.933757
 30
0.0
 40
0
 41
0
  0
VERTEX
  8
0
 10
2.01563
 20
0.905599
 30
0.0
 40
0
 41
0
  0
VERTEX
  8
0
 10
1.99294
 20
0.882107
 30
0.0
 40
0
 41
0
  0
VERTEX
  8
0
 10
1.9885
 20
0.878039
 30
0.0
 40
0
 41
0
  0
VERTEX
  8
0
 10
1.98915
 20
0.877442
 30
0.0
 40
0
 41
0
  0
VERTEX
  8
0
 10
1.9936
 20
0.866211
 30
0.0
 40
0
 41
0
  0
VERTEX
  8
0
 10
1.99376
 20
0.864421
 30
0.0
 40
0
 41
0
  0
VERTEX
  8
0
 10
1.99431
 20
0.856879
 30
0.0
 40
0
 41
0
  0
VERTEX
  8
0
 10
2.00786
 20
0.822428
 30
0.0
 40
0
 41
0
  0
VERTEX
  8
0
 10
2.02035
 20
0.790961
 30
0.0
 40
0
 41
0
  0
VERTEX
  8
0
 10
2.02035
 20
0.780436
 30
0.0
 40
0
 41
0
  0
VERTEX
  8
0
 10
2.02035
 20
0.775608
 30
0.0
 40
0
 41
0
  0
VERTEX
  8
0
 10
2.01818
 20
0.761068
 30
0.0
 40
0
 41
0
  0
VERTEX
  8
0
 10
2.01064
 20
0.747396
 30
0.0
 40
0
 41
0
  0
VERTEX
  8
0
 10
1.99571
 20
0.737793
 30
0.0
 40
0
 41
0
  0
VERTEX
  8
0
 10
1.97771
 20
0.731987
 30
0.0
 40
0
 41
0
  0
VERTEX
  8
0
 10
1.97163
 20
0.730632
 30
0.0
 40
0
 41
0
  0
VERTEX
  8
0
 10
1.96544
 20
0.729275
 30
0.0
 40
0
 41
0
  0
VERTEX
  8
0
 10
1.94635
 20
0.72819
 30
0.0
 40
0
 41
0
  0
VERTEX
  8
0
 10
1.92865
 20
0.73226
 30
0.0
 40
0
 41
0
  0
VERTEX
  8
0
 10
1.91781
 20
0.740343
 30
0.0
 40
0
 41
0
  0
VERTEX
  8
0
 10
1.91368
 20
0.747558
 30
0.0
 40
0
 41
0
  0
VERTEX
  8
0
 10
1.91331
 20
0.750054
 30
0.0
 40
0
 41
0
  0
VERTEX
  8
0
 10
1.91276
 20
0.75331
 30
0.0
 40
0
 41
0
  0
VERTEX
  8
0
 10
1.91297
 20
0.765408
 30
0.0
 40
0
 41
0
  0
VERTEX
  8
0
 10
1.91488
 20
0.788357
 30
0.0
 40
0
 41
0
  0
VERTEX
  8
0
 10
1.91835
 20
0.813585
 30
0.0
 40
0
 41
0
  0
VERTEX
  8
0
 10
1.92144
 20
0.83035
 30
0.0
 40
0
 41
0
  0
VERTEX
  8
0
 10
1.92279
 20
0.835829
 30
0.0
 40
0
 41
0
  0
VERTEX
  8
0
 10
1.92329
 20
0.837944
 30
0.0
 40
0
 41
0
  0
VERTEX
  8
0
 10
1.92996
 20
0.851833
 30
0.0
 40
0
 41
0
  0
VERTEX
  8
0
 10
1.93072
 20
0.852647
 30
0.0
 40
0
 41
0
  0
VERTEX
  8
0
 10
1.92279
 20
0.851238
 30
0.0
 40
0
 41
0
  0
VERTEX
  8
0
 10
1.87978
 20
0.846571
 30
0.0
 40
0
 41
0
  0
VERTEX
  8
0
 10
1.84375
 20
0.844726
 30
0.0
 40
0
 41
0
  0
VERTEX
  8
0
 10
1.83176
 20
0.844726
 30
0.0
 40
0
 41
0
  0
VERTEX
  8
0
 10
1.83094
 20
0.844726
 30
0.0
 40
0
 41
0
  0
VERTEX
  8
0
 10
1.82921
 20
0.844726
 30
0.0
 40
0
 41
0
  0
VERTEX
  8
0
 10
1.82867
 20
0.844726
 30
0.0
 40
0
 41
0
  0
VERTEX
  8
0
 10
1.83035
 20
0.843642
 30
0.0
 40
0
 41
0
  0
VERTEX
  8
0
 10
1.84608
 20
0.822157
 30
0.0
 40
0
 41
0
  0
VERTEX
  8
0
 10
1.84728
 20
0.818685
 30
0.0
 40
0
 41
0
  0
VERTEX
  8
0
 10
1.84999
 20
0.810493
 30
0.0
 40
0
 41
0
  0
VERTEX
  8
0
 10
1.85801
 20
0.775011
 30
0.0
 40
0
 41
0
  0
VERTEX
  8
0
 10
1.8616
 20
0.746311
 30
0.0
 40
0
 41
0
  0
VERTEX
  8
0
 10
1.86214
 20
0.741428
 30
0.0
 40
0
 41
0
  0
VERTEX
  8
0
 10
1.86242
 20
0.738499
 30
0.0
 40
0
 41
0
  0
VERTEX
  8
0
 10
1.85889
 20
0.729113
 30
0.0
 40
0
 41
0
  0
VERTEX
  8
0
 10
1.84771
 20
0.720865
 30
0.0
 40
0
 41
0
  0
VERTEX
  8
0
 10
1.83128
 20
0.715821
 30
0.0
 40
0
 41
0
  0
VERTEX
  8
0
 10
1.817
 20
0.71365
 30
0.0
 40
0
 41
0
  0
VERTEX
  8
0
 10
1.81222
 20
0.713217
 30
0.0
 40
0
 41
0
  0
VERTEX
  8
0
 10
1.80572
 20
0.712674
 30
0.0
 40
0
 41
0
  0
VERTEX
  8
0
 10
1.77371
 20
0.717068
 30
0.0
 40
0
 41
0
  0
VERTEX
  8
0
 10
1.75261
 20
0.727919
 30
0.0
 40
0
 41
0
  0
VERTEX
  8
0
 10
1.75151
 20
0.730632
 30
0.0
 40
0
 41
0
  0
VERTEX
  8
0
 10
1.75043
 20
0.733344
 30
0.0
 40
0
 41
0
  0
VERTEX
  8
0
 10
1.75017
 20
0.744303
 30
0.0
 40
0
 41
0
  0
VERTEX
  8
0
 10
1.75185
 20
0.765625
 30
0.0
 40
0
 41
0
  0
VERTEX
  8
0
 10
1.75515
 20
0.789279
 30
0.0
 40
0
 41
0
  0
VERTEX
  8
0
 10
1.75782
 20
0.80485
 30
0.0
 40
0
 41
0
  0
VERTEX
  8
0
 10
1.75879
 20
0.810004
 30
0.0
 40
0
 41
0
  0
VERTEX
  8
0
 10
1.75944
 20
0.813585
 30
0.0
 40
0
 41
0
  0
VERTEX
  8
0
 10
1.76981
 20
0.82959
 30
0.0
 40
0
 41
0
  0
VERTEX
  8
0
 10
1.78435
 20
0.842231
 30
0.0
 40
0
 41
0
  0
VERTEX
  8
0
 10
1.78717
 20
0.844129
 30
0.0
 40
0
 41
0
  0
VERTEX
  8
0
 10
1.77983
 20
0.843967
 30
0.0
 40
0
 41
0
  0
VERTEX
  8
0
 10
1.70275
 20
0.842068
 30
0.0
 40
0
 41
0
  0
VERTEX
  8
0
 10
1.69476
 20
0.841906
 30
0.0
 40
0
 41
0
  0
VERTEX
  8
0
 10
1.69689
 20
0.839626
 30
0.0
 40
0
 41
0
  0
VERTEX
  8
0
 10
1.71306
 20
0.813476
 30
0.0
 40
0
 41
0
  0
VERTEX
  8
0
 10
1.7136
 20
0.810764
 30
0.0
 40
0
 41
0
  0
VERTEX
  8
0
 10
1.71468
 20
0.804904
 30
0.0
 40
0
 41
0
  0
VERTEX
  8
0
 10
1.722
 20
0.770833
 30
0.0
 40
0
 41
0
  0
VERTEX
  8
0
 10
1.72607
 20
0.740886
 30
0.0
 40
0
 41
0
  0
VERTEX
  8
0
 10
1.72553
 20
0.737088
 30
0.0
 40
0
 41
0
  0
VERTEX
  8
0
 10
1.72515
 20
0.7347
 30
0.0
 40
0
 41
0
  0
VERTEX
  8
0
 10
1.72254
 20
0.727647
 30
0.0
 40
0
 41
0
  0
VERTEX
  8
0
 10
1.71517
 20
0.721408
 30
0.0
 40
0
 41
0
  0
VERTEX
  8
0
 10
1.70047
 20
0.717611
 30
0.0
 40
0
 41
0
  0
VERTEX
  8
0
 10
1.68181
 20
0.715712
 30
0.0
 40
0
 41
0
  0
VERTEX
  8
0
 10
1.67562
 20
0.715386
 30
0.0
 40
0
 41
0
  0
VERTEX
  8
0
 10
1.66531
 20
0.714844
 30
0.0
 40
0
 41
0
  0
VERTEX
  8
0
 10
1.63206
 20
0.717828
 30
0.0
 40
0
 41
0
  0
VERTEX
  8
0
 10
1.61729
 20
0.726238
 30
0.0
 40
0
 41
0
  0
VERTEX
  8
0
 10
1.61621
 20
0.728353
 30
0.0
 40
0
 41
0
  0
VERTEX
  8
0
 10
1.61513
 20
0.730524
 30
0.0
 40
0
 41
0
  0
VERTEX
  8
0
 10
1.6149
 20
0.741863
 30
0.0
 40
0
 41
0
  0
VERTEX
  8
0
 10
1.61675
 20
0.764649
 30
0.0
 40
0
 41
0
  0
VERTEX
  8
0
 10
1.62039
 20
0.789822
 30
0.0
 40
0
 41
0
  0
VERTEX
  8
0
 10
1.62326
 20
0.805393
 30
0.0
 40
0
 41
0
  0
VERTEX
  8
0
 10
1.62451
 20
0.810493
 30
0.0
 40
0
 41
0
  0
VERTEX
  8
0
 10
1.62522
 20
0.813368
 30
0.0
 40
0
 41
0
  0
VERTEX
  8
0
 10
1.64176
 20
0.839626
 30
0.0
 40
0
 41
0
  0
VERTEX
  8
0
 10
1.64378
 20
0.841743
 30
0.0
 40
0
 41
0
  0
VERTEX
  8
0
 10
1.63732
 20
0.841851
 30
0.0
 40
0
 41
0
  0
VERTEX
  8
0
 10
1.57374
 20
0.844618
 30
0.0
 40
0
 41
0
  0
VERTEX
  8
0
 10
1.56754
 20
0.845107
 30
0.0
 40
0
 41
0
  0
VERTEX
  8
0
 10
1.56896
 20
0.8412
 30
0.0
 40
0
 41
0
  0
VERTEX
  8
0
 10
1.57531
 20
0.830024
 30
0.0
 40
0
 41
0
  0
VERTEX
  8
0
 10
1.58589
 20
0.809896
 30
0.0
 40
0
 41
0
  0
VERTEX
  8
0
 10
1.59397
 20
0.784179
 30
0.0
 40
0
 41
0
  0
VERTEX
  8
0
 10
1.59537
 20
0.760092
 30
0.0
 40
0
 41
0
  0
VERTEX
  8
0
 10
1.59418
 20
0.752333
 30
0.0
 40
0
 41
0
  0
VERTEX
  8
0
 10
1.59347
 20
0.748101
 30
0.0
 40
0
 41
0
  0
VERTEX
  8
0
 10
1.58897
 20
0.735622
 30
0.0
 40
0
 41
0
  0
VERTEX
  8
0
 10
1.57742
 20
0.724175
 30
0.0
 40
0
 41
0
  0
VERTEX
  8
0
 10
1.55604
 20
0.717557
 30
0.0
 40
0
 41
0
  0
VERTEX
  8
0
 10
1.53022
 20
0.71544
 30
0.0
 40
0
 41
0
  0
VERTEX
  8
0
 10
1.52165
 20
0.715386
 30
0.0
 40
0
 41
0
  0
VERTEX
  8
0
 10
1.51633
 20
0.715386
 30
0.0
 40
0
 41
0
  0
VERTEX
  8
0
 10
1.50049
 20
0.719021
 30
0.0
 40
0
 41
0
  0
VERTEX
  8
0
 10
1.48568
 20
0.728136
 30
0.0
 40
0
 41
0
  0
VERTEX
  8
0
 10
1.47689
 20
0.740126
 30
0.0
 40
0
 41
0
  0
VERTEX
  8
0
 10
1.47401
 20
0.74924
 30
0.0
 40
0
 41
0
  0
VERTEX
  8
0
 10
1.47401
 20
0.752225
 30
0.0
 40
0
 41
0
  0
VERTEX
  8
0
 10
1.47396
 20
0.762642
 30
0.0
 40
0
 41
0
  0
VERTEX
  8
0
 10
1.48378
 20
0.806803
 30
0.0
 40
0
 41
0
  0
VERTEX
  8
0
 10
1.49832
 20
0.845053
 30
0.0
 40
0
 41
0
  0
VERTEX
  8
0
 10
1.50065
 20
0.852485
 30
0.0
 40
0
 41
0
  0
VERTEX
  8
0
 10
1.49283
 20
0.853407
 30
0.0
 40
0
 41
0
  0
VERTEX
  8
0
 10
1.46192
 20
0.857693
 30
0.0
 40
0
 41
0
  0
VERTEX
  8
0
 10
1.43892
 20
0.86339
 30
0.0
 40
0
 41
0
  0
VERTEX
  8
0
 10
1.43506
 20
0.864963
 30
0.0
 40
0
 41
0
  0
VERTEX
  8
0
 10
1.4356
 20
0.86149
 30
0.0
 40
0
 41
0
  0
VERTEX
  8
0
 10
1.44168
 20
0.829482
 30
0.0
 40
0
 41
0
  0
VERTEX
  8
0
 10
1.449
 20
0.78559
 30
0.0
 40
0
 41
0
  0
VERTEX
  8
0
 10
1.45014
 20
0.776096
 30
0.0
 40
0
 41
0
  0
VERTEX
  8
0
 10
1.45085
 20
0.770182
 30
0.0
 40
0
 41
0
  0
VERTEX
  8
0
 10
1.44336
 20
0.748807
 30
0.0
 40
0
 41
0
  0
VERTEX
  8
0
 10
1.42079
 20
0.739258
 30
0.0
 40
0
 41
0
  0
VERTEX
  8
0
 10
1.41331
 20
0.739258
 30
0.0
 40
0
 41
0
  0
VERTEX
  8
0
 10
1.40494
 20
0.739258
 30
0.0
 40
0
 41
0
  0
VERTEX
  8
0
 10
1.37994
 20
0.748481
 30
0.0
 40
0
 41
0
  0
VERTEX
  8
0
 10
1.36778
 20
0.762696
 30
0.0
 40
0
 41
0
  0
VERTEX
  8
0
 10
1.36778
 20
0.767415
 30
0.0
 40
0
 41
0
  0
VERTEX
  8
0
 10
1.36778
 20
0.774957
 30
0.0
 40
0
 41
0
  0
VERTEX
  8
0
 10
1.37576
 20
0.797581
 30
0.0
 40
0
 41
0
  0
VERTEX
  8
0
 10
1.39378
 20
0.83035
 30
0.0
 40
0
 41
0
  0
VERTEX
  8
0
 10
1.41249
 20
0.85715
 30
0.0
 40
0
 41
0
  0
VERTEX
  8
0
 10
1.42182
 20
0.868707
 30
0.0
 40
0
 41
0
  0
VERTEX
  8
0
 10
1.4229
 20
0.869358
 30
0.0
 40
0
 41
0
  0
VERTEX
  8
0
 10
1.42296
 20
0.869467
 30
0.0
 40
0
 41
0
  0
VERTEX
  8
0
 10
1.42415
 20
0.870389
 30
0.0
 40
0
 41
0
  0
VERTEX
  8
0
 10
1.42432
 20
0.870443
 30
0.0
 40
0
 41
0
  0
VERTEX
  8
0
 10
1.42356
 20
0.870931
 30
0.0
 40
0
 41
0
  0
VERTEX
  8
0
 10
1.41618
 20
0.875976
 30
0.0
 40
0
 41
0
  0
VERTEX
  8
0
 10
1.41547
 20
0.876519
 30
0.0
 40
0
 41
0
  0
VERTEX
  8
0
 10
1.41021
 20
0.880643
 30
0.0
 40
0
 41
0
  0
VERTEX
  8
0
 10
1.39518
 20
0.893881
 30
0.0
 40
0
 41
0
  0
VERTEX
  8
0
 10
1.37468
 20
0.917806
 30
0.0
 40
0
 41
0
  0
VERTEX
  8
0
 10
1.3559
 20
0.951714
 30
0.0
 40
0
 41
0
  0
VERTEX
  8
0
 10
1.34353
 20
0.986871
 30
0.0
 40
0
 41
0
  0
VERTEX
  8
0
 10
1.34077
 20
0.998861
 30
0.0
 40
0
 41
0
  0
VERTEX
  8
0
 10
1.33789
 20
1.01128
 30
0.0
 40
0
 41
0
  0
VERTEX
  8
0
 10
1.331
 20
1.04883
 30
0.0
 40
0
 41
0
  0
VERTEX
  8
0
 10
1.32189
 20
1.08963
 30
0.0
 40
0
 41
0
  0
VERTEX
  8
0
 10
1.30534
 20
1.1231
 30
0.0
 40
0
 41
0
  0
VERTEX
  8
0
 10
1.28233
 20
1.14545
 30
0.0
 40
0
 41
0
  0
VERTEX
  8
0
 10
1.27344
 20
1.15077
 30
0.0
 40
0
 41
0
  0
VERTEX
  8
0
 10
1.26834
 20
1.15386
 30
0.0
 40
0
 41
0
  0
VERTEX
  8
0
 10
1.25033
 20
1.15848
 30
0.0
 40
0
 41
0
  0
VERTEX
  8
0
 10
1.22412
 20
1.15777
 30
0.0
 40
0
 41
0
  0
VERTEX
  8
0
 10
1.19591
 20
1.15099
 30
0.0
 40
0
 41
0
  0
VERTEX
  8
0
 10
1.16683
 20
1.14057
 30
0.0
 40
0
 41
0
  0
VERTEX
  8
0
 10
1.13802
 20
1.1288
 30
0.0
 40
0
 41
0
  0
VERTEX
  8
0
 10
1.11062
 20
1.118
 30
0.0
 40
0
 41
0
  0
VERTEX
  8
0
 10
1.08572
 20
1.11062
 30
0.0
 40
0
 41
0
  0
VERTEX
  8
0
 10
1.06966
 20
1.1084
 30
0.0
 40
0
 41
0
  0
VERTEX
  8
0
 10
1.06451
 20
1.10894
 30
0.0
 40
0
 41
0
  0
VERTEX
  8
0
 10
1.05892
 20
1.10954
 30
0.0
 40
0
 41
0
  0
VERTEX
  8
0
 10
1.0427
 20
1.11589
 30
0.0
 40
0
 41
0
  0
VERTEX
  8
0
 10
1.02051
 20
1.13091
 30
0.0
 40
0
 41
0
  0
VERTEX
  8
0
 10
0.998861
 20
1.15202
 30
0.0
 40
0
 41
0
  0
VERTEX
  8
0
 10
0.978624
 20
1.17735
 30
0.0
 40
0
 41
0
  0
VERTEX
  8
0
 10
0.960883
 20
1.20492
 30
0.0
 40
0
 41
0
  0
VERTEX
  8
0
 10
0.946506
 20
1.23275
 30
0.0
 40
0
 41
0
  0
VERTEX
  8
0
 10
0.936469
 20
1.25884
 30
0.0
 40
0
 41
0
  0
VERTEX
  8
0
 10
0.932292
 20
1.27566
 30
0.0
 40
0
 41
0
  0
VERTEX
  8
0
 10
0.931803
 20
1.2813
 30
0.0
 40
0
 41
0
  0
VERTEX
  8
0
 10
0.931369
 20
1.28613
 30
0.0
 40
0
 41
0
  0
VERTEX
  8
0
 10
0.932671
 20
1.30084
 30
0.0
 40
0
 41
0
  0
VERTEX
  8
0
 10
0.938693
 20
1.31407
 30
0.0
 40
0
 41
0
  0
VERTEX
  8
0
 10
0.948785
 20
1.32346
 30
0.0
 40
0
 41
0
  0
VERTEX
  8
0
 10
0.961806
 20
1.33127
 30
0.0
 40
0
 41
0
  0
VERTEX
  8
0
 10
0.976671
 20
1.33984
 30
0.0
 40
0
 41
0
  0
VERTEX
  8
0
 10
0.99235
 20
1.35151
 30
0.0
 40
0
 41
0
  0
VERTEX
  8
0
 10
1.00776
 20
1.36865
 30
0.0
 40
0
 41
0
  0
VERTEX
  8
0
 10
1.01893
 20
1.38704
 30
0.0
 40
0
 41
0
  0
VERTEX
  8
0
 10
1.02181
 20
1.39356
 30
0.0
 40
0
 41
0
  0
VERTEX
  8
0
 10
1.02593
 20
1.40306
 30
0.0
 40
0
 41
0
  0
VERTEX
  8
0
 10
1.03109
 20
1.43463
 30
0.0
 40
0
 41
0
  0
VERTEX
  8
0
 10
1.03011
 20
1.48654
 30
0.0
 40
0
 41
0
  0
VERTEX
  8
0
 10
1.02501
 20
1.55544
 30
0.0
 40
0
 41
0
  0
VERTEX
  8
0
 10
1.02197
 20
1.62451
 30
0.0
 40
0
 41
0
  0
VERTEX
  8
0
 10
1.02197
 20
1.64751
 30
0.0
 40
0
 41
0
  0
VERTEX
  8
0
 10
1.02197
 20
1.67101
 30
0.0
 40
0
 41
0
  0
VERTEX
  8
0
 10
1.03
 20
1.74137
 30
0.0
 40
0
 41
0
  0
VERTEX
  8
0
 10
1.05002
 20
1.81549
 30
0.0
 40
0
 41
0
  0
VERTEX
  8
0
 10
1.07579
 20
1.87614
 30
0.0
 40
0
 41
0
  0
VERTEX
  8
0
 10
1.09511
 20
1.91607
 30
0.0
 40
0
 41
0
  0
VERTEX
  8
0
 10
1.10107
 20
1.92953
 30
0.0
 40
0
 41
0
  0
VERTEX
  8
0
 10
1.10303
 20
1.93397
 30
0.0
 40
0
 41
0
  0
VERTEX
  8
0
 10
1.10715
 20
1.94808
 30
0.0
 40
0
 41
0
  0
VERTEX
  8
0
 10
1.1097
 20
1.96658
 30
0.0
 40
0
 41
0
  0
VERTEX
  8
0
 10
1.11019
 20
1.98643
 30
0.0
 40
0
 41
0
  0
VERTEX
  8
0
 10
1.11003
 20
2.00885
 30
0.0
 40
0
 41
0
  0
VERTEX
  8
0
 10
1.11062
 20
2.035
 30
0.0
 40
0
 41
0
  0
VERTEX
  8
0
 10
1.1135
 20
2.06629
 30
0.0
 40
0
 41
0
  0
VERTEX
  8
0
 10
1.12006
 20
2.10385
 30
0.0
 40
0
 41
0
  0
VERTEX
  8
0
 10
1.12842
 20
2.13786
 30
0.0
 40
0
 41
0
  0
VERTEX
  8
0
 10
1.13178
 20
2.14899
 30
0.0
 40
0
 41
0
  0
VERTEX
  8
0
 10
1.13715
 20
2.16704
 30
0.0
 40
0
 41
0
  0
VERTEX
  8
0
 10
1.15593
 20
2.22049
 30
0.0
 40
0
 41
0
  0
VERTEX
  8
0
 10
1.17627
 20
2.26824
 30
0.0
 40
0
 41
0
  0
VERTEX
  8
0
 10
1.19038
 20
2.29492
 30
0.0
 40
0
 41
0
  0
VERTEX
  8
0
 10
1.19564
 20
2.30317
 30
0.0
 40
0
 41
0
  0
VERTEX
  8
0
 10
1.19564
 20
2.30317
 30
0.0
 40
0
 41
0
  0
VERTEX
  8
0
 10
1.19564
 20
2.30317
 30
0.0
 40
0
 41
0
  0
VERTEX
  8
0
 10
1.18669
 20
2.2946
 30
0.0
 40
0
 41
0
  0
VERTEX
  8
0
 10
1.16461
 20
2.26785
 30
0.0
 40
0
 41
0
  0
VERTEX
  8
0
 10
1.13656
 20
2.2214
 30
0.0
 40
0
 41
0
  0
VERTEX
  8
0
 10
1.11502
 20
2.17111
 30
0.0
 40
0
 41
0
  0
VERTEX
  8
0
 10
1.10981
 20
2.15375
 30
0.0
 40
0
 41
0
  0
VERTEX
  8
0
 10
1.10514
 20
2.13851
 30
0.0
 40
0
 41
0
  0
VERTEX
  8
0
 10
1.09451
 20
2.09169
 30
0.0
 40
0
 41
0
  0
VERTEX
  8
0
 10
1.08659
 20
2.04004
 30
0.0
 40
0
 41
0
  0
VERTEX
  8
0
 10
1.07975
 20
1.99203
 30
0.0
 40
0
 41
0
  0
VERTEX
  8
0
 10
1.07151
 20
1.9534
 30
0.0
 40
0
 41
0
  0
VERTEX
  8
0
 10
1.06765
 20
1.94081
 30
0.0
 40
0
 41
0
  0
VERTEX
  8
0
 10
1.06358
 20
1.92774
 30
0.0
 40
0
 41
0
  0
VERTEX
  8
0
 10
1.04899
 20
1.88917
 30
0.0
 40
0
 41
0
  0
VERTEX
  8
0
 10
1.0287
 20
1.83843
 30
0.0
 40
0
 41
0
  0
VERTEX
  8
0
 10
1.00949
 20
1.78033
 30
0.0
 40
0
 41
0
  0
VERTEX
  8
0
 10
0.996799
 20
1.72504
 30
0.0
 40
0
 41
0
  0
VERTEX
  8
0
 10
0.994032
 20
1.70638
 30
0.0
 40
0
 41
0
  0
VERTEX
  8
0
 10
0.990776
 20
1.68485
 30
0.0
 40
0
 41
0
  0
VERTEX
  8
0
 10
0.988226
 20
1.61897
 30
0.0
 40
0
 41
0
  0
VERTEX
  8
0
 10
0.9898
 20
1.53326
 30
0.0
 40
0
 41
0
  0
VERTEX
  8
0
 10
0.989312
 20
1.46012
 30
0.0
 40
0
 41
0
  0
VERTEX
  8
0
 10
0.983507
 20
1.42079
 30
0.0
 40
0
 41
0
  0
VERTEX
  8
0
 10
0.977106
 20
1.41049
 30
0.0
 40
0
 41
0
  0
VERTEX
  8
0
 10
0.974393
 20
1.40619
 30
0.0
 40
0
 41
0
  0
VERTEX
  8
0
 10
0.956
 20
1.39974
 30
0.0
 40
0
 41
0
  0
VERTEX
  8
0
 10
0.927681
 20
1.41439
 30
0.0
 40
0
 41
0
  0
VERTEX
  8
0
 10
0.901313
 20
1.45606
 30
0.0
 40
0
 41
0
  0
VERTEX
  8
0
 10
0.887642
 20
1.50851
 30
0.0
 40
0
 41
0
  0
VERTEX
  8
0
 10
0.886393
 20
1.52621
 30
0.0
 40
0
 41
0
  0
VERTEX
  8
0
 10
0.884765
 20
1.54818
 30
0.0
 40
0
 41
0
  0
VERTEX
  8
0
 10
0.880533
 20
1.61415
 30
0.0
 40
0
 41
0
  0
VERTEX
  8
0
 10
0.875976
 20
1.72136
 30
0.0
 40
0
 41
0
  0
VERTEX
  8
0
 10
0.875868
 20
1.83143
 30
0.0
 40
0
 41
0
  0
VERTEX
  8
0
 10
0.880046
 20
1.90424
 30
0.0
 40
0
 41
0
  0
VERTEX
  8
0
 10
0.883626
 20
1.92817
 30
0.0
 40
0
 41
0
  0
VERTEX
  8
0
 10
0.884928
 20
1.93718
 30
0.0
 40
0
 41
0
  0
VERTEX
  8
0
 10
0.889757
 20
1.96403
 30
0.0
 40
0
 41
0
  0
VERTEX
  8
0
 10
0.895887
 20
1.99007
 30
0.0
 40
0
 41
0
  0
VERTEX
  8
0
 10
0.902724
 20
2.01112
 30
0.0
 40
0
 41
0
  0
VERTEX
  8
0
 10
0.910861
 20
2.03185
 30
0.0
 40
0
 41
0
  0
VERTEX
  8
0
 10
0.921007
 20
2.05701
 30
0.0
 40
0
 41
0
  0
VERTEX
  8
0
 10
0.933865
 20
2.09136
 30
0.0
 40
0
 41
0
  0
VERTEX
  8
0
 10
0.950032
 20
2.1396
 30
0.0
 40
0
 41
0
  0
VERTEX
  8
0
 10
0.965386
 20
2.18967
 30
0.0
 40
0
 41
0
  0
VERTEX
  8
0
 10
0.970215
 20
2.20643
 30
0.0
 40
0
 41
0
  0
VERTEX
  8
0
 10
0.976671
 20
2.229
 30
0.0
 40
0
 41
0
  0
VERTEX
  8
0
 10
1.00727
 20
2.29357
 30
0.0
 40
0
 41
0
  0
VERTEX
  8
0
 10
1.06445
 20
2.37115
 30
0.0
 40
0
 41
0
  0
VERTEX
  8
0
 10
1.13965
 20
2.43858
 30
0.0
 40
0
 41
0
  0
VERTEX
  8
0
 10
1.23079
 20
2.49544
 30
0.0
 40
0
 41
0
  0
VERTEX
  8
0
 10
1.33583
 20
2.54101
 30
0.0
 40
0
 41
0
  0
VERTEX
  8
0
 10
1.45264
 20
2.57482
 30
0.0
 40
0
 41
0
  0
VERTEX
  8
0
 10
1.57915
 20
2.59625
 30
0.0
 40
0
 41
0
  0
VERTEX
  8
0
 10
1.67979
 20
2.60433
 30
0.0
 40
0
 41
0
  0
VERTEX
  8
0
 10
1.71337
 20
2.60476
 30
0.0
 40
0
 41
0
  0
VERTEX
  8
0
 10
1.74104
 20
2.60514
 30
0.0
 40
0
 41
0
  0
VERTEX
  8
0
 10
1.82417
 20
2.60157
 30
0.0
 40
0
 41
0
  0
VERTEX
  8
0
 10
1.91812
 20
2.58957
 30
0.0
 40
0
 41
0
  0
VERTEX
  8
0
 10
1.99761
 20
2.5701
 30
0.0
 40
0
 41
0
  0
VERTEX
  8
0
 10
2.06472
 20
2.54443
 30
0.0
 40
0
 41
0
  0
VERTEX
  8
0
 10
2.12175
 20
2.514
 30
0.0
 40
0
 41
0
  0
VERTEX
  8
0
 10
2.1709
 20
2.48004
 30
0.0
 40
0
 41
0
  0
VERTEX
  8
0
 10
2.21446
 20
2.44385
 30
0.0
 40
0
 41
0
  0
VERTEX
  8
0
 10
2.24468
 20
2.41624
 30
0.0
 40
0
 41
0
  0
VERTEX
  8
0
 10
2.25461
 20
2.40685
 30
0.0
 40
0
 41
0
  0
VERTEX
  8
0
 10
2.27496
 20
2.38764
 30
0.0
 40
0
 41
0
  0
VERTEX
  8
0
 10
2.32986
 20
2.32346
 30
0.0
 40
0
 41
0
  0
VERTEX
  8
0
 10
2.39085
 20
2.23329
 30
0.0
 40
0
 41
0
  0
VERTEX
  8
0
 10
2.43576
 20
2.14507
 30
0.0
 40
0
 41
0
  0
VERTEX
  8
0
 10
2.45774
 20
2.08735
 30
0.0
 40
0
 41
0
  0
VERTEX
  8
0
 10
2.46272
 20
2.06749
 30
0.0
 40
0
 41
0
  0
VERTEX
  8
0
 10
2.46653
 20
2.05225
 30
0.0
 40
0
 41
0
  0
VERTEX
  8
0
 10
2.47944
 20
2.00683
 30
0.0
 40
0
 41
0
  0
VERTEX
  8
0
 10
2.49485
 20
1.95768
 30
0.0
 40
0
 41
0
  0
VERTEX
  8
0
 10
2.50863
 20
1.91118
 30
0.0
 40
0
 41
0
  0
VERTEX
  8
0
 10
2.51807
 20
1.87185
 30
0.0
 40
0
 41
0
  0
VERTEX
  8
0
 10
2.52051
 20
1.85861
 30
0.0
 40
0
 41
0
  0
VERTEX
  8
0
 10
2.52339
 20
1.84293
 30
0.0
 40
0
 41
0
  0
VERTEX
  8
0
 10
2.52746
 20
1.79497
 30
0.0
 40
0
 41
0
  0
VERTEX
  8
0
 10
2.52756
 20
1.72667
 30
0.0
 40
0
 41
0
  0
VERTEX
  8
0
 10
2.52225
 20
1.66243
 30
0.0
 40
0
 41
0
  0
VERTEX
  8
0
 10
2.51628
 20
1.62358
 30
0.0
 40
0
 41
0
  0
VERTEX
  8
0
 10
2.51313
 20
1.61089
 30
0.0
 40
0
 41
0
  0
VERTEX
  8
0
 10
2.50976
 20
1.59744
 30
0.0
 40
0
 41
0
  0
VERTEX
  8
0
 10
2.49858
 20
1.55735
 30
0.0
 40
0
 41
0
  0
VERTEX
  8
0
 10
2.47879
 20
1.49978
 30
0.0
 40
0
 41
0
  0
VERTEX
  8
0
 10
2.45415
 20
1.45193
 30
0.0
 40
0
 41
0
  0
VERTEX
  8
0
 10
2.43349
 20
1.42953
 30
0.0
 40
0
 41
0
  0
VERTEX
  8
0
 10
2.42518
 20
1.42725
 30
0.0
 40
0
 41
0
  0
SEQEND
 8
0
  0
POLYLINE
  8
0
 62
     0
 66
     1
 10
0
 20
0
 30
0.0
 70
     1
 40
0
 41
0
  0
VERTEX
  8
0
 10
1.54769
 20
1.67551
 30
0.0
 40
0
 41
0
  0
VERTEX
  8
0
 10
1.54021
 20
1.68733
 30
0.0
 40
0
 41
0
  0
VERTEX
  8
0
 10
1.50526
 20
1.71496
 30
0.0
 40
0
 41
0
  0
VERTEX
  8
0
 10
1.44575
 20
1.73856
 30
0.0
 40
0
 41
0
  0
VERTEX
  8
0
 10
1.37815
 20
1.75071
 30
0.0
 40
0
 41
0
  0
VERTEX
  8
0
 10
1.32807
 20
1.75499
 30
0.0
 40
0
 41
0
  0
VERTEX
  8
0
 10
1.31142
 20
1.75575
 30
0.0
 40
0
 41
0
  0
VERTEX
  8
0
 10
1.29595
 20
1.75651
 30
0.0
 40
0
 41
0
  0
VERTEX
  8
0
 10
1.24935
 20
1.75271
 30
0.0
 40
0
 41
0
  0
VERTEX
  8
0
 10
1.20307
 20
1.73633
 30
0.0
 40
0
 41
0
  0
VERTEX
  8
0
 10
1.17247
 20
1.70589
 30
0.0
 40
0
 41
0
  0
VERTEX
  8
0
 10
1.15907
 20
1.67204
 30
0.0
 40
0
 41
0
  0
VERTEX
  8
0
 10
1.1575
 20
1.66037
 30
0.0
 40
0
 41
0
  0
VERTEX
  8
0
 10
1.15587
 20
1.64865
 30
0.0
 40
0
 41
0
  0
VERTEX
  8
0
 10
1.15478
 20
1.6129
 30
0.0
 40
0
 41
0
  0
VERTEX
  8
0
 10
1.15804
 20
1.55951
 30
0.0
 40
0
 41
0
  0
VERTEX
  8
0
 10
1.1664
 20
1.5051
 30
0.0
 40
0
 41
0
  0
VERTEX
  8
0
 10
1.17524
 20
1.46696
 30
0.0
 40
0
 41
0
  0
VERTEX
  8
0
 10
1.17914
 20
1.45449
 30
0.0
 40
0
 41
0
  0
VERTEX
  8
0
 10
1.18262
 20
1.44319
 30
0.0
 40
0
 41
0
  0
VERTEX
  8
0
 10
1.20041
 20
1.41157
 30
0.0
 40
0
 41
0
  0
VERTEX
  8
0
 10
1.23508
 20
1.37115
 30
0.0
 40
0
 41
0
  0
VERTEX
  8
0
 10
1.27756
 20
1.34256
 30
0.0
 40
0
 41
0
  0
VERTEX
  8
0
 10
1.31158
 20
1.33371
 30
0.0
 40
0
 41
0
  0
VERTEX
  8
0
 10
1.32227
 20
1.33523
 30
0.0
 40
0
 41
0
  0
VERTEX
  8
0
 10
1.33355
 20
1.33691
 30
0.0
 40
0
 41
0
  0
VERTEX
  8
0
 10
1.36599
 20
1.35211
 30
0.0
 40
0
 41
0
  0
VERTEX
  8
0
 10
1.42085
 20
1.38737
 30
0.0
 40
0
 41
0
  0
VERTEX
  8
0
 10
1.47792
 20
1.43397
 30
0.0
 40
0
 41
0
  0
VERTEX
  8
0
 10
1.5165
 20
1.47136
 30
0.0
 40
0
 41
0
  0
VERTEX
  8
0
 10
1.52821
 20
1.48481
 30
0.0
 40
0
 41
0
  0
VERTEX
  8
0
 10
1.53564
 20
1.49343
 30
0.0
 40
0
 41
0
  0
VERTEX
  8
0
 10
1.54878
 20
1.52724
 30
0.0
 40
0
 41
0
  0
VERTEX
  8
0
 10
1.55854
 20
1.58361
 30
0.0
 40
0
 41
0
  0
VERTEX
  8
0
 10
1.55794
 20
1.63818
 30
0.0
 40
0
 41
0
  0
VERTEX
  8
0
 10
1.55263
 20
1.66775
 30
0.0
 40
0
 41
0
  0
VERTEX
  8
0
 10
1.54769
 20
1.67551
 30
0.0
 40
0
 41
0
  0
SEQEND
 8
0
  0
POLYLINE
  8
0
 62
     0
 66
     1
 10
0
 20
0
 30
0.0
 70
     1
 40
0
 41
0
  0
VERTEX
  8
0
 10
1.67779
 20
1.5
 30
0.0
 40
0
 41
0
  0
VERTEX
  8
0
 10
1.67307
 20
1.49968
 30
0.0
 40
0
 41
0
  0
VERTEX
  8
0
 10
1.65989
 20
1.48643
 30
0.0
 40
0
 41
0
  0
VERTEX
  8
0
 10
1.64068
 20
1.45122
 30
0.0
 40
0
 41
0
  0
VERTEX
  8
0
 10
1.62261
 20
1.39925
 30
0.0
 40
0
 41
0
  0
VERTEX
  8
0
 10
1.61111
 20
1.35145
 30
0.0
 40
0
 41
0
  0
VERTEX
  8
0
 10
1.60846
 20
1.33529
 30
0.0
 40
0
 41
0
  0
VERTEX
  8
0
 10
1.60639
 20
1.32302
 30
0.0
 40
0
 41
0
  0
VERTEX
  8
0
 10
1.59657
 20
1.28673
 30
0.0
 40
0
 41
0
  0
VERTEX
  8
0
 10
1.58089
 20
1.23454
 30
0.0
 40
0
 41
0
  0
VERTEX
  8
0
 10
1.56863
 20
1.18392
 30
0.0
 40
0
 41
0
  0
VERTEX
  8
0
 10
1.56543
 20
1.15082
 30
0.0
 40
0
 41
0
  0
VERTEX
  8
0
 10
1.56722
 20
1.14025
 30
0.0
 40
0
 41
0
  0
VERTEX
  8
0
 10
1.56808
 20
1.13504
 30
0.0
 40
0
 41
0
  0
VERTEX
  8
0
 10
1.57579
 20
1.12012
 30
0.0
 40
0
 41
0
  0
VERTEX
  8
0
 10
1.59056
 20
1.11225
 30
0.0
 40
0
 41
0
  0
VERTEX
  8
0
 10
1.60775
 20
1.11784
 30
0.0
 40
0
 41
0
  0
VERTEX
  8
0
 10
1.62082
 20
1.13249
 30
0.0
 40
0
 41
0
  0
VERTEX
  8
0
 10
1.62364
 20
1.13807
 30
0.0
 40
0
 41
0
  0
VERTEX
  8
0
 10
1.62636
 20
1.1435
 30
0.0
 40
0
 41
0
  0
VERTEX
  8
0
 10
1.63406
 20
1.16005
 30
0.0
 40
0
 41
0
  0
VERTEX
  8
0
 10
1.64393
 20
1.17871
 30
0.0
 40
0
 41
0
  0
VERTEX
  8
0
 10
1.655
 20
1.19173
 30
0.0
 40
0
 41
0
  0
VERTEX
  8
0
 10
1.66558
 20
1.19656
 30
0.0
 40
0
 41
0
  0
VERTEX
  8
0
 10
1.66917
 20
1.19656
 30
0.0
 40
0
 41
0
  0
VERTEX
  8
0
 10
1.67144
 20
1.19656
 30
0.0
 40
0
 41
0
  0
VERTEX
  8
0
 10
1.67839
 20
1.19113
 30
0.0
 40
0
 41
0
  0
VERTEX
  8
0
 10
1.68956
 20
1.17681
 30
0.0
 40
0
 41
0
  0
VERTEX
  8
0
 10
1.7021
 20
1.15657
 30
0.0
 40
0
 41
0
  0
VERTEX
  8
0
 10
1.7155
 20
1.13352
 30
0.0
 40
0
 41
0
  0
VERTEX
  8
0
 10
1.72922
 20
1.11062
 30
0.0
 40
0
 41
0
  0
VERTEX
  8
0
 10
1.74268
 20
1.09087
 30
0.0
 40
0
 41
0
  0
VERTEX
  8
0
 10
1.75532
 20
1.07737
 30
0.0
 40
0
 41
0
  0
VERTEX
  8
0
 10
1.764
 20
1.0727
 30
0.0
 40
0
 41
0
  0
VERTEX
  8
0
 10
1.76671
 20
1.07302
 30
0.0
 40
0
 41
0
  0
VERTEX
  8
0
 10
1.77311
 20
1.07384
 30
0.0
 40
0
 41
0
  0
VERTEX
  8
0
 10
1.7915
 20
1.0842
 30
0.0
 40
0
 41
0
  0
VERTEX
  8
0
 10
1.81429
 20
1.10948
 30
0.0
 40
0
 41
0
  0
VERTEX
  8
0
 10
1.83008
 20
1.14583
 30
0.0
 40
0
 41
0
  0
VERTEX
  8
0
 10
1.83475
 20
1.17914
 30
0.0
 40
0
 41
0
  0
VERTEX
  8
0
 10
1.83393
 20
1.19005
 30
0.0
 40
0
 41
0
  0
VERTEX
  8
0
 10
1.83279
 20
1.20361
 30
0.0
 40
0
 41
0
  0
VERTEX
  8
0
 10
1.81515
 20
1.27165
 30
0.0
 40
0
 41
0
  0
VERTEX
  8
0
 10
1.78347
 20
1.34071
 30
0.0
 40
0
 41
0
  0
VERTEX
  8
0
 10
1.77539
 20
1.35476
 30
0.0
 40
0
 41
0
  0
VERTEX
  8
0
 10
1.76872
 20
1.36637
 30
0.0
 40
0
 41
0
  0
VERTEX
  8
0
 10
1.74946
 20
1.40147
 30
0.0
 40
0
 41
0
  0
VERTEX
  8
0
 10
1.7225
 20
1.44911
 30
0.0
 40
0
 41
0
  0
VERTEX
  8
0
 10
1.69754
 20
1.48589
 30
0.0
 40
0
 41
0
  0
VERTEX
  8
0
 10
1.68246
 20
1.50032
 30
0.0
 40
0
 41
0
  0
VERTEX
  8
0
 10
1.67779
 20
1.5
 30
0.0
 40
0
 41
0
  0
SEQEND
 8
0
  0
POLYLINE
  8
0
 62
     0
 66
     1
 10
0
 20
0
 30
0.0
 70
     1
 40
0
 41
0
  0
VERTEX
  8
0
 10
2.20464
 20
1.67551
 30
0.0
 40
0
 41
0
  0
VERTEX
  8
0
 10
2.19829
 20
1.68397
 30
0.0
 40
0
 41
0
  0
VERTEX
  8
0
 10
2.17524
 20
1.70628
 30
0.0
 40
0
 41
0
  0
VERTEX
  8
0
 10
2.13411
 20
1.73112
 30
0.0
 40
0
 41
0
  0
VERTEX
  8
0
 10
2.07835
 20
1.74658
 30
0.0
 40
0
 41
0
  0
VERTEX
  8
0
 10
2.02333
 20
1.75032
 30
0.0
 40
0
 41
0
  0
VERTEX
  8
0
 10
2.00515
 20
1.74924
 30
0.0
 40
0
 41
0
  0
VERTEX
  8
0
 10
1.98822
 20
1.74826
 30
0.0
 40
0
 41
0
  0
VERTEX
  8
0
 10
1.93793
 20
1.73942
 30
0.0
 40
0
 41
0
  0
VERTEX
  8
0
 10
1.87858
 20
1.71838
 30
0.0
 40
0
 41
0
  0
VERTEX
  8
0
 10
1.83479
 20
1.68674
 30
0.0
 40
0
 41
0
  0
VERTEX
  8
0
 10
1.81581
 20
1.65608
 30
0.0
 40
0
 41
0
  0
VERTEX
  8
0
 10
1.8144
 20
1.64518
 30
0.0
 40
0
 41
0
  0
VERTEX
  8
0
 10
1.81293
 20
1.63444
 30
0.0
 40
0
 41
0
  0
VERTEX
  8
0
 10
1.81282
 20
1.60161
 30
0.0
 40
0
 41
0
  0
VERTEX
  8
0
 10
1.82053
 20
1.56586
 30
0.0
 40
0
 41
0
  0
VERTEX
  8
0
 10
1.83653
 20
1.53396
 30
0.0
 40
0
 41
0
  0
VERTEX
  8
0
 10
1.85374
 20
1.50982
 30
0.0
 40
0
 41
0
  0
VERTEX
  8
0
 10
1.85997
 20
1.50217
 30
0.0
 40
0
 41
0
  0
VERTEX
  8
0
 10
1.86388
 20
1.49729
 30
0.0
 40
0
 41
0
  0
VERTEX
  8
0
 10
1.87668
 20
1.48335
 30
0.0
 40
0
 41
0
  0
VERTEX
  8
0
 10
1.89854
 20
1.46192
 30
0.0
 40
0
 41
0
  0
VERTEX
  8
0
 10
1.92426
 20
1.43946
 30
0.0
 40
0
 41
0
  0
VERTEX
  8
0
 10
1.95258
 20
1.41738
 30
0.0
 40
0
 41
0
  0
VERTEX
  8
0
 10
1.98236
 20
1.39725
 30
0.0
 40
0
 41
0
  0
VERTEX
  8
0
 10
2.01232
 20
1.38059
 30
0.0
 40
0
 41
0
  0
VERTEX
  8
0
 10
2.04129
 20
1.36882
 30
0.0
 40
0
 41
0
  0
VERTEX
  8
0
 10
2.06125
 20
1.36388
 30
0.0
 40
0
 41
0
  0
VERTEX
  8
0
 10
2.06803
 20
1.36344
 30
0.0
 40
0
 41
0
  0
VERTEX
  8
0
 10
2.07997
 20
1.36268
 30
0.0
 40
0
 41
0
  0
VERTEX
  8
0
 10
2.11615
 20
1.36437
 30
0.0
 40
0
 41
0
  0
VERTEX
  8
0
 10
2.15722
 20
1.37565
 30
0.0
 40
0
 41
0
  0
VERTEX
  8
0
 10
2.18728
 20
1.40033
 30
0.0
 40
0
 41
0
  0
VERTEX
  8
0
 10
2.20111
 20
1.43088
 30
0.0
 40
0
 41
0
  0
VERTEX
  8
0
 10
2.20247
 20
1.44146
 30
0.0
 40
0
 41
0
  0
VERTEX
  8
0
 10
2.20437
 20
1.45622
 30
0.0
 40
0
 41
0
  0
VERTEX
  8
0
 10
2.21099
 20
1.50032
 30
0.0
 40
0
 41
0
  0
VERTEX
  8
0
 10
2.21897
 20
1.56749
 30
0.0
 40
0
 41
0
  0
VERTEX
  8
0
 10
2.21918
 20
1.63015
 30
0.0
 40
0
 41
0
  0
VERTEX
  8
0
 10
2.21137
 20
1.66656
 30
0.0
 40
0
 41
0
  0
VERTEX
  8
0
 10
2.20464
 20
1.67551
 30
0.0
 40
0
 41
0
  0
SEQEND
 8
0
  0
POLYLINE
  8
0
 62
     0
 66
     1
 10
0
 20
0
 30
0.0
 70
     1
 40
1.5
 41
1.5
  0
VERTEX
  8
0
 10
2.42518
 20
1.42725
 30
0.0
 40
0.0208333
 41
0.0208333
  0
VERTEX
  8
0
 10
2.42042
 20
1.426
 30
0.0
 40
0.0208333
 41
0.0208333
  0
VERTEX
  8
0
 10
2.40429
 20
1.42882
 30
0.0
 40
0.0208333
 41
0.0208333
  0
VERTEX
  8
0
 10
2.38917
 20
1.44303
 30
0.0
 40
0.0208333
 41
0.0208333
  0
VERTEX
  8
0
 10
2.37956
 20
1.46485
 30
0.0
 40
0.0208333
 41
0.0208333
  0
VERTEX
  8
0
 10
2.37565
 20
1.48307
 30
0.0
 40
0.0208333
 41
0.0208333
  0
VERTEX
  8
0
 10
2.37522
 20
1.48915
 30
0.0
 40
0.0208333
 41
0.0208333
  0
VERTEX
  8
0
 10
2.37424
 20
1.5019
 30
0.0
 40
0.0208333
 41
0.0208333
  0
VERTEX
  8
0
 10
2.37375
 20
1.54025
 30
0.0
 40
0.0208333
 41
0.0208333
  0
VERTEX
  8
0
 10
2.37576
 20
1.58242
 30
0.0
 40
0.0208333
 41
0.0208333
  0
VERTEX
  8
0
 10
2.37765
 20
1.61794
 30
0.0
 40
0.0208333
 41
0.0208333
  0
VERTEX
  8
0
 10
2.37717
 20
1.6416
 30
0.0
 40
0.0208333
 41
0.0208333
  0
VERTEX
  8
0
 10
2.37603
 20
1.64931
 30
0.0
 40
0.0208333
 41
0.0208333
  0
VERTEX
  8
0
 10
2.37532
 20
1.65381
 30
0.0
 40
0.0208333
 41
0.0208333
  0
VERTEX
  8
0
 10
2.37463
 20
1.66743
 30
0.0
 40
0.0208333
 41
0.0208333
  0
VERTEX
  8
0
 10
2.37489
 20
1.68668
 30
0.0
 40
0.0208333
 41
0.0208333
  0
VERTEX
  8
0
 10
2.37554
 20
1.70563
 30
0.0
 40
0.0208333
 41
0.0208333
  0
VERTEX
  8
0
 10
2.37517
 20
1.72276
 30
0.0
 40
0.0208333
 41
0.0208333
  0
VERTEX
  8
0
 10
2.37244
 20
1.73665
 30
0.0
 40
0.0208333
 41
0.0208333
  0
VERTEX
  8
0
 10
2.3661
 20
1.74576
 30
0.0
 40
0.0208333
 41
0.0208333
  0
VERTEX
  8
0
 10
2.35476
 20
1.74869
 30
0.0
 40
0.0208333
 41
0.0208333
  0
VERTEX
  8
0
 10
2.34131
 20
1.74567
 30
0.0
 40
0.0208333
 41
0.0208333
  0
VERTEX
  8
0
 10
2.33718
 20
1.74387
 30
0.0
 40
0.0208333
 41
0.0208333
  0
VERTEX
  8
0
 10
2.3329
 20
1.74203
 30
0.0
 40
0.0208333
 41
0.0208333
  0
VERTEX
  8
0
 10
2.32297
 20
1.72971
 30
0.0
 40
0.0208333
 41
0.0208333
  0
VERTEX
  8
0
 10
2.32389
 20
1.70925
 30
0.0
 40
0.0208333
 41
0.0208333
  0
VERTEX
  8
0
 10
2.33301
 20
1.68431
 30
0.0
 40
0.0208333
 41
0.0208333
  0
VERTEX
  8
0
 10
2.34125
 20
1.66379
 30
0.0
 40
0.0208333
 41
0.0208333
  0
VERTEX
  8
0
 10
2.34343
 20
1.65674
 30
0.0
 40
0.0208333
 41
0.0208333
  0
VERTEX
  8
0
 10
2.34631
 20
1.64735
 30
0.0
 40
0.0208333
 41
0.0208333
  0
VERTEX
  8
0
 10
2.34961
 20
1.61486
 30
0.0
 40
0.0208333
 41
0.0208333
  0
VERTEX
  8
0
 10
2.35206
 20
1.55729
 30
0.0
 40
0.0208333
 41
0.0208333
  0
VERTEX
  8
0
 10
2.35232
 20
1.50179
 30
0.0
 40
0.0208333
 41
0.0208333
  0
VERTEX
  8
0
 10
2.35206
 20
1.47493
 30
0.0
 40
0.0208333
 41
0.0208333
  0
VERTEX
  8
0
 10
2.35206
 20
1.46599
 30
0.0
 40
0.0208333
 41
0.0208333
  0
VERTEX
  8
0
 10
2.35206
 20
1.45817
 30
0.0
 40
0.0208333
 41
0.0208333
  0
VERTEX
  8
0
 10
2.35715
 20
1.43468
 30
0.0
 40
0.0208333
 41
0.0208333
  0
VERTEX
  8
0
 10
2.37369
 20
1.4089
 30
0.0
 40
0.0208333
 41
0.0208333
  0
VERTEX
  8
0
 10
2.40326
 20
1.38715
 30
0.0
 40
0.0208333
 41
0.0208333
  0
VERTEX
  8
0
 10
2.43614
 20
1.37185
 30
0.0
 40
0.0208333
 41
0.0208333
  0
VERTEX
  8
0
 10
2.44749
 20
1.36778
 30
0.0
 40
0.0208333
 41
0.0208333
  0
VERTEX
  8
0
 10
2.45404
 20
1.36545
 30
0.0
 40
0.0208333
 41
0.0208333
  0
VERTEX
  8
0
 10
2.47092
 20
1.35026
 30
0.0
 40
0.0208333
 41
0.0208333
  0
VERTEX
  8
0
 10
2.48247
 20
1.32167
 30
0.0
 40
0.0208333
 41
0.0208333
  0
VERTEX
  8
0
 10
2.48361
 20
1.28586
 30
0.0
 40
0.0208333
 41
0.0208333
  0
VERTEX
  8
0
 10
2.47592
 20
1.24658
 30
0.0
 40
0.0208333
 41
0.0208333
  0
VERTEX
  8
0
 10
2.46083
 20
1.20768
 30
0.0
 40
0.0208333
 41
0.0208333
  0
VERTEX
  8
0
 10
2.43994
 20
1.17285
 30
0.0
 40
0.0208333
 41
0.0208333
  0
VERTEX
  8
0
 10
2.41471
 20
1.146
 30
0.0
 40
0.0208333
 41
0.0208333
  0
VERTEX
  8
0
 10
2.39421
 20
1.13292
 30
0.0
 40
0.0208333
 41
0.0208333
  0
VERTEX
  8
0
 10
2.38678
 20
1.13081
 30
0.0
 40
0.0208333
 41
0.0208333
  0
VERTEX
  8
0
 10
2.37392
 20
1.12723
 30
0.0
 40
0.0208333
 41
0.0208333
  0
VERTEX
  8
0
 10
2.33257
 20
1.12641
 30
0.0
 40
0.0208333
 41
0.0208333
  0
VERTEX
  8
0
 10
2.28711
 20
1.1377
 30
0.0
 40
0.0208333
 41
0.0208333
  0
VERTEX
  8
0
 10
2.24593
 20
1.15131
 30
0.0
 40
0.0208333
 41
0.0208333
  0
VERTEX
  8
0
 10
2.21451
 20
1.15565
 30
0.0
 40
0.0208333
 41
0.0208333
  0
VERTEX
  8
0
 10
2.20458
 20
1.15392
 30
0.0
 40
0.0208333
 41
0.0208333
  0
VERTEX
  8
0
 10
2.19624
 20
1.15251
 30
0.0
 40
0.0208333
 41
0.0208333
  0
VERTEX
  8
0
 10
2.17204
 20
1.14393
 30
0.0
 40
0.0208333
 41
0.0208333
  0
VERTEX
  8
0
 10
2.14893
 20
1.12809
 30
0.0
 40
0.0208333
 41
0.0208333
  0
VERTEX
  8
0
 10
2.13346
 20
1.10807
 30
0.0
 40
0.0208333
 41
0.0208333
  0
VERTEX
  8
0
 10
2.12364
 20
1.08572
 30
0.0
 40
0.0208333
 41
0.0208333
  0
VERTEX
  8
0
 10
2.11768
 20
1.06261
 30
0.0
 40
0.0208333
 41
0.0208333
  0
VERTEX
  8
0
 10
2.11356
 20
1.04058
 30
0.0
 40
0.0208333
 41
0.0208333
  0
VERTEX
  8
0
 10
2.10943
 20
1.02132
 30
0.0
 40
0.0208333
 41
0.0208333
  0
VERTEX
  8
0
 10
2.10553
 20
1.00987
 30
0.0
 40
0.0208333
 41
0.0208333
  0
VERTEX
  8
0
 10
2.10346
 20
1.00657
 30
0.0
 40
0.0208333
 41
0.0208333
  0
VERTEX
  8
0
 10
2.10042
 20
1.00184
 30
0.0
 40
0.0208333
 41
0.0208333
  0
VERTEX
  8
0
 10
2.09119
 20
0.987685
 30
0.0
 40
0.0208333
 41
0.0208333
  0
VERTEX
  8
0
 10
2.08137
 20
0.974447
 30
0.0
 40
0.0208333
 41
0.0208333
  0
VERTEX
  8
0
 10
2.0689
 20
0.960667
 30
0.0
 40
0.0208333
 41
0.0208333
  0
VERTEX
  8
0
 10
2.05365
 20
0.945258
 30
0.0
 40
0.0208333
 41
0.0208333
  0
VERTEX
  8
0
 10
2.04856
 20
0.940104
 30
0.0
 40
0.0208333
 41
0.0208333
  0
VERTEX
  8
0
 10
2.04215
 20
0.933757
 30
0.0
 40
0.0208333
 41
0.0208333
  0
VERTEX
  8
0
 10
2.01563
 20
0.905599
 30
0.0
 40
0.0208333
 41
0.0208333
  0
VERTEX
  8
0
 10
1.99294
 20
0.882107
 30
0.0
 40
0.0208333
 41
0.0208333
  0
VERTEX
  8
0
 10
1.9885
 20
0.878039
 30
0.0
 40
0.0208333
 41
0.0208333
  0
VERTEX
  8
0
 10
1.98915
 20
0.877442
 30
0.0
 40
0.0208333
 41
0.0208333
  0
VERTEX
  8
0
 10
1.9936
 20
0.866211
 30
0.0
 40
0.0208333
 41
0.0208333
  0
VERTEX
  8
0
 10
1.99376
 20
0.864421
 30
0.0
 40
0.0208333
 41
0.0208333
  0
VERTEX
  8
0
 10
1.99431
 20
0.856879
 30
0.0
 40
0.0208333
 41
0.0208333
  0
VERTEX
  8
0
 10
2.00786
 20
0.822428
 30
0.0
 40
0.0208333
 41
0.0208333
  0
VERTEX
  8
0
 10
2.02035
 20
0.790961
 30
0.0
 40
0.0208333
 41
0.0208333
  0
VERTEX
  8
0
 10
2.02035
 20
0.780436
 30
0.0
 40
0.0208333
 41
0.0208333
  0
VERTEX
  8
0
 10
2.02035
 20
0.775608
 30
0.0
 40
0.0208333
 41
0.0208333
  0
VERTEX
  8
0
 10
2.01818
 20
0.761068
 30
0.0
 40
0.0208333
 41
0.0208333
  0
VERTEX
  8
0
 10
2.01064
 20
0.747396
 30
0.0
 40
0.0208333
 41
0.0208333
  0
VERTEX
  8
0
 10
1.99571
 20
0.737793
 30
0.0
 40
0.0208333
 41
0.0208333
  0
VERTEX
  8
0
 10
1.97771
 20
0.731987
 30
0.0
 40
0.0208333
 41
0.0208333
  0
VERTEX
  8
0
 10
1.97163
 20
0.730632
 30
0.0
 40
0.0208333
 41
0.0208333
  0
VERTEX
  8
0
 10
1.96544
 20
0.729275
 30
0.0
 40
0.0208333
 41
0.0208333
  0
VERTEX
  8
0
 10
1.94635
 20
0.72819
 30
0.0
 40
0.0208333
 41
0.0208333
  0
VERTEX
  8
0
 10
1.92865
 20
0.73226
 30
0.0
 40
0.0208333
 41
0.0208333
  0
VERTEX
  8
0
 10
1.91781
 20
0.740343
 30
0.0
 40
0.0208333
 41
0.0208333
  0
VERTEX
  8
0
 10
1.91368
 20
0.747558
 30
0.0
 40
0.0208333
 41
0.0208333
  0
VERTEX
  8
0
 10
1.91331
 20
0.750054
 30
0.0
 40
0.0208333
 41
0.0208333
  0
VERTEX
  8
0
 10
1.91276
 20
0.75331
 30
0.0
 40
0.0208333
 41
0.0208333
  0
VERTEX
  8
0
 10
1.91297
 20
0.765408
 30
0.0
 40
0.0208333
 41
0.0208333
  0
VERTEX
  8
0
 10
1.91488
 20
0.788357
 30
0.0
 40
0.0208333
 41
0.0208333
  0
VERTEX
  8
0
 10
1.91835
 20
0.813585
 30
0.0
 40
0.0208333
 41
0.0208333
  0
VERTEX
  8
0
 10
1.92144
 20
0.83035
 30
0.0
 40
0.0208333
 41
0.0208333
  0
VERTEX
  8
0
 10
1.92279
 20
0.835829
 30
0.0
 40
0.0208333
 41
0.0208333
  0
VERTEX
  8
0
 10
1.92329
 20
0.837944
 30
0.0
 40
0.0208333
 41
0.0208333
  0
VERTEX
  8
0
 10
1.92996
 20
0.851833
 30
0.0
 40
0.0208333
 41
0.0208333
  0
VERTEX
  8
0
 10
1.93072
 20
0.852647
 30
0.0
 40
0.0208333
 41
0.0208333
  0
VERTEX
  8
0
 10
1.92279
 20
0.851238
 30
0.0
 40
0.0208333
 41
0.0208333
  0
VERTEX
  8
0
 10
1.87978
 20
0.846571
 30
0.0
 40
0.0208333
 41
0.0208333
  0
VERTEX
  8
0
 10
1.84375
 20
0.844726
 30
0.0
 40
0.0208333
 41
0.0208333
  0
VERTEX
  8
0
 10
1.83176
 20
0.844726
 30
0.0
 40
0.0208333
 41
0.0208333
  0
VERTEX
  8
0
 10
1.83094
 20
0.844726
 30
0.0
 40
0.0208333
 41
0.0208333
  0
VERTEX
  8
0
 10
1.82921
 20
0.844726
 30
0.0
 40
0.0208333
 41
0.0208333
  0
VERTEX
  8
0
 10
1.82867
 20
0.844726
 30
0.0
 40
0.0208333
 41
0.0208333
  0
VERTEX
  8
0
 10
1.83035
 20
0.843642
 30
0.0
 40
0.0208333
 41
0.0208333
  0
VERTEX
  8
0
 10
1.84608
 20
0.822157
 30
0.0
 40
0.0208333
 41
0.0208333
  0
VERTEX
  8
0
 10
1.84728
 20
0.818685
 30
0.0
 40
0.0208333
 41
0.0208333
  0
VERTEX
  8
0
 10
1.84999
 20
0.810493
 30
0.0
 40
0.0208333
 41
0.0208333
  0
VERTEX
  8
0
 10
1.85801
 20
0.775011
 30
0.0
 40
0.0208333
 41
0.0208333
  0
VERTEX
  8
0
 10
1.8616
 20
0.746311
 30
0.0
 40
0.0208333
 41
0.0208333
  0
VERTEX
  8
0
 10
1.86214
 20
0.741428
 30
0.0
 40
0.0208333
 41
0.0208333
  0
VERTEX
  8
0
 10
1.86242
 20
0.738499
 30
0.0
 40
0.0208333
 41
0.0208333
  0
VERTEX
  8
0
 10
1.85889
 20
0.729113
 30
0.0
 40
0.0208333
 41
0.0208333
  0
VERTEX
  8
0
 10
1.84771
 20
0.720865
 30
0.0
 40
0.0208333
 41
0.0208333
  0
VERTEX
  8
0
 10
1.83128
 20
0.715821
 30
0.0
 40
0.0208333
 41
0.0208333
  0
VERTEX
  8
0
 10
1.817
 20
0.71365
 30
0.0
 40
0.0208333
 41
0.0208333
  0
VERTEX
  8
0
 10
1.81222
 20
0.713217
 30
0.0
 40
0.0208333
 41
0.0208333
  0
VERTEX
  8
0
 10
1.80572
 20
0.712674
 30
0.0
 40
0.0208333
 41
0.0208333
  0
VERTEX
  8
0
 10
1.77371
 20
0.717068
 30
0.0
 40
0.0208333
 41
0.0208333
  0
VERTEX
  8
0
 10
1.75261
 20
0.727919
 30
0.0
 40
0.0208333
 41
0.0208333
  0
VERTEX
  8
0
 10
1.75151
 20
0.730632
 30
0.0
 40
0.0208333
 41
0.0208333
  0
VERTEX
  8
0
 10
1.75043
 20
0.733344
 30
0.0
 40
0.0208333
 41
0.0208333
  0
VERTEX
  8
0
 10
1.75017
 20
0.744303
 30
0.0
 40
0.0208333
 41
0.0208333
  0
VERTEX
  8
0
 10
1.75185
 20
0.765625
 30
0.0
 40
0.0208333
 41
0.0208333
  0
VERTEX
  8
0
 10
1.75515
 20
0.789279
 30
0.0
 40
0.0208333
 41
0.0208333
  0
VERTEX
  8
0
 10
1.75782
 20
0.80485
 30
0.0
 40
0.0208333
 41
0.0208333
  0
VERTEX
  8
0
 10
1.75879
 20
0.810004
 30
0.0
 40
0.0208333
 41
0.0208333
  0
VERTEX
  8
0
 10
1.75944
 20
0.813585
 30
0.0
 40
0.0208333
 41
0.0208333
  0
VERTEX
  8
0
 10
1.76981
 20
0.82959
 30
0.0
 40
0.0208333
 41
0.0208333
  0
VERTEX
  8
0
 10
1.78435
 20
0.842231
 30
0.0
 40
0.0208333
 41
0.0208333
  0
VERTEX
  8
0
 10
1.78717
 20
0.844129
 30
0.0
 40
0.0208333
 41
0.0208333
  0
VERTEX
  8
0
 10
1.77983
 20
0.843967
 30
0.0
 40
0.0208333
 41
0.0208333
  0
VERTEX
  8
0
 10
1.70275
 20
0.842068
 30
0.0
 40
0.0208333
 41
0.0208333
  0
VERTEX
  8
0
 10
1.69476
 20
0.841906
 30
0.0
 40
0.0208333
 41
0.0208333
  0
VERTEX
  8
0
 10
1.69689
 20
0.839626
 30
0.0
 40
0.0208333
 41
0.0208333
  0
VERTEX
  8
0
 10
1.71306
 20
0.813476
 30
0.0
 40
0.0208333
 41
0.0208333
  0
VERTEX
  8
0
 10
1.7136
 20
0.810764
 30
0.0
 40
0.0208333
 41
0.0208333
  0
VERTEX
  8
0
 10
1.71468
 20
0.804904
 30
0.0
 40
0.0208333
 41
0.0208333
  0
VERTEX
  8
0
 10
1.722
 20
0.770833
 30
0.0
 40
0.0208333
 41
0.0208333
  0
VERTEX
  8
0
 10
1.72607
 20
0.740886
 30
0.0
 40
0.0208333
 41
0.0208333
  0
VERTEX
  8
0
 10
1.72553
 20
0.737088
 30
0.0
 40
0.0208333
 41
0.0208333
  0
VERTEX
  8
0
 10
1.72515
 20
0.7347
 30
0.0
 40
0.0208333
 41
0.0208333
  0
VERTEX
  8
0
 10
1.72254
 20
0.727647
 30
0.0
 40
0.0208333
 41
0.0208333
  0
VERTEX
  8
0
 10
1.71517
 20
0.721408
 30
0.0
 40
0.0208333
 41
0.0208333
  0
VERTEX
  8
0
 10
1.70047
 20
0.717611
 30
0.0
 40
0.0208333
 41
0.0208333
  0
VERTEX
  8
0
 10
1.68181
 20
0.715712
 30
0.0
 40
0.0208333
 41
0.0208333
  0
VERTEX
  8
0
 10
1.67562
 20
0.715386
 30
0.0
 40
0.0208333
 41
0.0208333
  0
VERTEX
  8
0
 10
1.66531
 20
0.714844
 30
0.0
 40
0.0208333
 41
0.0208333
  0
VERTEX
  8
0
 10
1.63206
 20
0.717828
 30
0.0
 40
0.0208333
 41
0.0208333
  0
VERTEX
  8
0
 10
1.61729
 20
0.726238
 30
0.0
 40
0.0208333
 41
0.0208333
  0
VERTEX
  8
0
 10
1.61621
 20
0.728353
 30
0.0
 40
0.0208333
 41
0.0208333
  0
VERTEX
  8
0
 10
1.61513
 20
0.730524
 30
0.0
 40
0.0208333
 41
0.0208333
  0
VERTEX
  8
0
 10
1.6149
 20
0.741863
 30
0.0
 40
0.0208333
 41
0.0208333
  0
VERTEX
  8
0
 10
1.61675
 20
0.764649
 30
0.0
 40
0.0208333
 41
0.0208333
  0
VERTEX
  8
0
 10
1.62039
 20
0.789822
 30
0.0
 40
0.0208333
 41
0.0208333
  0
VERTEX
  8
0
 10
1.62326
 20
0.805393
 30
0.0
 40
0.0208333
 41
0.0208333
  0
VERTEX
  8
0
 10
1.62451
 20
0.810493
 30
0.0
 40
0.0208333
 41
0.0208333
  0
VERTEX
  8
0
 10
1.62522
 20
0.813368
 30
0.0
 40
0.0208333
 41
0.0208333
  0
VERTEX
  8
0
 10
1.64176
 20
0.839626
 30
0.0
 40
0.0208333
 41
0.0208333
  0
VERTEX
  8
0
 10
1.64378
 20
0.841743
 30
0.0
 40
0.0208333
 41
0.0208333
  0
VERTEX
  8
0
 10
1.63732
 20
0.841851
 30
0.0
 40
0.0208333
 41
0.0208333
  0
VERTEX
  8
0
 10
1.57374
 20
0.844618
 30
0.0
 40
0.0208333
 41
0.0208333
  0
VERTEX
  8
0
 10
1.56754
 20
0.845107
 30
0.0
 40
0.0208333
 41
0.0208333
  0
VERTEX
  8
0
 10
1.56896
 20
0.8412
 30
0.0
 40
0.0208333
 41
0.0208333
  0
VERTEX
  8
0
 10
1.57531
 20
0.830024
 30
0.0
 40
0.0208333
 41
0.0208333
  0
VERTEX
  8
0
 10
1.58589
 20
0.809896
 30
0.0
 40
0.0208333
 41
0.0208333
  0
VERTEX
  8
0
 10
1.59397
 20
0.784179
 30
0.0
 40
0.0208333
 41
0.0208333
  0
VERTEX
  8
0
 10
1.59537
 20
0.760092
 30
0.0
 40
0.0208333
 41
0.0208333
  0
VERTEX
  8
0
 10
1.59418
 20
0.752333
 30
0.0
 40
0.0208333
 41
0.0208333
  0
VERTEX
  8
0
 10
1.59347
 20
0.748101
 30
0.0
 40
0.0208333
 41
0.0208333
  0
VERTEX
  8
0
 10
1.58897
 20
0.735622
 30
0.0
 40
0.0208333
 41
0.0208333
  0
VERTEX
  8
0
 10
1.57742
 20
0.724175
 30
0.0
 40
0.0208333
 41
0.0208333
  0
VERTEX
  8
0
 10
1.55604
 20
0.717557
 30
0.0
 40
0.0208333
 41
0.0208333
  0
VERTEX
  8
0
 10
1.53022
 20
0.71544
 30
0.0
 40
0.0208333
 41
0.0208333
  0
VERTEX
  8
0
 10
1.52165
 20
0.715386
 30
0.0
 40
0.0208333
 41
0.0208333
  0
VERTEX
  8
0
 10
1.51633
 20
0.715386
 30
0.0
 40
0.0208333
 41
0.0208333
  0
VERTEX
  8
0
 10
1.50049
 20
0.719021
 30
0.0
 40
0.0208333
 41
0.0208333
  0
VERTEX
  8
0
 10
1.48568
 20
0.728136
 30
0.0
 40
0.0208333
 41
0.0208333
  0
VERTEX
  8
0
 10
1.47689
 20
0.740126
 30
0.0
 40
0.0208333
 41
0.0208333
  0
VERTEX
  8
0
 10
1.47401
 20
0.74924
 30
0.0
 40
0.0208333
 41
0.0208333
  0
VERTEX
  8
0
 10
1.47401
 20
0.752225
 30
0.0
 40
0.0208333
 41
0.0208333
  0
VERTEX
  8
0
 10
1.47396
 20
0.762642
 30
0.0
 40
0.0208333
 41
0.0208333
  0
VERTEX
  8
0
 10
1.48378
 20
0.806803
 30
0.0
 40
0.0208333
 41
0.0208333
  0
VERTEX
  8
0
 10
1.49832
 20
0.845053
 30
0.0
 40
0.0208333
 41
0.0208333
  0
VERTEX
  8
0
 10
1.50065
 20
0.852485
 30
0.0
 40
0.0208333
 41
0.0208333
  0
VERTEX
  8
0
 10
1.49283
 20
0.853407
 30
0.0
 40
0.0208333
 41
0.0208333
  0
VERTEX
  8
0
 10
1.46192
 20
0.857693
 30
0.0
 40
0.0208333
 41
0.0208333
  0
VERTEX
  8
0
 10
1.43892
 20
0.86339
 30
0.0
 40
0.0208333
 41
0.0208333
  0
VERTEX
  8
0
 10
1.43506
 20
0.864963
 30
0.0
 40
0.0208333
 41
0.0208333
  0
VERTEX
  8
0
 10
1.4356
 20
0.86149
 30
0.0
 40
0.0208333
 41
0.0208333
  0
VERTEX
  8
0
 10
1.44168
 20
0.829482
 30
0.0
 40
0.0208333
 41
0.0208333
  0
VERTEX
  8
0
 10
1.449
 20
0.78559
 30
0.0
 40
0.0208333
 41
0.0208333
  0
VERTEX
  8
0
 10
1.45014
 20
0.776096
 30
0.0
 40
0.0208333
 41
0.0208333
  0
VERTEX
  8
0
 10
1.45085
 20
0.770182
 30
0.0
 40
0.0208333
 41
0.0208333
  0
VERTEX
  8
0
 10
1.44336
 20
0.748807
 30
0.0
 40
0.0208333
 41
0.0208333
  0
VERTEX
  8
0
 10
1.42079
 20
0.739258
 30
0.0
 40
0.0208333
 41
0.0208333
  0
VERTEX
  8
0
 10
1.41331
 20
0.739258
 30
0.0
 40
0.0208333
 41
0.0208333
  0
VERTEX
  8
0
 10
1.40494
 20
0.739258
 30
0.0
 40
0.0208333
 41
0.0208333
  0
VERTEX
  8
0
 10
1.37994
 20
0.748481
 30
0.0
 40
0.0208333
 41
0.0208333
  0
VERTEX
  8
0
 10
1.36778
 20
0.762696
 30
0.0
 40
0.0208333
 41
0.0208333
  0
VERTEX
  8
0
 10
1.36778
 20
0.767415
 30
0.0
 40
0.0208333
 41
0.0208333
  0
VERTEX
  8
0
 10
1.36778
 20
0.774957
 30
0.0
 40
0.0208333
 41
0.0208333
  0
VERTEX
  8
0
 10
1.37576
 20
0.797581
 30
0.0
 40
0.0208333
 41
0.0208333
  0
VERTEX
  8
0
 10
1.39378
 20
0.83035
 30
0.0
 40
0.0208333
 41
0.0208333
  0
VERTEX
  8
0
 10
1.41249
 20
0.85715
 30
0.0
 40
0.0208333
 41
0.0208333
  0
VERTEX
  8
0
 10
1.42182
 20
0.868707
 30
0.0
 40
0.0208333
 41
0.0208333
  0
VERTEX
  8
0
 10
1.4229
 20
0.869358
 30
0.0
 40
0.0208333
 41
0.0208333
  0
VERTEX
  8
0
 10
1.42296
 20
0.869467
 30
0.0
 40
0.0208333
 41
0.0208333
  0
VERTEX
  8
0
 10
1.42415
 20
0.870389
 30
0.0
 40
0.0208333
 41
0.0208333
  0
VERTEX
  8
0
 10
1.42432
 20
0.870443
 30
0.0
 40
0.0208333
 41
0.0208333
  0
VERTEX
  8
0
 10
1.42356
 20
0.870931
 30
0.0
 40
0.0208333
 41
0.0208333
  0
VERTEX
  8
0
 10
1.41618
 20
0.875976
 30
0.0
 40
0.0208333
 41
0.0208333
  0
VERTEX
  8
0
 10
1.41547
 20
0.876519
 30
0.0
 40
0.0208333
 41
0.0208333
  0
VERTEX
  8
0
 10
1.41021
 20
0.880643
 30
0.0
 40
0.0208333
 41
0.0208333
  0
VERTEX
  8
0
 10
1.39518
 20
0.893881
 30
0.0
 40
0.0208333
 41
0.0208333
  0
VERTEX
  8
0
 10
1.37468
 20
0.917806
 30
0.0
 40
0.0208333
 41
0.0208333
  0
VERTEX
  8
0
 10
1.3559
 20
0.951714
 30
0.0
 40
0.0208333
 41
0.0208333
  0
VERTEX
  8
0
 10
1.34353
 20
0.986871
 30
0.0
 40
0.0208333
 41
0.0208333
  0
VERTEX
  8
0
 10
1.34077
 20
0.998861
 30
0.0
 40
0.0208333
 41
0.0208333
  0
VERTEX
  8
0
 10
1.33789
 20
1.01128
 30
0.0
 40
0.0208333
 41
0.0208333
  0
VERTEX
  8
0
 10
1.331
 20
1.04883
 30
0.0
 40
0.0208333
 41
0.0208333
  0
VERTEX
  8
0
 10
1.32189
 20
1.08963
 30
0.0
 40
0.0208333
 41
0.0208333
  0
VERTEX
  8
0
 10
1.30534
 20
1.1231
 30
0.0
 40
0.0208333
 41
0.0208333
  0
VERTEX
  8
0
 10
1.28233
 20
1.14545
 30
0.0
 40
0.0208333
 41
0.0208333
  0
VERTEX
  8
0
 10
1.27344
 20
1.15077
 30
0.0
 40
0.0208333
 41
0.0208333
  0
VERTEX
  8
0
 10
1.26834
 20
1.15386
 30
0.0
 40
0.0208333
 41
0.0208333
  0
VERTEX
  8
0
 10
1.25033
 20
1.15848
 30
0.0
 40
0.0208333
 41
0.0208333
  0
VERTEX
  8
0
 10
1.22412
 20
1.15777
 30
0.0
 40
0.0208333
 41
0.0208333
  0
VERTEX
  8
0
 10
1.19591
 20
1.15099
 30
0.0
 40
0.0208333
 41
0.0208333
  0
VERTEX
  8
0
 10
1.16683
 20
1.14057
 30
0.0
 40
0.0208333
 41
0.0208333
  0
VERTEX
  8
0
 10
1.13802
 20
1.1288
 30
0.0
 40
0.0208333
 41
0.0208333
  0
VERTEX
  8
0
 10
1.11062
 20
1.118
 30
0.0
 40
0.0208333
 41
0.0208333
  0
VERTEX
  8
0
 10
1.08572
 20
1.11062
 30
0.0
 40
0.0208333
 41
0.0208333
  0
VERTEX
  8
0
 10
1.06966
 20
1.1084
 30
0.0
 40
0.0208333
 41
0.0208333
  0
VERTEX
  8
0
 10
1.06451
 20
1.10894
 30
0.0
 40
0.0208333
 41
0.0208333
  0
VERTEX
  8
0
 10
1.05892
 20
1.10954
 30
0.0
 40
0.0208333
 41
0.0208333
  0
VERTEX
  8
0
 10
1.0427
 20
1.11589
 30
0.0
 40
0.0208333
 41
0.0208333
  0
VERTEX
  8
0
 10
1.02051
 20
1.13091
 30
0.0
 40
0.0208333
 41
0.0208333
  0
VERTEX
  8
0
 10
0.998861
 20
1.15202
 30
0.0
 40
0.0208333
 41
0.0208333
  0
VERTEX
  8
0
 10
0.978624
 20
1.17735
 30
0.0
 40
0.0208333
 41
0.0208333
  0
VERTEX
  8
0
 10
0.960883
 20
1.20492
 30
0.0
 40
0.0208333
 41
0.0208333
  0
VERTEX
  8
0
 10
0.946506
 20
1.23275
 30
0.0
 40
0.0208333
 41
0.0208333
  0
VERTEX
  8
0
 10
0.936469
 20
1.25884
 30
0.0
 40
0.0208333
 41
0.0208333
  0
VERTEX
  8
0
 10
0.932292
 20
1.27566
 30
0.0
 40
0.0208333
 41
0.0208333
  0
VERTEX
  8
0
 10
0.931803
 20
1.2813
 30
0.0
 40
0.0208333
 41
0.0208333
  0
VERTEX
  8
0
 10
0.931369
 20
1.28613
 30
0.0
 40
0.0208333
 41
0.0208333
  0
VERTEX
  8
0
 10
0.932671
 20
1.30084
 30
0.0
 40
0.0208333
 41
0.0208333
  0
VERTEX
  8
0
 10
0.938693
 20
1.31407
 30
0.0
 40
0.0208333
 41
0.0208333
  0
VERTEX
  8
0
 10
0.948785
 20
1.32346
 30
0.0
 40
0.0208333
 41
0.0208333
  0
VERTEX
  8
0
 10
0.961806
 20
1.33127
 30
0.0
 40
0.0208333
 41
0.0208333
  0
VERTEX
  8
0
 10
0.976671
 20
1.33984
 30
0.0
 40
0.0208333
 41
0.0208333
  0
VERTEX
  8
0
 10
0.99235
 20
1.35151
 30
0.0
 40
0.0208333
 41
0.0208333
  0
VERTEX
  8
0
 10
1.00776
 20
1.36865
 30
0.0
 40
0.0208333
 41
0.0208333
  0
VERTEX
  8
0
 10
1.01893
 20
1.38704
 30
0.0
 40
0.0208333
 41
0.0208333
  0
VERTEX
  8
0
 10
1.02181
 20
1.39356
 30
0.0
 40
0.0208333
 41
0.0208333
  0
VERTEX
  8
0
 10
1.02593
 20
1.40306
 30
0.0
 40
0.0208333
 41
0.0208333
  0
VERTEX
  8
0
 10
1.03109
 20
1.43463
 30
0.0
 40
0.0208333
 41
0.0208333
  0
VERTEX
  8
0
 10
1.03011
 20
1.48654
 30
0.0
 40
0.0208333
 41
0.0208333
  0
VERTEX
  8
0
 10
1.02501
 20
1.55544
 30
0.0
 40
0.0208333
 41
0.0208333
  0
VERTEX
  8
0
 10
1.02197
 20
1.62451
 30
0.0
 40
0.0208333
 41
0.0208333
  0
VERTEX
  8
0
 10
1.02197
 20
1.64751
 30
0.0
 40
0.0208333
 41
0.0208333
  0
VERTEX
  8
0
 10
1.02197
 20
1.67101
 30
0.0
 40
0.0208333
 41
0.0208333
  0
VERTEX
  8
0
 10
1.03
 20
1.74137
 30
0.0
 40
0.0208333
 41
0.0208333
  0
VERTEX
  8
0
 10
1.05002
 20
1.81549
 30
0.0
 40
0.0208333
 41
0.0208333
  0
VERTEX
  8
0
 10
1.07579
 20
1.87614
 30
0.0
 40
0.0208333
 41
0.0208333
  0
VERTEX
  8
0
 10
1.09511
 20
1.91607
 30
0.0
 40
0.0208333
 41
0.0208333
  0
VERTEX
  8
0
 10
1.10107
 20
1.92953
 30
0.0
 40
0.0208333
 41
0.0208333
  0
VERTEX
  8
0
 10
1.10303
 20
1.93397
 30
0.0
 40
0.0208333
 41
0.0208333
  0
VERTEX
  8
0
 10
1.10715
 20
1.94808
 30
0.0
 40
0.0208333
 41
0.0208333
  0
VERTEX
  8
0
 10
1.1097
 20
1.96658
 30
0.0
 40
0.0208333
 41
0.0208333
  0
VERTEX
  8
0
 10
1.11019
 20
1.98643
 30
0.0
 40
0.0208333
 41
0.0208333
  0
VERTEX
  8
0
 10
1.11003
 20
2.00885
 30
0.0
 40
0.0208333
 41
0.0208333
  0
VERTEX
  8
0
 10
1.11062
 20
2.035
 30
0.0
 40
0.0208333
 41
0.0208333
  0
VERTEX
  8
0
 10
1.1135
 20
2.06629
 30
0.0
 40
0.0208333
 41
0.0208333
  0
VERTEX
  8
0
 10
1.12006
 20
2.10385
 30
0.0
 40
0.0208333
 41
0.0208333
  0
VERTEX
  8
0
 10
1.12842
 20
2.13786
 30
0.0
 40
0.0208333
 41
0.0208333
  0
VERTEX
  8
0
 10
1.13178
 20
2.14899
 30
0.0
 40
0.0208333
 41
0.0208333
  0
VERTEX
  8
0
 10
1.13715
 20
2.16704
 30
0.0
 40
0.0208333
 41
0.0208333
  0
VERTEX
  8
0
 10
1.15593
 20
2.22049
 30
0.0
 40
0.0208333
 41
0.0208333
  0
VERTEX
  8
0
 10
1.17627
 20
2.26824
 30
0.0
 40
0.0208333
 41
0.0208333
  0
VERTEX
  8
0
 10
1.19038
 20
2.29492
 30
0.0
 40
0.0208333
 41
0.0208333
  0
VERTEX
  8
0
 10
1.19564
 20
2.30317
 30
0.0
 40
0.0208333
 41
0.0208333
  0
VERTEX
  8
0
 10
1.19564
 20
2.30317
 30
0.0
 40
0.0208333
 41
0.0208333
  0
VERTEX
  8
0
 10
1.19564
 20
2.30317
 30
0.0
 40
0.0208333
 41
0.0208333
  0
VERTEX
  8
0
 10
1.18669
 20
2.2946
 30
0.0
 40
0.0208333
 41
0.0208333
  0
VERTEX
  8
0
 10
1.16461
 20
2.26785
 30
0.0
 40
0.0208333
 41
0.0208333
  0
VERTEX
  8
0
 10
1.13656
 20
2.2214
 30
0.0
 40
0.0208333
 41
0.0208333
  0
VERTEX
  8
0
 10
1.11502
 20
2.17111
 30
0.0
 40
0.0208333
 41
0.0208333
  0
VERTEX
  8
0
 10
1.10981
 20
2.15375
 30
0.0
 40
0.0208333
 41
0.0208333
  0
VERTEX
  8
0
 10
1.10514
 20
2.13851
 30
0.0
 40
0.0208333
 41
0.0208333
  0
VERTEX
  8
0
 10
1.09451
 20
2.09169
 30
0.0
 40
0.0208333
 41
0.0208333
  0
VERTEX
  8
0
 10
1.08659
 20
2.04004
 30
0.0
 40
0.0208333
 41
0.0208333
  0
VERTEX
  8
0
 10
1.07975
 20
1.99203
 30
0.0
 40
0.0208333
 41
0.0208333
  0
VERTEX
  8
0
 10
1.07151
 20
1.9534
 30
0.0
 40
0.0208333
 41
0.0208333
  0
VERTEX
  8
0
 10
1.06765
 20
1.94081
 30
0.0
 40
0.0208333
 41
0.0208333
  0
VERTEX
  8
0
 10
1.06358
 20
1.92774
 30
0.0
 40
0.0208333
 41
0.0208333
  0
VERTEX
  8
0
 10
1.04899
 20
1.88917
 30
0.0
 40
0.0208333
 41
0.0208333
  0
VERTEX
  8
0
 10
1.0287
 20
1.83843
 30
0.0
 40
0.0208333
 41
0.0208333
  0
VERTEX
  8
0
 10
1.00949
 20
1.78033
 30
0.0
 40
0.0208333
 41
0.0208333
  0
VERTEX
  8
0
 10
0.996799
 20
1.72504
 30
0.0
 40
0.0208333
 41
0.0208333
  0
VERTEX
  8
0
 10
0.994032
 20
1.70638
 30
0.0
 40
0.0208333
 41
0.0208333
  0
VERTEX
  8
0
 10
0.990776
 20
1.68485
 30
0.0
 40
0.0208333
 41
0.0208333
  0
VERTEX
  8
0
 10
0.988226
 20
1.61897
 30
0.0
 40
0.0208333
 41
0.0208333
  0
VERTEX
  8
0
 10
0.9898
 20
1.53326
 30
0.0
 40
0.0208333
 41
0.0208333
  0
VERTEX
  8
0
 10
0.989312
 20
1.46012
 30
0.0
 40
0.0208333
 41
0.0208333
  0
VERTEX
  8
0
 10
0.983507
 20
1.42079
 30
0.0
 40
0.0208333
 41
0.0208333
  0
VERTEX
  8
0
 10
0.977106
 20
1.41049
 30
0.0
 40
0.0208333
 41
0.0208333
  0
VERTEX
  8
0
 10
0.974393
 20
1.40619
 30
0.0
 40
0.0208333
 41
0.0208333
  0
VERTEX
  8
0
 10
0.956
 20
1.39974
 30
0.0
 40
0.0208333
 41
0.0208333
  0
VERTEX
  8
0
 10
0.927681
 20
1.41439
 30
0.0
 40
0.0208333
 41
0.0208333
  0
VERTEX
  8
0
 10
0.901313
 20
1.45606
 30
0.0
 40
0.0208333
 41
0.0208333
  0
VERTEX
  8
0
 10
0.887642
 20
1.50851
 30
0.0
 40
0.0208333
 41
0.0208333
  0
VERTEX
  8
0
 10
0.886393
 20
1.52621
 30
0.0
 40
0.0208333
 41
0.0208333
  0
VERTEX
  8
0
 10
0.884765
 20
1.54818
 30
0.0
 40
0.0208333
 41
0.0208333
  0
VERTEX
  8
0
 10
0.880533
 20
1.61415
 30
0.0
 40
0.0208333
 41
0.0208333
  0
VERTEX
  8
0
 10
0.875976
 20
1.72136
 30
0.0
 40
0.0208333
 41
0.0208333
  0
VERTEX
  8
0
 10
0.875868
 20
1.83143
 30
0.0
 40
0.0208333
 41
0.0208333
  0
VERTEX
  8
0
 10
0.880046
 20
1.90424
 30
0.0
 40
0.0208333
 41
0.0208333
  0
VERTEX
  8
0
 10
0.883626
 20
1.92817
 30
0.0
 40
0.0208333
 41
0.0208333
  0
VERTEX
  8
0
 10
0.884928
 20
1.93718
 30
0.0
 40
0.0208333
 41
0.0208333
  0
VERTEX
  8
0
 10
0.889757
 20
1.96403
 30
0.0
 40
0.0208333
 41
0.0208333
  0
VERTEX
  8
0
 10
0.895887
 20
1.99007
 30
0.0
 40
0.0208333
 41
0.0208333
  0
VERTEX
  8
0
 10
0.902724
 20
2.01112
 30
0.0
 40
0.0208333
 41
0.0208333
  0
VERTEX
  8
0
 10
0.910861
 20
2.03185
 30
0.0
 40
0.0208333
 41
0.0208333
  0
VERTEX
  8
0
 10
0.921007
 20
2.05701
 30
0.0
 40
0.0208333
 41
0.0208333
  0
VERTEX
  8
0
 10
0.933865
 20
2.09136
 30
0.0
 40
0.0208333
 41
0.0208333
  0
VERTEX
  8
0
 10
0.950032
 20
2.1396
 30
0.0
 40
0.0208333
 41
0.0208333
  0
VERTEX
  8
0
 10
0.965386
 20
2.18967
 30
0.0
 40
0.0208333
 41
0.0208333
  0
VERTEX
  8
0
 10
0.970215
 20
2.20643
 30
0.0
 40
0.0208333
 41
0.0208333
  0
VERTEX
  8
0
 10
0.976671
 20
2.229
 30
0.0
 40
0.0208333
 41
0.0208333
  0
VERTEX
  8
0
 10
1.00727
 20
2.29357
 30
0.0
 40
0.0208333
 41
0.0208333
  0
VERTEX
  8
0
 10
1.06445
 20
2.37115
 30
0.0
 40
0.0208333
 41
0.0208333
  0
VERTEX
  8
0
 10
1.13965
 20
2.43858
 30
0.0
 40
0.0208333
 41
0.0208333
  0
VERTEX
  8
0
 10
1.23079
 20
2.49544
 30
0.0
 40
0.0208333
 41
0.0208333
  0
VERTEX
  8
0
 10
1.33583
 20
2.54101
 30
0.0
 40
0.0208333
 41
0.0208333
  0
VERTEX
  8
0
 10
1.45264
 20
2.57482
 30
0.0
 40
0.0208333
 41
0.0208333
  0
VERTEX
  8
0
 10
1.57915
 20
2.59625
 30
0.0
 40
0.0208333
 41
0.0208333
  0
VERTEX
  8
0
 10
1.67979
 20
2.60433
 30
0.0
 40
0.0208333
 41
0.0208333
  0
VERTEX
  8
0
 10
1.71337
 20
2.60476
 30
0.0
 40
0.0208333
 41
0.0208333
  0
VERTEX
  8
0
 10
1.74104
 20
2.60514
 30
0.0
 40
0.0208333
 41
0.0208333
  0
VERTEX
  8
0
 10
1.82417
 20
2.60157
 30
0.0
 40
0.0208333
 41
0.0208333
  0
VERTEX
  8
0
 10
1.91812
 20
2.58957
 30
0.0
 40
0.0208333
 41
0.0208333
  0
VERTEX
  8
0
 10
1.99761
 20
2.5701
 30
0.0
 40
0.0208333
 41
0.0208333
  0
VERTEX
  8
0
 10
2.06472
 20
2.54443
 30
0.0
 40
0.0208333
 41
0.0208333
  0
VERTEX
  8
0
 10
2.12175
 20
2.514
 30
0.0
 40
0.0208333
 41
0.0208333
  0
VERTEX
  8
0
 10
2.1709
 20
2.48004
 30
0.0
 40
0.0208333
 41
0.0208333
  0
VERTEX
  8
0
 10
2.21446
 20
2.44385
 30
0.0
 40
0.0208333
 41
0.0208333
  0
VERTEX
  8
0
 10
2.24468
 20
2.41624
 30
0.0
 40
0.0208333
 41
0.0208333
  0
VERTEX
  8
0
 10
2.25461
 20
2.40685
 30
0.0
 40
0.0208333
 41
0.0208333
  0
VERTEX
  8
0
 10
2.27496
 20
2.38764
 30
0.0
 40
0.0208333
 41
0.0208333
  0
VERTEX
  8
0
 10
2.32986
 20
2.32346
 30
0.0
 40
0.0208333
 41
0.0208333
  0
VERTEX
  8
0
 10
2.39085
 20
2.23329
 30
0.0
 40
0.0208333
 41
0.0208333
  0
VERTEX
  8
0
 10
2.43576
 20
2.14507
 30
0.0
 40
0.0208333
 41
0.0208333
  0
VERTEX
  8
0
 10
2.45774
 20
2.08735
 30
0.0
 40
0.0208333
 41
0.0208333
  0
VERTEX
  8
0
 10
2.46272
 20
2.06749
 30
0.0
 40
0.0208333
 41
0.0208333
  0
VERTEX
  8
0
 10
2.46653
 20
2.05225
 30
0.0
 40
0.0208333
 41
0.0208333
  0
VERTEX
  8
0
 10
2.47944
 20
2.00683
 30
0.0
 40
0.0208333
 41
0.0208333
  0
VERTEX
  8
0
 10
2.49485
 20
1.95768
 30
0.0
 40
0.0208333
 41
0.0208333
  0
VERTEX
  8
0
 10
2.50863
 20
1.91118
 30
0.0
 40
0.0208333
 41
0.0208333
  0
VERTEX
  8
0
 10
2.51807
 20
1.87185
 30
0.0
 40
0.0208333
 41
0.0208333
  0
VERTEX
  8
0
 10
2.52051
 20
1.85861
 30
0.0
 40
0.0208333
 41
0.0208333
  0
VERTEX
  8
0
 10
2.52339
 20
1.84293
 30
0.0
 40
0.0208333
 41
0.0208333
  0
VERTEX
  8
0
 10
2.52746
 20
1.79497
 30
0.0
 40
0.0208333
 41
0.0208333
  0
VERTEX
  8
0
 10
2.52756
 20
1.72667
 30
0.0
 40
0.0208333
 41
0.0208333
  0
VERTEX
  8
0
 10
2.52225
 20
1.66243
 30
0.0
 40
0.0208333
 41
0.0208333
  0
VERTEX
  8
0
 10
2.51628
 20
1.62358
 30
0.0
 40
0.0208333
 41
0.0208333
  0
VERTEX
  8
0
 10
2.51313
 20
1.61089
 30
0.0
 40
0.0208333
 41
0.0208333
  0
VERTEX
  8
0
 10
2.50976
 20
1.59744
 30
0.0
 40
0.0208333
 41
0.0208333
  0
VERTEX
  8
0
 10
2.49858
 20
1.55735
 30
0.0
 40
0.0208333
 41
0.0208333
  0
VERTEX
  8
0
 10
2.47879
 20
1.49978
 30
0.0
 40
0.0208333
 41
0.0208333
  0
VERTEX
  8
0
 10
2.45415
 20
1.45193
 30
0.0
 40
0.0208333
 41
0.0208333
  0
VERTEX
  8
0
 10
2.43349
 20
1.42953
 30
0.0
 40
0.0208333
 41
0.0208333
  0
VERTEX
  8
0
 10
2.42518
 20
1.42725
 30
0.0
 40
0.0208333
 41
0.0208333
  0
SEQEND
 8
0
  0
POLYLINE
  8
0
 62
     0
 66
     1
 10
0
 20
0
 30
0.0
 70
     1
 40
1.5
 41
1.5
  0
VERTEX
  8
0
 10
1.54769
 20
1.67551
 30
0.0
 40
0.0208333
 41
0.0208333
  0
VERTEX
  8
0
 10
1.54021
 20
1.68733
 30
0.0
 40
0.0208333
 41
0.0208333
  0
VERTEX
  8
0
 10
1.50526
 20
1.71496
 30
0.0
 40
0.0208333
 41
0.0208333
  0
VERTEX
  8
0
 10
1.44575
 20
1.73856
 30
0.0
 40
0.0208333
 41
0.0208333
  0
VERTEX
  8
0
 10
1.37815
 20
1.75071
 30
0.0
 40
0.0208333
 41
0.0208333
  0
VERTEX
  8
0
 10
1.32807
 20
1.75499
 30
0.0
 40
0.0208333
 41
0.0208333
  0
VERTEX
  8
0
 10
1.31142
 20
1.75575
 30
0.0
 40
0.0208333
 41
0.0208333
  0
VERTEX
  8
0
 10
1.29595
 20
1.75651
 30
0.0
 40
0.0208333
 41
0.0208333
  0
VERTEX
  8
0
 10
1.24935
 20
1.75271
 30
0.0
 40
0.0208333
 41
0.0208333
  0
VERTEX
  8
0
 10
1.20307
 20
1.73633
 30
0.0
 40
0.0208333
 41
0.0208333
  0
VERTEX
  8
0
 10
1.17247
 20
1.70589
 30
0.0
 40
0.0208333
 41
0.0208333
  0
VERTEX
  8
0
 10
1.15907
 20
1.67204
 30
0.0
 40
0.0208333
 41
0.0208333
  0
VERTEX
  8
0
 10
1.1575
 20
1.66037
 30
0.0
 40
0.0208333
 41
0.0208333
  0
VERTEX
  8
0
 10
1.15587
 20
1.64865
 30
0.0
 40
0.0208333
 41
0.0208333
  0
VERTEX
  8
0
 10
1.15478
 20
1.6129
 30
0.0
 40
0.0208333
 41
0.0208333
  0
VERTEX
  8
0
 10
1.15804
 20
1.55951
 30
0.0
 40
0.0208333
 41
0.0208333
  0
VERTEX
  8
0
 10
1.1664
 20
1.5051
 30
0.0
 40
0.0208333
 41
0.0208333
  0
VERTEX
  8
0
 10
1.17524
 20
1.46696
 30
0.0
 40
0.0208333
 41
0.0208333
  0
VERTEX
  8
0
 10
1.17914
 20
1.45449
 30
0.0
 40
0.0208333
 41
0.0208333
  0
VERTEX
  8
0
 10
1.18262
 20
1.44319
 30
0.0
 40
0.0208333
 41
0.0208333
  0
VERTEX
  8
0
 10
1.20041
 20
1.41157
 30
0.0
 40
0.0208333
 41
0.0208333
  0
VERTEX
  8
0
 10
1.23508
 20
1.37115
 30
0.0
 40
0.0208333
 41
0.0208333
  0
VERTEX
  8
0
 10
1.27756
 20
1.34256
 30
0.0
 40
0.0208333
 41
0.0208333
  0
VERTEX
  8
0
 10
1.31158
 20
1.33371
 30
0.0
 40
0.0208333
 41
0.0208333
  0
VERTEX
  8
0
 10
1.32227
 20
1.33523
 30
0.0
 40
0.0208333
 41
0.0208333
  0
VERTEX
  8
0
 10
1.33355
 20
1.33691
 30
0.0
 40
0.0208333
 41
0.0208333
  0
VERTEX
  8
0
 10
1.36599
 20
1.35211
 30
0.0
 40
0.0208333
 41
0.0208333
  0
VERTEX
  8
0
 10
1.42085
 20
1.38737
 30
0.0
 40
0.0208333
 41
0.0208333
  0
VERTEX
  8
0
 10
1.47792
 20
1.43397
 30
0.0
 40
0.0208333
 41
0.0208333
  0
VERTEX
  8
0
 10
1.5165
 20
1.47136
 30
0.0
 40
0.0208333
 41
0.0208333
  0
VERTEX
  8
0
 10
1.52821
 20
1.48481
 30
0.0
 40
0.0208333
 41
0.0208333
  0
VERTEX
  8
0
 10
1.53564
 20
1.49343
 30
0.0
 40
0.0208333
 41
0.0208333
  0
VERTEX
  8
0
 10
1.54878
 20
1.52724
 30
0.0
 40
0.0208333
 41
0.0208333
  0
VERTEX
  8
0
 10
1.55854
 20
1.58361
 30
0.0
 40
0.0208333
 41
0.0208333
  0
VERTEX
  8
0
 10
1.55794
 20
1.63818
 30
0.0
 40
0.0208333
 41
0.0208333
  0
VERTEX
  8
0
 10
1.55263
 20
1.66775
 30
0.0
 40
0.0208333
 41
0.0208333
  0
VERTEX
  8
0
 10
1.54769
 20
1.67551
 30
0.0
 40
0.0208333
 41
0.0208333
  0
SEQEND
 8
0
  0
POLYLINE
  8
0
 62
     0
 66
     1
 10
0
 20
0
 30
0.0
 70
     1
 40
1.5
 41
1.5
  0
VERTEX
  8
0
 10
1.67779
 20
1.5
 30
0.0
 40
0.0208333
 41
0.0208333
  0
VERTEX
  8
0
 10
1.67307
 20
1.49968
 30
0.0
 40
0.0208333
 41
0.0208333
  0
VERTEX
  8
0
 10
1.65989
 20
1.48643
 30
0.0
 40
0.0208333
 41
0.0208333
  0
VERTEX
  8
0
 10
1.64068
 20
1.45122
 30
0.0
 40
0.0208333
 41
0.0208333
  0
VERTEX
  8
0
 10
1.62261
 20
1.39925
 30
0.0
 40
0.0208333
 41
0.0208333
  0
VERTEX
  8
0
 10
1.61111
 20
1.35145
 30
0.0
 40
0.0208333
 41
0.0208333
  0
VERTEX
  8
0
 10
1.60846
 20
1.33529
 30
0.0
 40
0.0208333
 41
0.0208333
  0
VERTEX
  8
0
 10
1.60639
 20
1.32302
 30
0.0
 40
0.0208333
 41
0.0208333
  0
VERTEX
  8
0
 10
1.59657
 20
1.28673
 30
0.0
 40
0.0208333
 41
0.0208333
  0
VERTEX
  8
0
 10
1.58089
 20
1.23454
 30
0.0
 40
0.0208333
 41
0.0208333
  0
VERTEX
  8
0
 10
1.56863
 20
1.18392
 30
0.0
 40
0.0208333
 41
0.0208333
  0
VERTEX
  8
0
 10
1.56543
 20
1.15082
 30
0.0
 40
0.0208333
 41
0.0208333
  0
VERTEX
  8
0
 10
1.56722
 20
1.14025
 30
0.0
 40
0.0208333
 41
0.0208333
  0
VERTEX
  8
0
 10
1.56808
 20
1.13504
 30
0.0
 40
0.0208333
 41
0.0208333
  0
VERTEX
  8
0
 10
1.57579
 20
1.12012
 30
0.0
 40
0.0208333
 41
0.0208333
  0
VERTEX
  8
0
 10
1.59056
 20
1.11225
 30
0.0
 40
0.0208333
 41
0.0208333
  0
VERTEX
  8
0
 10
1.60775
 20
1.11784
 30
0.0
 40
0.0208333
 41
0.0208333
  0
VERTEX
  8
0
 10
1.62082
 20
1.13249
 30
0.0
 40
0.0208333
 41
0.0208333
  0
VERTEX
  8
0
 10
1.62364
 20
1.13807
 30
0.0
 40
0.0208333
 41
0.0208333
  0
VERTEX
  8
0
 10
1.62636
 20
1.1435
 30
0.0
 40
0.0208333
 41
0.0208333
  0
VERTEX
  8
0
 10
1.63406
 20
1.16005
 30
0.0
 40
0.0208333
 41
0.0208333
  0
VERTEX
  8
0
 10
1.64393
 20
1.17871
 30
0.0
 40
0.0208333
 41
0.0208333
  0
VERTEX
  8
0
 10
1.655
 20
1.19173
 30
0.0
 40
0.0208333
 41
0.0208333
  0
VERTEX
  8
0
 10
1.66558
 20
1.19656
 30
0.0
 40
0.0208333
 41
0.0208333
  0
VERTEX
  8
0
 10
1.66917
 20
1.19656
 30
0.0
 40
0.0208333
 41
0.0208333
  0
VERTEX
  8
0
 10
1.67144
 20
1.19656
 30
0.0
 40
0.0208333
 41
0.0208333
  0
VERTEX
  8
0
 10
1.67839
 20
1.19113
 30
0.0
 40
0.0208333
 41
0.0208333
  0
VERTEX
  8
0
 10
1.68956
 20
1.17681
 30
0.0
 40
0.0208333
 41
0.0208333
  0
VERTEX
  8
0
 10
1.7021
 20
1.15657
 30
0.0
 40
0.0208333
 41
0.0208333
  0
VERTEX
  8
0
 10
1.7155
 20
1.13352
 30
0.0
 40
0.0208333
 41
0.0208333
  0
VERTEX
  8
0
 10
1.72922
 20
1.11062
 30
0.0
 40
0.0208333
 41
0.0208333
  0
VERTEX
  8
0
 10
1.74268
 20
1.09087
 30
0.0
 40
0.0208333
 41
0.0208333
  0
VERTEX
  8
0
 10
1.75532
 20
1.07737
 30
0.0
 40
0.0208333
 41
0.0208333
  0
VERTEX
  8
0
 10
1.764
 20
1.0727
 30
0.0
 40
0.0208333
 41
0.0208333
  0
VERTEX
  8
0
 10
1.76671
 20
1.07302
 30
0.0
 40
0.0208333
 41
0.0208333
  0
VERTEX
  8
0
 10
1.77311
 20
1.07384
 30
0.0
 40
0.0208333
 41
0.0208333
  0
VERTEX
  8
0
 10
1.7915
 20
1.0842
 30
0.0
 40
0.0208333
 41
0.0208333
  0
VERTEX
  8
0
 10
1.81429
 20
1.10948
 30
0.0
 40
0.0208333
 41
0.0208333
  0
VERTEX
  8
0
 10
1.83008
 20
1.14583
 30
0.0
 40
0.0208333
 41
0.0208333
  0
VERTEX
  8
0
 10
1.83475
 20
1.17914
 30
0.0
 40
0.0208333
 41
0.0208333
  0
VERTEX
  8
0
 10
1.83393
 20
1.19005
 30
0.0
 40
0.0208333
 41
0.0208333
  0
VERTEX
  8
0
 10
1.83279
 20
1.20361
 30
0.0
 40
0.0208333
 41
0.0208333
  0
VERTEX
  8
0
 10
1.81515
 20
1.27165
 30
0.0
 40
0.0208333
 41
0.0208333
  0
VERTEX
  8
0
 10
1.78347
 20
1.34071
 30
0.0
 40
0.0208333
 41
0.0208333
  0
VERTEX
  8
0
 10
1.77539
 20
1.35476
 30
0.0
 40
0.0208333
 41
0.0208333
  0
VERTEX
  8
0
 10
1.76872
 20
1.36637
 30
0.0
 40
0.0208333
 41
0.0208333
  0
VERTEX
  8
0
 10
1.74946
 20
1.40147
 30
0.0
 40
0.0208333
 41
0.0208333
  0
VERTEX
  8
0
 10
1.7225
 20
1.44911
 30
0.0
 40
0.0208333
 41
0.0208333
  0
VERTEX
  8
0
 10
1.69754
 20
1.48589
 30
0.0
 40
0.0208333
 41
0.0208333
  0
VERTEX
  8
0
 10
1.68246
 20
1.50032
 30
0.0
 40
0.0208333
 41
0.0208333
  0
VERTEX
  8
0
 10
1.67779
 20
1.5
 30
0.0
 40
0.0208333
 41
0.0208333
  0
SEQEND
 8
0
  0
POLYLINE
  8
0
 62
     0
 66
     1
 10
0
 20
0
 30
0.0
 70
     1
 40
1.5
 41
1.5
  0
VERTEX
  8
0
 10
2.20464
 20
1.67551
 30
0.0
 40
0.0208333
 41
0.0208333
  0
VERTEX
  8
0
 10
2.19829
 20
1.68397
 30
0.0
 40
0.0208333
 41
0.0208333
  0
VERTEX
  8
0
 10
2.17524
 20
1.70628
 30
0.0
 40
0.0208333
 41
0.0208333
  0
VERTEX
  8
0
 10
2.13411
 20
1.73112
 30
0.0
 40
0.0208333
 41
0.0208333
  0
VERTEX
  8
0
 10
2.07835
 20
1.74658
 30
0.0
 40
0.0208333
 41
0.0208333
  0
VERTEX
  8
0
 10
2.02333
 20
1.75032
 30
0.0
 40
0.0208333
 41
0.0208333
  0
VERTEX
  8
0
 10
2.00515
 20
1.74924
 30
0.0
 40
0.0208333
 41
0.0208333
  0
VERTEX
  8
0
 10
1.98822
 20
1.74826
 30
0.0
 40
0.0208333
 41
0.0208333
  0
VERTEX
  8
0
 10
1.93793
 20
1.73942
 30
0.0
 40
0.0208333
 41
0.0208333
  0
VERTEX
  8
0
 10
1.87858
 20
1.71838
 30
0.0
 40
0.0208333
 41
0.0208333
  0
VERTEX
  8
0
 10
1.83479
 20
1.68674
 30
0.0
 40
0.0208333
 41
0.0208333
  0
VERTEX
  8
0
 10
1.81581
 20
1.65608
 30
0.0
 40
0.0208333
 41
0.0208333
  0
VERTEX
  8
0
 10
1.8144
 20
1.64518
 30
0.0
 40
0.0208333
 41
0.0208333
  0
VERTEX
  8
0
 10
1.81293
 20
1.63444
 30
0.0
 40
0.0208333
 41
0.0208333
  0
VERTEX
  8
0
 10
1.81282
 20
1.60161
 30
0.0
 40
0.0208333
 41
0.0208333
  0
VERTEX
  8
0
 10
1.82053
 20
1.56586
 30
0.0
 40
0.0208333
 41
0.0208333
  0
VERTEX
  8
0
 10
1.83653
 20
1.53396
 30
0.0
 40
0.0208333
 41
0.0208333
  0
VERTEX
  8
0
 10
1.85374
 20
1.50982
 30
0.0
 40
0.0208333
 41
0.0208333
  0
VERTEX
  8
0
 10
1.85997
 20
1.50217
 30
0.0
 40
0.0208333
 41
0.0208333
  0
VERTEX
  8
0
 10
1.86388
 20
1.49729
 30
0.0
 40
0.0208333
 41
0.0208333
  0
VERTEX
  8
0
 10
1.87668
 20
1.48335
 30
0.0
 40
0.0208333
 41
0.0208333
  0
VERTEX
  8
0
 10
1.89854
 20
1.46192
 30
0.0
 40
0.0208333
 41
0.0208333
  0
VERTEX
  8
0
 10
1.92426
 20
1.43946
 30
0.0
 40
0.0208333
 41
0.0208333
  0
VERTEX
  8
0
 10
1.95258
 20
1.41738
 30
0.0
 40
0.0208333
 41
0.0208333
  0
VERTEX
  8
0
 10
1.98236
 20
1.39725
 30
0.0
 40
0.0208333
 41
0.0208333
  0
VERTEX
  8
0
 10
2.01232
 20
1.38059
 30
0.0
 40
0.0208333
 41
0.0208333
  0
VERTEX
  8
0
 10
2.04129
 20
1.36882
 30
0.0
 40
0.0208333
 41
0.0208333
  0
VERTEX
  8
0
 10
2.06125
 20
1.36388
 30
0.0
 40
0.0208333
 41
0.0208333
  0
VERTEX
  8
0
 10
2.06803
 20
1.36344
 30
0.0
 40
0.0208333
 41
0.0208333
  0
VERTEX
  8
0
 10
2.07997
 20
1.36268
 30
0.0
 40
0.0208333
 41
0.0208333
  0
VERTEX
  8
0
 10
2.11615
 20
1.36437
 30
0.0
 40
0.0208333
 41
0.0208333
  0
VERTEX
  8
0
 10
2.15722
 20
1.37565
 30
0.0
 40
0.0208333
 41
0.0208333
  0
VERTEX
  8
0
 10
2.18728
 20
1.40033
 30
0.0
 40
0.0208333
 41
0.0208333
  0
VERTEX
  8
0
 10
2.20111
 20
1.43088
 30
0.0
 40
0.0208333
 41
0.0208333
  0
VERTEX
  8
0
 10
2.20247
 20
1.44146
 30
0.0
 40
0.0208333
 41
0.0208333
  0
VERTEX
  8
0
 10
2.20437
 20
1.45622
 30
0.0
 40
0.0208333
 41
0.0208333
  0
VERTEX
  8
0
 10
2.21099
 20
1.50032
 30
0.0
 40
0.0208333
 41
0.0208333
  0
VERTEX
  8
0
 10
2.21897
 20
1.56749
 30
0.0
 40
0.0208333
 41
0.0208333
  0
VERTEX
  8
0
 10
2.21918
 20
1.63015
 30
0.0
 40
0.0208333
 41
0.0208333
  0
VERTEX
  8
0
 10
2.21137
 20
1.66656
 30
0.0
 40
0.0208333
 41
0.0208333
  0
VERTEX
  8
0
 10
2.20464
 20
1.67551
 30
0.0
 40
0.0208333
 41
0.0208333
  0
SEQEND
 8
0
  0
ENDSEC
  0
EOF
